<svg xmlns="http://www.w3.org/2000/svg" xmlns:xlink="http://www.w3.org/1999/xlink" width="150" height="150" viewBox="0 0 150 150">
  <defs>
    <clipPath id="clip-icon-postulaciones-5">
      <rect width="150" height="150"/>
    </clipPath>
  </defs>
  <g id="icon-postulaciones-5" clip-path="url(#clip-icon-postulaciones-5)">
    <g id="_951978" data-name="951978" transform="translate(14.626 15)">
      <g id="Grupo_1547" data-name="Grupo 1547" transform="translate(0 0)">
        <g id="Grupo_1546" data-name="Grupo 1546">
          <path id="Trazado_560" data-name="Trazado 560" d="M121.071,172.677h60.522a2.017,2.017,0,0,0,0-4.035H121.071a2.017,2.017,0,1,0,0,4.035Z" transform="translate(-90.439 -128.294)" fill="#1e6fdd"/>
          <path id="Trazado_561" data-name="Trazado 561" d="M163.76,428.838h-34.3a2.017,2.017,0,1,0,0,4.035h34.3a2.017,2.017,0,0,0,0-4.035Z" transform="translate(-96.815 -325.95)" fill="#1e6fdd"/>
          <path id="Trazado_562" data-name="Trazado 562" d="M121.071,214.645h60.522a2.017,2.017,0,0,0,0-4.035H121.071a2.017,2.017,0,1,0,0,4.035Z" transform="translate(-90.439 -160.175)" fill="#1e6fdd"/>
          <path id="Trazado_563" data-name="Trazado 563" d="M121.071,256.612H164.9a2.017,2.017,0,1,0,0-4.035H121.071a2.017,2.017,0,1,0,0,4.035Z" transform="translate(-90.439 -192.054)" fill="#1e6fdd"/>
          <path id="Trazado_564" data-name="Trazado 564" d="M121.071,298.579h37.566a2.017,2.017,0,1,0,0-4.035H121.071a2.017,2.017,0,1,0,0,4.035Z" transform="translate(-90.439 -223.934)" fill="#1e6fdd"/>
          <path id="Trazado_565" data-name="Trazado 565" d="M176.512,336.51H146.251a2.017,2.017,0,1,0,0,4.034h30.261a2.017,2.017,0,1,0,0-4.034Z" transform="translate(-109.567 -255.814)" fill="#1e6fdd"/>
          <path id="Trazado_566" data-name="Trazado 566" d="M157.459,62.708V29.017c0-.043-.022-.081-.025-.124a1.985,1.985,0,0,0-.1-.523,1.935,1.935,0,0,0-.067-.187,1.99,1.99,0,0,0-.4-.592L130.642,1.364a1.987,1.987,0,0,0-.59-.394A1.95,1.95,0,0,0,129.86.9a1.986,1.986,0,0,0-.516-.1c-.044,0-.084-.026-.129-.026H74.745a6.059,6.059,0,0,0-6.052,6.052V63.313a2.017,2.017,0,1,0,4.035,0V6.825a2.019,2.019,0,0,1,2.017-2.017H127.2V24.982a6.059,6.059,0,0,0,6.052,6.052h20.174v30.61c-.11-.019-.221-.018-.331-.035q-1.137-.176-2.3-.243c-.28-.017-.56-.036-.839-.043-.188,0-.371-.028-.56-.028-.566,0-1.12.047-1.676.085-.21.014-.422.012-.631.032a24.055,24.055,0,0,0-2.776.43c-.193.042-.381.1-.573.148-.724.174-1.436.377-2.133.615-.268.092-.532.192-.8.292q-.945.36-1.848.8c-.254.122-.51.236-.76.367A24.274,24.274,0,0,0,136,65.35c-.206.137-.4.289-.6.432-.572.407-1.128.831-1.661,1.285-.3.253-.582.521-.868.789q-.587.55-1.135,1.136c-.172.184-.366.344-.533.534-.112.127-.2.268-.312.4-.215.255-.414.521-.618.785-.289.374-.582.744-.848,1.133-.239.348-.452.714-.672,1.074-.194.319-.4.63-.583.958a24.023,24.023,0,0,0-2.541,7.06c-.013.067-.019.134-.031.2-.135.74-.242,1.489-.308,2.25-.021.233-.021.468-.036.7-.027.472-.072.94-.072,1.419,0,.117.016.231.018.348,0,.366.035.732.056,1.1.027.454.05.907.1,1.353.016.139.013.278.031.417a23.167,23.167,0,0,0,.859,3.881c.023.075.048.15.072.225q.307.956.69,1.881c.041.1.079.2.122.3q.4.925.875,1.814c.149.28.314.549.474.822s.312.528.478.787c.238.374.483.74.74,1.1.026.036.054.071.08.107a24.18,24.18,0,0,0,17.588,9.969c.282.025.565.028.848.043.392.019.779.06,1.175.06.223,0,.439-.027.66-.033.324-.009.648-.027.973-.049.679-.046,1.347-.121,2.01-.222.131-.02.262-.021.392-.043v6.4a2.019,2.019,0,0,1-2.017,2.017H74.745a2.019,2.019,0,0,1-2.017-2.017V99.625a2.017,2.017,0,0,0-4.035,0v16.139a6.059,6.059,0,0,0,6.052,6.052h76.662a6.059,6.059,0,0,0,6.052-6.052V108.3a24.169,24.169,0,0,0,0-45.592ZM133.25,27a2.019,2.019,0,0,1-2.017-2.017V7.66L150.572,27Zm21.6,77.907h0a20.666,20.666,0,0,1-2.718.563c-.1.014-.205.035-.31.047a19.466,19.466,0,0,1-2.7.148c-.158,0-.311-.018-.468-.024a19.376,19.376,0,0,1-2.478-.243c-.07-.011-.142-.02-.212-.032a20.33,20.33,0,0,1-2.837-.72A20.537,20.537,0,0,1,132.3,96.181c-.06-.1-.117-.192-.175-.288a19.93,19.93,0,0,1-1.054-1.983c-.067-.145-.145-.285-.209-.432a19.594,19.594,0,0,1-.8-2.214c-.085-.286-.152-.58-.225-.872-.137-.549-.253-1.1-.342-1.668-.047-.292-.1-.583-.135-.879-.04-.36-.061-.717-.083-1.075s-.048-.687-.052-1.035c0-.33.015-.657.027-.984.015-.4.023-.794.06-1.184.02-.217.059-.429.086-.644.064-.5.127-.992.226-1.476l.007-.029a20.059,20.059,0,0,1,2.912-6.985c.052-.078.1-.16.15-.238.26-.383.546-.747.831-1.11.144-.183.282-.369.433-.548.216-.256.447-.5.675-.743q.586-.63,1.22-1.2c.2-.178.384-.363.587-.534a20.1,20.1,0,0,1,1.9-1.412c.173-.113.354-.214.53-.322a20.282,20.282,0,0,1,1.813-.989c.151-.073.3-.149.452-.218a20.17,20.17,0,0,1,4.978-1.494q.211-.035.424-.065a20.053,20.053,0,0,1,2.61-.213h0a20.153,20.153,0,0,1,2.807.17c.056.007.11.018.165.025a20.15,20.15,0,0,1,2.728,39.369Z" transform="translate(-52.182 -0.773)" fill="#1e6fdd"/>
          <path id="Trazado_567" data-name="Trazado 567" d="M412.177,300.272h-12.1v-12.1a2.017,2.017,0,1,0-4.034,0v12.1a4.039,4.039,0,0,0,4.035,4.035h12.1a2.017,2.017,0,1,0,0-4.035Z" transform="translate(-300.848 -217.558)" fill="#1e6fdd"/>
          <path id="Trazado_568" data-name="Trazado 568" d="M29.752,294.83l1.473,1.473a2.017,2.017,0,1,0,2.853-2.853l-1.435-1.435a15.773,15.773,0,0,0-4.191-10.545L10.926,262.483a6.242,6.242,0,0,0-3.234-1.872,6.3,6.3,0,0,0-6.016,10.41L19,289.783A15.872,15.872,0,0,0,29.752,294.83ZM4.641,268.283a2.251,2.251,0,0,1,.063-3.128v0a2.239,2.239,0,0,1,1.594-.661h.047a2.231,2.231,0,0,1,1.614.726h0l1.476,1.6-3.2,3.2Zm7.535,1.5,13.311,14.421a11.747,11.747,0,0,1,3.026,6.443,11.847,11.847,0,0,1-6.554-3.6L8.979,272.983Z" transform="translate(-0.001 -198.04)" fill="#1e6fdd"/>
        </g>
      </g>
    </g>
  </g>
</svg>
