<svg xmlns="http://www.w3.org/2000/svg" xmlns:xlink="http://www.w3.org/1999/xlink" width="150" height="150" viewBox="0 0 150 150">
  <defs>
    <clipPath id="clip-icon-postulaciones-6">
      <rect width="150" height="150"/>
    </clipPath>
  </defs>
  <g id="icon-postulaciones-6" clip-path="url(#clip-icon-postulaciones-6)">
    <g id="Grupo_3" data-name="Grupo 3" transform="translate(21.17 15)">
      <path id="Trazado_551" data-name="Trazado 551" d="M221.43,43.987h35.3a1.994,1.994,0,0,0,0-3.987h-35.3a1.994,1.994,0,0,0,0,3.987Z" transform="translate(-178.413 -18.521)" fill="#1e6fdd"/>
      <path id="Trazado_553" data-name="Trazado 553" d="M221.43,118.787h35.3a1.994,1.994,0,0,0,0-3.987h-35.3a1.994,1.994,0,0,0,0,3.987Z" transform="translate(-178.413 -82.104)" fill="#1e6fdd"/>
      <path id="Trazado_555" data-name="Trazado 555" d="M117.394,193.587h64.93a1.994,1.994,0,0,0,0-3.987h-64.93a1.994,1.994,0,0,0,0,3.987Z" transform="translate(-104.008 -145.687)" fill="#1e6fdd"/>
      <path id="Trazado_557" data-name="Trazado 557" d="M184.317,266.39a1.994,1.994,0,0,0-1.994-1.993h-64.93a1.994,1.994,0,0,0,0,3.987h64.93A2,2,0,0,0,184.317,266.39Z" transform="translate(-104.008 -209.268)" fill="#1e6fdd"/>
      <path id="Trazado_559" data-name="Trazado 559" d="M184.317,266.39a1.994,1.994,0,0,0-1.994-1.993h-64.93a1.994,1.994,0,0,0,0,3.987h64.93A2,2,0,0,0,184.317,266.39Z" transform="translate(-104.008 -199.181)" fill="#1e6fdd"/>
      <path id="Trazado_558" data-name="Trazado 558" d="M192.942,57.423l1.375-2.092h0a5.41,5.41,0,0,0-1.58-7.486l-2.507-1.632a5.415,5.415,0,0,0-7.487,1.58l-7.834,12.014L167.1,71.788V7.69A7.7,7.7,0,0,0,159.411,0h-52.4a2.012,2.012,0,0,0-1.41.584L75.983,30.2a2.1,2.1,0,0,0-.583,1.409v81.74a7.7,7.7,0,0,0,7.69,7.69h76.321a7.7,7.7,0,0,0,7.69-7.69V96.1l.851-.6a2.515,2.515,0,0,0,.555-.566l22.2-34.066a6.494,6.494,0,0,1,.389,7.611l-4.685,7.192a1.994,1.994,0,0,0,3.341,2.177l4.685-7.192A10.481,10.481,0,0,0,192.942,57.423ZM93.615,18.213,105.022,6.807V25.918a3.707,3.707,0,0,1-3.7,3.7H82.209Zm69.5,95.141a3.707,3.707,0,0,1-3.7,3.7H83.09a3.707,3.707,0,0,1-3.7-3.7V33.607h21.93a7.7,7.7,0,0,0,7.69-7.69V3.987h50.4a3.707,3.707,0,0,1,3.7,3.7V77.906l-6.183,9.487a2.763,2.763,0,0,0-.293.737l-2.03,9.95-4.213-3.208c-.032-.024-.064-.047-.1-.069a1.991,1.991,0,0,0-2.763.542l-1.24,1.846L144.221,93.3a1.992,1.992,0,0,0-1.654-1.055,1.842,1.842,0,0,0-.272,0,1.991,1.991,0,0,0-1.726,1.352l-2.2,6.542-6.438-4.678a1.993,1.993,0,0,0-3.418-.006l-1.595,2.645-1.327-4.793a1.994,1.994,0,0,0-3-1.146l-9.545,6.125a1.994,1.994,0,0,0,2.154,3.356l7.264-4.663,1.842,6.653a1.992,1.992,0,0,0,1.651,1.442,1.836,1.836,0,0,0,.271.019,1.993,1.993,0,0,0,1.709-.965l2.278-3.771,6.626,4.23a1.991,1.991,0,0,0,2.4.848v-.109a1.993,1.993,0,0,0,2.052-1.351l1.583-4.714L144.328,102a1.993,1.993,0,0,0,3.413.178l1.92-2.851,5.061,3.851a2.069,2.069,0,0,0,2.362.039l6.029-4.28Zm0-19.31-4.221,3,1.08-5.288,1.66,1.082,1.481.965Zm3.141-2.958-2.446-1.593L161.363,87.9l5.587-8.576h.151v-.232l4.438-6.813,5.618-8.628,4.893,3.186Zm24.714-37.94-6.74,10.349-4.893-3.186,6.742-10.349a1.426,1.426,0,0,1,1.971-.415l2.505,1.632a1.417,1.417,0,0,1,.616.9h0A1.414,1.414,0,0,1,190.968,53.146Z" transform="translate(-75.4)" fill="#1e6fdd"/>
    </g>
  </g>
</svg>
