<svg xmlns="http://www.w3.org/2000/svg" xmlns:xlink="http://www.w3.org/1999/xlink" width="150" height="150" viewBox="0 0 150 150">
  <defs>
    <clipPath id="clip-icon-postulaciones-8">
      <rect width="150" height="150"/>
    </clipPath>
  </defs>
  <g id="icon-postulaciones-8" clip-path="url(#clip-icon-postulaciones-8)">
    <path id="Trazado_1" data-name="Trazado 1" d="M150.358,48.017a8.046,8.046,0,0,0-2.515,15.688V78.891a3.515,3.515,0,0,1-1.456,2.846,11.585,11.585,0,0,0-11.116-8.378h-18.1V66.373H122.2a14.6,14.6,0,0,0,14.584-14.584v-37.2A14.6,14.6,0,0,0,122.2,0H96.044A14.6,14.6,0,0,0,81.459,14.584v37.2A14.6,14.6,0,0,0,96.044,66.373h5.029v6.986h-18.1a11.585,11.585,0,0,0-11.144,8.476,3.518,3.518,0,0,1-1.6-2.944V63.706a8.047,8.047,0,1,0-5.029,0V78.891a8.564,8.564,0,0,0,6.423,8.282,11.586,11.586,0,0,0,11.346,9.32h18.1V102.5H93.121A12.685,12.685,0,0,0,80.644,113a8.046,8.046,0,1,0,5.111.154,7.65,7.65,0,0,1,7.366-5.622H106.6v5.528a8.047,8.047,0,1,0,5.029,0v-5.528h13.484a7.65,7.65,0,0,1,7.366,5.622A8.047,8.047,0,1,0,137.6,113a12.685,12.685,0,0,0-12.477-10.5h-7.952V96.493h18.1a11.585,11.585,0,0,0,11.355-9.37,8.563,8.563,0,0,0,6.247-8.232V63.706a8.046,8.046,0,0,0-2.515-15.688ZM67.714,59.081a3.017,3.017,0,1,1,3.017-3.017A3.021,3.021,0,0,1,67.714,59.081ZM85.986,120.7a3.017,3.017,0,1,1-3.017-3.017A3.021,3.021,0,0,1,85.986,120.7Zm49.285-3.017a3.017,3.017,0,1,1-3.017,3.017A3.021,3.021,0,0,1,135.271,117.68ZM96.044,61.344a9.566,9.566,0,0,1-9.555-9.555v-37.2a9.566,9.566,0,0,1,9.555-9.555H122.2a9.566,9.566,0,0,1,9.555,9.555v37.2a9.566,9.566,0,0,1-9.555,9.555Zm16.093,5.029v6.985H106.1V66.374Zm0,54.324a3.017,3.017,0,1,1-3.017-3.017A3.021,3.021,0,0,1,112.137,120.7Zm0-18.2H106.1V96.493h6.035Zm23.134-11.035h-52.3a6.538,6.538,0,0,1,0-13.076h52.3a6.538,6.538,0,0,1,0,13.076Zm15.087-32.382a3.017,3.017,0,1,1,3.017-3.017A3.021,3.021,0,0,1,150.358,59.081Z" transform="translate(-33.754 10.734)" fill="#1e6fdd" stroke="#1e6fdd" stroke-width="0.2"/>
  </g>
</svg>
