<svg xmlns="http://www.w3.org/2000/svg" xmlns:xlink="http://www.w3.org/1999/xlink" width="150" height="150" viewBox="0 0 150 150">
  <defs>
    <clipPath id="clip-icon-postulaciones-3">
      <rect width="150" height="150"/>
    </clipPath>
  </defs>
  <g id="icon-postulaciones-3" clip-path="url(#clip-icon-postulaciones-3)">
    <g id="_882803" data-name="882803" transform="translate(6 38)">
      <path id="Trazado_284" data-name="Trazado 284" d="M295.892,203.2h-3.016a2.091,2.091,0,0,0-2.076,2.076v11.043a2.091,2.091,0,0,0,2.076,2.076h3.016c8.414,0,9.3-5.369,9.3-7.666C305.192,208.486,304.306,203.2,295.892,203.2Zm-.94,11.043v-6.891c3.238,0,6.089.166,6.089,3.376C301.04,214.049,298.273,214.243,294.952,214.243Z" transform="translate(-212.88 -181.308)" fill="#1e6fdd"/>
      <path id="Trazado_285" data-name="Trazado 285" d="M176.934,220.767a2.131,2.131,0,0,0-4.041-.028l-4.345,13.7a2.088,2.088,0,0,0,1.246,2.574,14.979,14.979,0,0,0,10.129.055,2.067,2.067,0,0,0,1.273-2.574Zm-3.764,12.869,1.743-5.452,1.688,5.48A10.97,10.97,0,0,1,173.17,233.636Z" transform="translate(-123.297 -192.952)" fill="#1e6fdd"/>
      <path id="Trazado_286" data-name="Trazado 286" d="M134.423,124.1H3.226A3.284,3.284,0,0,0,0,127.421v67.641a2.061,2.061,0,0,0,2.016,2.076H69.9a3.21,3.21,0,0,0,2.285-.969l64.5-66.4A3.326,3.326,0,0,0,134.423,124.1ZM69.577,192.958H4.033V180.7c7.232,3.875,17.179,5.314,24.465,1.882a1.975,1.975,0,0,0,1.828,1.19h12.1a2.025,2.025,0,0,0,1.909-1.439l1.425-4.456a24.4,24.4,0,0,0,11.4.028l1.371,4.4a2.025,2.025,0,0,0,1.909,1.439H78.5ZM4.033,173.5V159.166c2.8,4.235,8.173,6.5,12.958,8.026,1.506.471,5,1.605,5.242,2.38-.027,1.273-1.963,1.467-3.172,1.495-3.307.055-5.726-.387-9.974-2.961a1.982,1.982,0,0,0-2.823.858Zm78.18,6.476v-9.355a28.748,28.748,0,0,0,10.324-1.273ZM84.5,166.472H80.2a2.062,2.062,0,0,0-2.016,2.076v11.071H61.942l-1.506-4.843a2.037,2.037,0,0,0-2.527-1.356,20.419,20.419,0,0,1-12.8-.055,2.006,2.006,0,0,0-2.554,1.328L41,179.591H33.283l.323-.858a2.124,2.124,0,0,0-.726-2.436c-2.823-2.048-2.823,3.9-13.792,4.013a28.076,28.076,0,0,1-12.394-2.934l2.285-4.65A19.1,19.1,0,0,0,19.2,175.191c5.216-.139,7.1-2.934,7.124-5.563.134-8.441-20.54-4.65-20.3-18.239.134-9.963,13.335-14.032,26.75-8.414l-2.608,4.677c-8.119-3.6-16.857-2.629-16.964,2.768-.027,2.685,2.742,4.871,8.764,6.864,6.1,1.993,11.211,4.068,12.017,9.355a2,2,0,0,0,3.871.415l9.437-25.905h8.737l11.13,31.219a2,2,0,0,0,3.9-.72V141.176c15.378,0,27.987-1.522,27.987,12.786C99.043,161.906,93.747,166.472,84.5,166.472Zm17.851-7.223c1.425-4.9,1.237-13.506-4.651-18.156-3.441-2.712-8.469-4.041-15.351-4.041H69.013A2.062,2.062,0,0,0,67,139.128v20.9l-7.716-21.615a2,2,0,0,0-1.882-1.356H45.865a2,2,0,0,0-1.882,1.356L35.81,160.8c-4.92-6.836-15.674-7.14-18.523-10.323.323-.3,1.425-.885,3.818-.747,2.258.111,4.409.221,8.953,2.491a2.008,2.008,0,0,0,2.635-.83c5-8.939,5.162-8.8,4.812-9.936a2.037,2.037,0,0,0-1.022-1.245c-10.3-5.4-26.186-6.144-32.45,3.875V128.224H132.46Z" transform="translate(0 -124.1)" fill="#1e6fdd"/>
    </g>
  </g>
</svg>
