<svg xmlns="http://www.w3.org/2000/svg" xmlns:xlink="http://www.w3.org/1999/xlink" width="150" height="150" viewBox="0 0 150 150">
  <defs>
    <clipPath id="clip-icon-postulaciones-1">
      <rect width="150" height="150"/>
    </clipPath>
  </defs>
  <g id="icon-postulaciones-1" clip-path="url(#clip-icon-postulaciones-1)">
    <g id="_845998" data-name="845998" transform="translate(6.531 13.289)">
      <g id="Grupo_1523" data-name="Grupo 1523" transform="translate(0 0)">
        <g id="Grupo_1522" data-name="Grupo 1522">
          <path id="Trazado_532" data-name="Trazado 532" d="M123.429,31.338h-8.645V24.487a3.587,3.587,0,0,0-7.174,0v6.851H72.457V24.487a3.587,3.587,0,0,0-7.174,0v6.851H29.772V24.487a3.587,3.587,0,0,0-7.174,0v6.851H14.312A14.514,14.514,0,0,0,0,45.865v83.4a14.313,14.313,0,0,0,14.312,14.348H123.393A14.306,14.306,0,0,0,137.7,129.3V45.865A14.46,14.46,0,0,0,123.429,31.338Zm7.138,97.925a7.157,7.157,0,0,1-7.1,7.174H14.312A7.134,7.134,0,0,1,7.174,129.3V45.865a7.3,7.3,0,0,1,7.138-7.353H22.6v5.2a3.587,3.587,0,1,0,7.174,0v-5.2H65.283v5.2a3.587,3.587,0,1,0,7.174,0v-5.2H107.61v5.2a3.587,3.587,0,0,0,7.174,0v-5.2h8.645a7.3,7.3,0,0,1,7.138,7.353Z" transform="translate(0 -20.9)" fill="#1e6fdd"/>
        </g>
      </g>
      <g id="Grupo_1525" data-name="Grupo 1525" transform="translate(49.572 40.928)">
        <g id="Grupo_1524" data-name="Grupo 1524" transform="translate(0 0)">
          <path id="Trazado_533" data-name="Trazado 533" d="M148.064,135h-6.277a3.587,3.587,0,1,0,0,7.174h6.277a3.587,3.587,0,1,0,0-7.174Z" transform="translate(-138.2 -135)" fill="#1e6fdd"/>
        </g>
      </g>
      <g id="Grupo_1527" data-name="Grupo 1527" transform="translate(74.538 40.928)">
        <g id="Grupo_1526" data-name="Grupo 1526" transform="translate(0 0)">
          <path id="Trazado_534" data-name="Trazado 534" d="M217.664,135h-6.277a3.587,3.587,0,1,0,0,7.174h6.277a3.587,3.587,0,1,0,0-7.174Z" transform="translate(-207.8 -135)" fill="#1e6fdd"/>
        </g>
      </g>
      <g id="Grupo_1529" data-name="Grupo 1529" transform="translate(99.719 40.928)">
        <g id="Grupo_1528" data-name="Grupo 1528" transform="translate(0 0)">
          <path id="Trazado_535" data-name="Trazado 535" d="M287.864,135h-6.277a3.587,3.587,0,1,0,0,7.174h6.277a3.587,3.587,0,0,0,0-7.174Z" transform="translate(-278 -135)" fill="#1e6fdd"/>
        </g>
      </g>
      <g id="Grupo_1531" data-name="Grupo 1531" transform="translate(49.572 65.678)">
        <g id="Grupo_1530" data-name="Grupo 1530">
          <path id="Trazado_536" data-name="Trazado 536" d="M148.064,204h-6.277a3.587,3.587,0,1,0,0,7.174h6.277a3.587,3.587,0,1,0,0-7.174Z" transform="translate(-138.2 -204)" fill="#1e6fdd"/>
        </g>
      </g>
      <g id="Grupo_1533" data-name="Grupo 1533" transform="translate(24.392 65.678)">
        <g id="Grupo_1532" data-name="Grupo 1532">
          <path id="Trazado_537" data-name="Trazado 537" d="M77.9,204H71.587a3.587,3.587,0,1,0,0,7.174h6.277A3.587,3.587,0,0,0,77.9,204Z" transform="translate(-68 -204)" fill="#1e6fdd"/>
        </g>
      </g>
      <g id="Grupo_1535" data-name="Grupo 1535" transform="translate(74.538 65.678)">
        <g id="Grupo_1534" data-name="Grupo 1534">
          <path id="Trazado_538" data-name="Trazado 538" d="M217.664,204h-6.277a3.587,3.587,0,1,0,0,7.174h6.277a3.587,3.587,0,1,0,0-7.174Z" transform="translate(-207.8 -204)" fill="#1e6fdd"/>
        </g>
      </g>
      <g id="Grupo_1537" data-name="Grupo 1537" transform="translate(99.719 65.678)">
        <g id="Grupo_1536" data-name="Grupo 1536">
          <path id="Trazado_539" data-name="Trazado 539" d="M287.864,204h-6.277a3.587,3.587,0,1,0,0,7.174h6.277a3.587,3.587,0,0,0,0-7.174Z" transform="translate(-278 -204)" fill="#1e6fdd"/>
        </g>
      </g>
      <g id="Grupo_1539" data-name="Grupo 1539" transform="translate(49.572 90.07)">
        <g id="Grupo_1538" data-name="Grupo 1538" transform="translate(0 0)">
          <path id="Trazado_540" data-name="Trazado 540" d="M148.064,272h-6.277a3.587,3.587,0,1,0,0,7.174h6.277a3.587,3.587,0,1,0,0-7.174Z" transform="translate(-138.2 -272)" fill="#1e6fdd"/>
        </g>
      </g>
      <g id="Grupo_1541" data-name="Grupo 1541" transform="translate(24.392 90.07)">
        <g id="Grupo_1540" data-name="Grupo 1540" transform="translate(0 0)">
          <path id="Trazado_541" data-name="Trazado 541" d="M77.9,272H71.587a3.587,3.587,0,1,0,0,7.174h6.277A3.587,3.587,0,0,0,77.9,272Z" transform="translate(-68 -272)" fill="#1e6fdd"/>
        </g>
      </g>
      <g id="Grupo_1543" data-name="Grupo 1543" transform="translate(74.538 90.07)">
        <g id="Grupo_1542" data-name="Grupo 1542" transform="translate(0 0)">
          <path id="Trazado_542" data-name="Trazado 542" d="M217.664,272h-6.277a3.587,3.587,0,1,0,0,7.174h6.277a3.587,3.587,0,1,0,0-7.174Z" transform="translate(-207.8 -272)" fill="#1e6fdd"/>
        </g>
      </g>
    </g>
  </g>
</svg>
