<svg xmlns="http://www.w3.org/2000/svg" xmlns:xlink="http://www.w3.org/1999/xlink" width="150" height="150" viewBox="0 0 150 150">
  <defs>
    <clipPath id="clip-icon-postulaciones-4">
      <rect width="150" height="150"/>
    </clipPath>
  </defs>
  <g id="icon-postulaciones-4" clip-path="url(#clip-icon-postulaciones-4)">
    <path id="_2933787" data-name="2933787" d="M106.557,30.081H89.194l-1.885-9.114A17.224,17.224,0,0,0,70.442,7.37H41.127a17.224,17.224,0,0,0-16.867,13.6l-1.885,9.11H5.012A4.987,4.987,0,0,0,0,35.029v64.89a4.986,4.986,0,0,0,5.012,4.95H106.557a4.986,4.986,0,0,0,5.012-4.95V35.029A4.987,4.987,0,0,0,106.557,30.081ZM27.25,21.571A14.171,14.171,0,0,1,41.127,10.38H70.442A14.171,14.171,0,0,1,84.319,21.571l1.762,8.511h-4l-1.6-7.735a10.247,10.247,0,0,0-10.035-8.092H41.127a10.247,10.247,0,0,0-10.035,8.092l-1.6,7.735h-4Zm51.713,8.51H32.606l1.475-7.132a7.194,7.194,0,0,1,7.045-5.681H70.442a7.194,7.194,0,0,1,7.045,5.681ZM3.051,35.029a1.952,1.952,0,0,1,1.961-1.937H106.557a1.952,1.952,0,0,1,1.961,1.937V51.643A14.094,14.094,0,0,1,94.354,65.631H17.215A14.094,14.094,0,0,1,3.051,51.643ZM77.411,68.644h8.063v8.78a1.084,1.084,0,0,1-1.09,1.076H78.5a1.085,1.085,0,0,1-1.09-1.076Zm-51.317,0h8.063v8.78a1.084,1.084,0,0,1-1.09,1.076H27.184a1.085,1.085,0,0,1-1.09-1.076Zm82.424,31.274a1.952,1.952,0,0,1-1.961,1.937H5.012a1.952,1.952,0,0,1-1.961-1.937V61.284a17.264,17.264,0,0,0,14.164,7.36h5.829v8.78a4.12,4.12,0,0,0,4.14,4.089h5.884a4.119,4.119,0,0,0,4.14-4.089v-8.78H74.361v8.78a4.12,4.12,0,0,0,4.14,4.089h5.884a4.119,4.119,0,0,0,4.14-4.089v-8.78h5.829a17.264,17.264,0,0,0,14.164-7.36Z" transform="translate(19.385 18.401)" fill="#1e6fdd" stroke="#1e6edc" stroke-width="2"/>
  </g>
</svg>
