<svg xmlns="http://www.w3.org/2000/svg" xmlns:xlink="http://www.w3.org/1999/xlink" width="150" height="150" viewBox="0 0 150 150">
  <defs>
    <clipPath id="clip-icon-postulaciones-7">
      <rect width="150" height="150"/>
    </clipPath>
  </defs>
  <g id="icon-postulaciones-7" clip-path="url(#clip-icon-postulaciones-7)">
    <g id="_905523" data-name="905523" transform="translate(16.898 17.393)">
      <g id="Grupo_1552" data-name="Grupo 1552" transform="translate(0 0)">
        <path id="Trazado_578" data-name="Trazado 578" d="M113.324,2.777C110.578.031,105.832-.239,99.6,2c-4.289,1.538-8.787,4.114-10.94,6.267L71.371,25.546,14.477,16.61,0,31.087,47.3,49.615,32.115,64.8,10.559,66.065.222,76.4,23.616,87.69l-6.554,6.554,4.8,4.8L28.4,92.494l11.3,23.383,10.334-10.334L51.3,83.986,66.741,68.543l18.524,47.293L99.742,101.36,90.808,44.477l17.031-17.031c2.152-2.152,4.729-6.651,6.267-10.94C116.341,10.271,116.071,5.523,113.324,2.777ZM12.126,28.553l4.707-4.707L65.438,31.48l-12.9,12.9ZM92.507,99,87.8,103.711,71.975,63.31l12.9-12.9Zm15.214-84.787a27.552,27.552,0,0,1-4.678,8.433L44.679,81.015l-1.263,21.556-1.76,1.76L33.482,87.416l5.9-5.9-4.8-4.8L28.7,82.61,11.772,74.444l1.758-1.758,21.556-1.262L93.451,13.058a27.561,27.561,0,0,1,8.433-4.678c4.1-1.471,6.281-1.171,6.645-.808S109.192,10.113,107.721,14.218Z" transform="translate(0 -0.498)" fill="#1e6fdd" stroke="#fff" stroke-width="1.5"/>
      </g>
    </g>
  </g>
</svg>
