<?xml version="1.0" encoding="utf-8"?>
<!-- Generator: Adobe Illustrator 24.1.2, SVG Export Plug-In . SVG Version: 6.00 Build 0)  -->
<svg version="1.1" id="Capa_1" xmlns="http://www.w3.org/2000/svg" xmlns:xlink="http://www.w3.org/1999/xlink" x="0px" y="0px"
	 viewBox="0 0 150 150" style="enable-background:new 0 0 150 150;" xml:space="preserve">
<style type="text/css">
	.st0{fill:#8D8D96;}
</style>
<g id="Grupo_1103">
	<g id="Grupo_1102">
		<path id="Trazado_428" class="st0" d="M65.3,15c-28,0-50.7,22.7-50.7,50.7s22.7,50.7,50.7,50.7S116,93.7,116,65.7l0,0
			C115.9,37.7,93.3,15,65.3,15z M65.3,107.5c-23.1,0-41.8-18.7-41.8-41.8s18.7-41.8,41.8-41.8s41.8,18.7,41.8,41.8
			C107.1,88.8,88.4,107.5,65.3,107.5z"/>
	</g>
</g>
<g id="Grupo_1105" transform="translate(13.81 13.811)">
	<g id="Grupo_1104">
		<path id="Trazado_429" class="st0" d="M119.5,113.6L87.3,81.4c-1.7-1.7-4.5-1.7-6.3,0c-1.7,1.7-1.7,4.5,0,6.3l32.2,32.2
			c1.7,1.7,4.5,1.7,6.3,0S121.2,115.4,119.5,113.6z"/>
	</g>
</g>
</svg>
