<?xml version="1.0" encoding="utf-8"?>
<!-- Generator: Adobe Illustrator 24.1.2, SVG Export Plug-In . SVG Version: 6.00 Build 0)  -->
<svg version="1.1" id="Capa_1" xmlns="http://www.w3.org/2000/svg" xmlns:xlink="http://www.w3.org/1999/xlink" x="0px" y="0px"
	 viewBox="0 0 200 200" style="enable-background:new 0 0 200 200;" xml:space="preserve">
<style type="text/css">
	.st0{fill:#1274BA;}
	.st1{fill:#FFFFFF;}
</style>
<g>
	<path class="st0" d="M152.7,118.2c-3.1-0.8-6-1.9-8.7-3.4l1.7,6.9l-44.5-26.7l26.7-44.5l2.4,9.6c1.8-2.6,3.8-5,6.1-7l-1.5-6
		c-1.5-6.1-7.8-9.9-13.9-8.4L16.6,64.7c-6.1,1.5-9.9,7.8-8.4,13.9l18.5,74.3c1.5,6.1,7.8,9.9,13.9,8.4l104.5-26.1
		c6.1-1.5,9.9-7.8,8.4-13.9L152.7,118.2z M121.4,46.5l-37.9,63.1L20,71.8L121.4,46.5z M33.8,149.6L16,78.3l44.6,26.5L33.8,149.6z
		 M40.3,153.5l26.9-44.7l15.6,9.3c1.8,1.1,4.2,0.5,5.2-1.3l9.2-15.3l44.5,26.7L40.3,153.5z"/>
	<circle id="Elipse_36_1_" class="st0" cx="161.8" cy="81.3" r="30.3"/>
	<g id="_506431" transform="translate(6353.323 1418.895)">
		<g id="Grupo_277" transform="translate(5.263 89.64)">
			<g id="Grupo_276">
				<path id="Trazado_264" class="st1" d="M-6186.7-1416.7h-21.3v2.9h22.4v-2.9H-6186.7z"/>
			</g>
		</g>
		<g id="Grupo_279" transform="translate(6.001 77.078)">
			<g id="Grupo_278">
				<path id="Trazado_265" class="st1" d="M-6206.1-1422.4l-1.5,3.8l1,0.5l1,0.5l1.2,0.6l0.9-1.3l0.6-0.9l0.6-0.9L-6206.1-1422.4z"
					/>
			</g>
		</g>
		<g id="Grupo_281" transform="translate(16.285 77.078)">
			<g id="Grupo_280">
				<path id="Trazado_266" class="st1" d="M-6199.1-1422.4l-3.9,2.3l0.6,0.9l0.6,0.9l0.9,1.2l1.3-0.6l1-0.5l1-0.5L-6199.1-1422.4z"
					/>
			</g>
		</g>
		<g id="Grupo_283" transform="translate(0 73.05)">
			<g id="Grupo_282">
				<path id="Trazado_267" class="st1" d="M-6175.7-1418.6c-1.6,0-2.9,1.2-3.1,2.8c-0.1,0.8,0.1,1.6,0.6,2.2l-2.2,1.1l-1,0.5
					l-0.1,0.1l0,0l-0.9,0.4l-2.9,1.4l-2.1-3l-0.6-0.8l0,0l-0.1-0.1l-0.6-0.9l-2.1-3.1c1.7-0.4,2.7-2.1,2.3-3.7
					c-0.4-1.7-2.1-2.7-3.7-2.3s-2.7,2.1-2.3,3.7c0.1,0.4,0.3,0.8,0.5,1.1c0.2,0.3,0.5,0.6,0.8,0.8c0.3,0.2,0.7,0.4,1,0.5l-2.1,3
					l-0.6,0.9l-0.1,0.2l-0.5,0.7l-2.1,3l-2.8-1.4l-0.9-0.5l-0.1,0l-1-0.5l-2.4-1.2c0.5-0.6,0.8-1.3,0.8-2.1l0,0
					c0-1.7-1.4-3.1-3.1-3.1c-1.7,0-3.1,1.4-3.1,3.1s1.4,3.1,3.1,3.1c0.6,0,1.2-0.2,1.8-0.5l3.5,9.8l0.4,1.1h20.2l0.4-1.1l3.4-9.6
					c0.5,0.4,1.2,0.7,1.9,0.7c0.1,0,0.1,0,0.2,0c1.7-0.1,3-1.6,2.9-3.3C-6172.7-1417.3-6174.1-1418.6-6175.7-1418.6L-6175.7-1418.6z
					"/>
			</g>
		</g>
	</g>
</g>
</svg>
