<?xml version="1.0" encoding="utf-8"?>
<!-- Generator: Adobe Illustrator 24.1.2, SVG Export Plug-In . SVG Version: 6.00 Build 0)  -->
<svg version="1.1" id="Capa_1" xmlns="http://www.w3.org/2000/svg" xmlns:xlink="http://www.w3.org/1999/xlink" x="0px" y="0px"
	 viewBox="0 0 351.4 200" style="enable-background:new 0 0 351.4 200;" xml:space="preserve">
<style type="text/css">
	.st0{fill:none;stroke:#CBCFE7;}
	.st1{fill:url(#Trazado_219_1_);}
	.st2{fill:url(#Trazado_220_1_);}
	.st3{fill:url(#Trazado_221_1_);}
	.st4{fill:#808080;}
	.st5{fill:url(#Trazado_229_1_);}
	.st6{fill:#FFFFFF;}
	.st7{opacity:0.2;fill:url(#Trazado_231_1_);enable-background:new    ;}
	.st8{opacity:0.2;fill:url(#Trazado_232_1_);enable-background:new    ;}
	.st9{fill:#616161;}
	.st10{fill:#1278BD;}
	.st11{fill:#1DA1F2;}
</style>
<g id="Rectángulo_230">
	<path class="st0" d="M30.4,29.1h119.9c6.1,0,11,4.9,11,11V160c0,6.1-4.9,11-11,11H30.4c-6.1,0-11-4.9-11-11V40
		C19.4,34,24.3,29.1,30.4,29.1z"/>
</g>
<g id="Rectángulo_231" transform="translate(116.588)">
	<path class="st0" d="M84.5,29.1h119.9c6.1,0,11,4.9,11,11V160c0,6.1-4.9,11-11,11H84.5c-6.1,0-11-4.9-11-11V40
		C73.5,34,78.4,29.1,84.5,29.1z"/>
</g>
<g id="Grupo_390" transform="translate(136.639 20.445)">
	<g id="Grupo_185" transform="translate(0 0)">
		<g id="Grupo_181" transform="translate(0 40.214)">
			<g id="Grupo_179">
				<g id="Grupo_177">
					
						<radialGradient id="Trazado_219_1_" cx="23.0134" cy="-85.769" r="3.9697" gradientTransform="matrix(9.389 0 0 9.389 -132.8698 857.1741)" gradientUnits="userSpaceOnUse">
						<stop  offset="1.000000e-03" style="stop-color:#4DA2D0"/>
						<stop  offset="0.301" style="stop-color:#1E9CD7"/>
						<stop  offset="0.984" style="stop-color:#00479A"/>
					</radialGradient>
					<path id="Trazado_219" class="st1" d="M89.6,62.3L88,61.6l-0.2-0.1c-1.1-0.4-1.8-0.7-1.8-1.2c0-0.8,0.9-0.9,1.4-0.9
						c1,0,2,0.3,2.8,1l0.2,0.1l1.7-2.2L92,58.2c-1.2-1.1-2.8-1.7-4.4-1.7c-2.8,0-4.9,1.7-4.9,4.1c0.1,1.7,1.2,3.2,2.9,3.7l1.7,0.7
						l0.3,0.1c1.1,0.4,1.5,0.6,1.5,1.3c0,0.5-0.6,0.9-1.6,0.9c-1.2,0-2.3-0.5-3.2-1.3L84,65.8l-2,2.4l0.2,0.2c1.4,1.2,3.2,1.9,5,1.9
						c3.6,0,5.2-2.2,5.2-4.2C92.5,64.2,91.3,62.7,89.6,62.3z"/>
					
						<radialGradient id="Trazado_220_1_" cx="21.9917" cy="-84.8842" r="4.1102" gradientTransform="matrix(9.0634 0 0 9.065 -117.6612 821.3766)" gradientUnits="userSpaceOnUse">
						<stop  offset="1.000000e-03" style="stop-color:#4DA2D0"/>
						<stop  offset="0.301" style="stop-color:#1E9CD7"/>
						<stop  offset="0.984" style="stop-color:#00479A"/>
					</radialGradient>
					<path id="Trazado_220" class="st2" d="M96.1,56.7L91.9,70h3.5l0.8-3h3.5l0.8,3h3.6L100,56.7H96.1z M97.1,63.3
						c0.2-0.9,0.5-2,0.8-3.3c0.2,0.9,0.4,1.8,0.6,2.6l0.4,1.6h-2.1L97.1,63.3z"/>
					
						<radialGradient id="Trazado_221_1_" cx="20.269" cy="-84.8842" r="4.1102" gradientTransform="matrix(9.0639 0 0 9.065 -109.5457 821.3766)" gradientUnits="userSpaceOnUse">
						<stop  offset="1.000000e-03" style="stop-color:#4DA2D0"/>
						<stop  offset="0.301" style="stop-color:#1E9CD7"/>
						<stop  offset="0.984" style="stop-color:#00479A"/>
					</radialGradient>
					<path id="Trazado_221" class="st3" d="M109.6,56.7h-4.8V70h3.4v-4.3h1.4c3.2,0,5.3-1.8,5.3-4.6
						C114.9,58.2,113.1,56.7,109.6,56.7z M108.2,59.5h1.2c1.5,0,2.1,0.5,2.1,1.6c0,1.2-0.7,1.8-2.1,1.8h-1.2V59.5z"/>
				</g>
				<g id="Grupo_178" transform="translate(23.104 0.213)">
					<path id="Trazado_222" class="st4" d="M92.8,58.7h4.1v11.1h2.5V58.7h4.1v-2.1H92.8V58.7z"/>
					<path id="Trazado_223" class="st4" d="M107.3,60.9c-1.4,0.1-2.7,0.5-3.9,1.2l-0.2,0.1l0.9,1.5l0.2-0.1c0.8-0.5,1.7-0.8,2.7-0.9
						c1.1,0,1.7,0.5,1.8,1.4c-4.1,0.3-5.8,1.3-5.8,3.3c0,1.5,1.3,2.7,2.8,2.7c0.1,0,0.2,0,0.2,0c1.1-0.1,2.1-0.4,3-1.1l0.1,0.9h1.9
						v-5.2c0.2-1.9-1.1-3.5-3-3.7C107.8,60.9,107.5,60.9,107.3,60.9z M108.8,65.7v1.6c-0.6,0.6-1.5,0.9-2.3,1
						c-0.4,0-1.4-0.1-1.4-0.9C105.1,66.7,105.6,65.9,108.8,65.7L108.8,65.7z"/>
					<path id="Trazado_224" class="st4" d="M118.3,67.8c-0.4,0.2-0.9,0.3-1.4,0.3c-0.7,0.1-1.2-0.4-1.3-1c0-0.1,0-0.2,0-0.3v-9.4h-5
						v1.8h2.8v7.5c-0.2,1.6,0.9,3.1,2.5,3.3c0.2,0,0.4,0,0.6,0c0.8,0,1.6-0.2,2.4-0.5l0.2-0.1l-0.6-1.7L118.3,67.8z"/>
					<path id="Trazado_225" class="st4" d="M123.2,60.9c-2.5,0.1-4.5,2.2-4.5,4.7c0.1,2.5,2.2,4.5,4.7,4.5c1.2,0,2.4-0.4,3.4-1
						L127,69l-0.8-1.5l-0.2,0.1c-0.7,0.4-1.5,0.7-2.3,0.7c-1.3,0.2-2.5-0.7-2.7-2h6.2v-0.2c0.1-0.3,0.1-0.6,0.1-1
						c0.2-2.1-1.4-4-3.5-4.1C123.5,60.9,123.4,60.9,123.2,60.9z M123.2,62.7c1-0.1,1.9,0.7,2,1.7c0,0,0,0,0,0.1H121
						C121.2,63.4,122.2,62.7,123.2,62.7L123.2,62.7z"/>
					<path id="Trazado_226" class="st4" d="M132.7,60.9c-1.1,0-2.1,0.5-2.9,1.3l-0.1-1.1h-1.8v8.7h2.2V64c0.5-0.7,1.3-1.1,2.1-1.2
						c0.9,0,1.5,0.3,1.5,1.9v5.1h2.2v-5.4C135.8,62.8,135.3,60.9,132.7,60.9z"/>
					<path id="Trazado_227" class="st4" d="M144.5,67.8l-0.2,0.1c-0.6,0.2-1.2,0.3-1.8,0.3c-1.3,0-1.8-0.5-1.8-1.9v-3.4h3.9v-1.8
						h-3.9v-2.6h-1.9l-0.2,2.6l-2.4,0.1v1.7h2.3v3.4c0,2.5,1.2,3.7,3.5,3.7c0.9,0,1.8-0.2,2.7-0.5l0.2-0.1L144.5,67.8z"/>
				</g>
			</g>
			<g id="Grupo_180" transform="translate(58.975 3.163)">
				<path id="Trazado_228" class="st4" d="M109.4,59c0-0.6,0.5-1,1.1-1s1,0.5,1,1.1c0,0.5-0.5,1-1,1C109.9,60.1,109.4,59.6,109.4,59
					L109.4,59z M111.3,59c0-0.5-0.4-0.8-0.9-0.8s-0.8,0.4-0.8,0.9c0,0.4,0.4,0.8,0.8,0.8C110.9,59.9,111.3,59.5,111.3,59L111.3,59z
					 M110,58.4h0.4c0.2,0,0.4,0.1,0.4,0.4c0,0.1-0.1,0.3-0.2,0.3l0.3,0.5h-0.2l-0.2-0.4h-0.3v0.4H110V58.4z M110.4,59
					c0.2,0,0.3-0.1,0.3-0.2c0-0.1-0.1-0.2-0.3-0.2h-0.2V59H110.4z"/>
			</g>
		</g>
		<g id="Grupo_184" transform="translate(14.426)">
			<g id="Grupo_182">
				
					<radialGradient id="Trazado_229_1_" cx="-4.4537" cy="-102.4074" r="1.0996" gradientTransform="matrix(28.6075 0 0 28.6158 239.2081 2991.3372)" gradientUnits="userSpaceOnUse">
					<stop  offset="1.000000e-03" style="stop-color:#4DA2D0"/>
					<stop  offset="0.301" style="stop-color:#1E9CD7"/>
					<stop  offset="0.984" style="stop-color:#00479A"/>
				</radialGradient>
				<path id="Trazado_229" class="st5" d="M134.9,60.9c0-12.7-10.3-23.1-23.1-23.1c-12.7,0-23.1,10.3-23.1,23.1
					c0,7.5,3.6,14.5,9.7,18.8c0.7-2.4,1.8-4.8,3.2-6.9c2.3-3.4,6.1-5.5,10.2-5.6c4.3,0.2,8.2,2.4,10.5,6.1c1.2,2,2.2,4.2,2.8,6.5
					C131.2,75.4,134.9,68.4,134.9,60.9z"/>
				<path id="Trazado_230" class="st6" d="M111.8,67.1c-4.1,0.1-7.9,2.2-10.2,5.6c-1.4,2.1-2.5,4.5-3.2,6.9c8,5.7,18.7,5.7,26.7,0
					c-0.6-2.3-1.5-4.5-2.8-6.5C120.1,69.6,116.1,67.3,111.8,67.1z"/>
			</g>
			
				<linearGradient id="Trazado_231_1_" gradientUnits="userSpaceOnUse" x1="-4.3758" y1="-100.4941" x2="-4.3831" y2="-99.1869" gradientTransform="matrix(20.4442 0 0 20.6551 201.4121 2107.7222)">
				<stop  offset="0" style="stop-color:#FFFFFF;stop-opacity:0"/>
				<stop  offset="1" style="stop-color:#FFFFFF"/>
			</linearGradient>
			<path id="Trazado_231" class="st7" d="M126.8,50.4c0-2.8-0.5-5.7-1.6-8.3c-8-5.7-18.7-5.7-26.7,0c-1.1,2.6-1.6,5.5-1.6,8.3
				c0,8.3,4.5,15.4,10.6,17.7c2.8-1.2,5.9-1.2,8.7,0C122.3,65.7,126.8,58.7,126.8,50.4z"/>
			<g id="Grupo_183" transform="translate(5.531)">
				
					<linearGradient id="Trazado_232_1_" gradientUnits="userSpaceOnUse" x1="-15.4411" y1="-100.2579" x2="-15.4485" y2="-98.8483" gradientTransform="matrix(20.445 0 0 19.9739 422.0423 2032.105)">
					<stop  offset="0" style="stop-color:#FFFFFF;stop-opacity:0"/>
					<stop  offset="1" style="stop-color:#FFFFFF"/>
				</linearGradient>
				<path id="Trazado_232" class="st8" d="M101.9,67c2.8-1.2,5.9-1.2,8.7,0c6.1-2.3,10.6-10.6,10.6-18.9c0-1.8-0.2-3.6-0.6-5.3
					c-8.4-6.7-20.3-6.7-28.7,0c-0.4,1.7-0.6,3.5-0.6,5.3C91.3,56.4,95.8,64.7,101.9,67z"/>
			</g>
			<ellipse id="Elipse_25" class="st6" cx="111.8" cy="60.9" rx="8.3" ry="8.3"/>
		</g>
	</g>
	<g id="Grupo_187" transform="translate(9.974 53.554)">
		<g id="Grupo_186">
			<path id="Trazado_233" class="st9" d="M89.2,66v0.3h-2.5v-3.5h2.4v0.3h-2v1.2h1.8v0.3h-1.8V66H89.2z"/>
			<path id="Trazado_234" class="st9" d="M92.7,64.8v1.5h-0.4v-1.5c0.1-0.4-0.2-0.8-0.6-0.8c-0.1,0-0.1,0-0.2,0
				c-0.5,0-0.9,0.3-0.9,0.8c0,0.1,0,0.1,0,0.2v1.4h-0.4v-2.6h0.3v0.5c0.2-0.3,0.6-0.5,1-0.5C92.1,63.8,92.5,64.2,92.7,64.8
				C92.7,64.7,92.7,64.8,92.7,64.8z"/>
			<path id="Trazado_235" class="st9" d="M97.9,62.6v3.7h-0.3v-0.5c-0.2,0.4-0.6,0.6-1,0.5c-0.7,0-1.3-0.6-1.3-1.4
				c0-0.7,0.6-1.3,1.3-1.3c0.4,0,0.8,0.2,1,0.5v-1.6L97.9,62.6z M97.6,65c0-0.5-0.5-1-1-0.9c-0.5,0-1,0.5-0.9,1c0,0.5,0.5,0.9,1,0.9
				C97.1,66.1,97.6,65.6,97.6,65C97.6,65.1,97.6,65.1,97.6,65L97.6,65z"/>
			<path id="Trazado_236" class="st9" d="M98.9,65c0-0.7,0.6-1.3,1.3-1.3c0.7,0,1.3,0.6,1.3,1.3s-0.6,1.3-1.3,1.3
				C99.6,66.4,99,65.8,98.9,65C98.9,65.1,98.9,65.1,98.9,65z M101.3,65c0-0.5-0.5-1-1-0.9c-0.5,0-1,0.5-0.9,1c0,0.5,0.5,0.9,1,0.9
				C100.8,66.1,101.2,65.6,101.3,65C101.3,65.1,101.3,65.1,101.3,65z"/>
			<path id="Trazado_237" class="st9" d="M105.1,64.8v1.5h-0.4v-1.5c0.1-0.4-0.2-0.8-0.6-0.8c-0.1,0-0.1,0-0.2,0
				c-0.5,0-0.9,0.3-0.9,0.8c0,0.1,0,0.1,0,0.2v1.4h-0.4v-2.6h0.3v0.5c0.2-0.3,0.6-0.5,1-0.5C104.5,63.8,104.9,64.2,105.1,64.8
				C105.1,64.7,105.1,64.8,105.1,64.8z"/>
			<path id="Trazado_238" class="st9" d="M108.7,62.6v3.7h-0.3v-0.5c-0.2,0.4-0.6,0.6-1,0.5c-0.7,0-1.3-0.6-1.3-1.4
				c0-0.7,0.6-1.3,1.3-1.3c0.4,0,0.8,0.2,1,0.5v-1.6L108.7,62.6z M108.4,65c0-0.5-0.5-1-1-0.9c-0.5,0-1,0.5-0.9,1
				c0,0.5,0.5,0.9,1,0.9C107.9,66.1,108.4,65.6,108.4,65C108.4,65.1,108.4,65.1,108.4,65L108.4,65z"/>
			<path id="Trazado_239" class="st9" d="M112.3,65.1h-2.2c0,0.5,0.5,0.9,1,0.9l0,0c0.3,0,0.6-0.1,0.8-0.3l0.2,0.2
				c-0.5,0.6-1.4,0.6-2,0c-0.3-0.2-0.4-0.6-0.4-0.9c0-0.7,0.5-1.3,1.2-1.3h0.1c0.7,0,1.3,0.5,1.3,1.2V65
				C112.3,65.1,112.3,65.1,112.3,65.1z M110.1,64.9h1.9c0-0.5-0.5-0.9-1-0.9S110.1,64.4,110.1,64.9z"/>
			<path id="Trazado_240" class="st9" d="M116.3,66.2c-0.2,0.1-0.4,0.2-0.6,0.2c-0.4,0-0.7-0.2-0.8-0.6c0,0,0-0.1,0-0.2V64h-0.5
				v-0.3h0.5v-0.6h0.4v0.6h0.8V64h-0.8v1.6c0,0.2,0.1,0.4,0.4,0.5h0.1c0.1,0,0.3,0,0.4-0.1L116.3,66.2z"/>
			<path id="Trazado_241" class="st9" d="M119.6,63.7v2.6h-0.3v-0.5c-0.2,0.3-0.6,0.5-0.9,0.5c-0.6,0.1-1.1-0.4-1.1-0.9
				c0-0.1,0-0.1,0-0.2v-1.5h0.4v1.5c-0.1,0.4,0.2,0.8,0.6,0.8c0.1,0,0.1,0,0.2,0c0.5,0,0.9-0.3,0.9-0.8v-0.1v-1.4L119.6,63.7z"/>
			<path id="Trazado_242" class="st9" d="M124.9,62.6v3.7h-0.3v-0.5c-0.2,0.4-0.6,0.6-1,0.5c-0.7,0-1.3-0.6-1.3-1.4
				c0-0.7,0.6-1.3,1.3-1.3c0.4,0,0.8,0.2,1,0.5v-1.6L124.9,62.6z M124.6,65c0-0.5-0.5-1-1-0.9c-0.5,0-1,0.5-0.9,1
				c0,0.5,0.5,0.9,1,0.9C124.1,66.1,124.5,65.6,124.6,65C124.6,65.1,124.6,65.1,124.6,65L124.6,65z"/>
			<path id="Trazado_243" class="st9" d="M128.5,65.1h-2.2c0,0.5,0.5,0.9,1,0.9l0,0c0.3,0,0.6-0.1,0.8-0.3l0.2,0.2
				c-0.5,0.6-1.4,0.6-2,0c-0.3-0.2-0.4-0.6-0.4-0.9c0-0.7,0.5-1.3,1.2-1.3h0.1c0.7,0,1.3,0.5,1.3,1.2V65
				C128.5,65.1,128.5,65.1,128.5,65.1z M126.3,64.9h1.9c0-0.5-0.5-0.9-1-0.9S126.3,64.4,126.3,64.9z"/>
			<path id="Trazado_244" class="st9" d="M129.1,66l0.2-0.3c0.3,0.2,0.6,0.3,0.9,0.3c0.5,0,0.7-0.2,0.7-0.4c0-0.7-1.7-0.1-1.7-1.2
				c0-0.4,0.4-0.7,1-0.7c0.3,0,0.6,0.1,0.9,0.2l-0.2,0.3c-0.2-0.2-0.5-0.2-0.8-0.2c-0.5,0-0.7,0.2-0.7,0.4c0,0.7,1.7,0.2,1.7,1.2
				c0,0.5-0.4,0.7-1.1,0.7C129.8,66.4,129.5,66.3,129.1,66z"/>
			<path id="Trazado_245" class="st9" d="M133.6,66.2c-0.2,0.1-0.4,0.2-0.6,0.2c-0.4,0-0.7-0.2-0.8-0.6c0,0,0-0.1,0-0.2V64h-0.5
				v-0.3h0.5v-0.6h0.4v0.6h0.8V64h-0.8v1.6c0,0.2,0.1,0.4,0.4,0.5h0.1c0.1,0,0.3,0,0.4-0.1L133.6,66.2z"/>
			<path id="Trazado_246" class="st9" d="M136.5,64.7v1.6h-0.3v-0.4c-0.2,0.3-0.5,0.5-0.9,0.4c-0.6,0-1-0.3-1-0.8
				c0-0.4,0.3-0.7,1-0.7h0.8v-0.2c0-0.4-0.3-0.7-0.7-0.7c-0.3,0-0.6,0.1-0.9,0.3l-0.2-0.3c0.3-0.2,0.7-0.4,1.1-0.4
				c0.5-0.1,1,0.3,1.1,0.8C136.5,64.6,136.6,64.6,136.5,64.7z M136.2,65.6v-0.4h-0.8c-0.5,0-0.7,0.2-0.7,0.5s0.2,0.5,0.7,0.5
				C135.7,66.1,136.1,65.9,136.2,65.6L136.2,65.6z"/>
			<path id="Trazado_247" class="st9" d="M137.5,65c0-0.7,0.5-1.3,1.2-1.3h0.1c0.4,0,0.8,0.2,1,0.5l-0.3,0.2
				c-0.2-0.3-0.5-0.4-0.8-0.4c-0.6,0-1,0.5-1,1s0.5,1,1,1c0.3,0,0.6-0.1,0.8-0.4l0.3,0.2c-0.2,0.3-0.6,0.5-1,0.5
				C138.1,66.3,137.5,65.8,137.5,65C137.5,65.1,137.5,65.1,137.5,65z"/>
			<path id="Trazado_248" class="st9" d="M142.9,64.7v1.6h-0.3v-0.4c-0.2,0.3-0.5,0.5-0.9,0.4c-0.6,0-1-0.3-1-0.8
				c0-0.4,0.3-0.7,1-0.7h0.8v-0.2c0-0.4-0.3-0.7-0.7-0.7c-0.3,0-0.6,0.1-0.9,0.3l-0.2-0.3c0.3-0.2,0.7-0.4,1.1-0.4
				c0.5-0.1,1,0.3,1.1,0.8C142.9,64.6,142.9,64.6,142.9,64.7z M142.5,65.6v-0.4h-0.8c-0.5,0-0.7,0.2-0.7,0.5s0.2,0.5,0.7,0.5
				C142.1,66.1,142.4,65.9,142.5,65.6L142.5,65.6z"/>
			<path id="Trazado_249" class="st9" d="M143.8,66l0.2-0.3c0.3,0.2,0.6,0.3,0.9,0.3c0.5,0,0.7-0.2,0.7-0.4c0-0.7-1.7-0.1-1.7-1.2
				c0-0.4,0.4-0.7,1-0.7c0.3,0,0.6,0.1,0.9,0.2l-0.2,0.3c-0.2-0.2-0.5-0.2-0.8-0.2c-0.5,0-0.7,0.2-0.7,0.4c0,0.7,1.7,0.2,1.7,1.2
				c0,0.5-0.4,0.7-1.1,0.7C144.5,66.4,144.1,66.3,143.8,66z"/>
		</g>
	</g>
</g>
<g id="Grupo_389" transform="translate(89.772 33.714)">
	<path id="Polígono_4" class="st10" d="M122.4,63.3L94.1,82.7V44L122.4,63.3z"/>
	<rect id="Rectángulo_232" x="60.3" y="54.3" class="st10" width="37.5" height="17.1"/>
</g>
<g>
	<g>
		<path class="st11" d="M128.8,76.2c-2.9,1.3-5.9,2.1-9.1,2.5c3.3-2,5.8-5,6.9-8.7c-3.1,1.8-6.4,3.1-10,3.8c-2.9-3.1-7-5-11.5-5
			c-8.7,0-15.8,7.1-15.8,15.8c0,1.3,0.1,2.5,0.4,3.6C76.6,87.5,65,81.2,57.2,71.7c-1.4,2.4-2.2,5.1-2.2,8c0,5.5,2.8,10.3,7,13.1
			c-2.5,0-5-0.8-7.1-1.9c0,0,0,0.1,0,0.2c0,7.7,5.5,14,12.6,15.5c-1.3,0.4-2.7,0.5-4.1,0.5c-1,0-2-0.1-3-0.3c2,6.2,7.8,10.8,14.7,11
			c-5.4,4.2-12.2,6.7-19.6,6.7c-1.3,0-2.5-0.1-3.8-0.2c7,4.5,15.3,7.1,24.2,7.1c29,0,44.9-24.1,44.9-44.9c0-0.7,0-1.4-0.1-2
			C124.1,82.2,126.7,79.4,128.8,76.2z"/>
	</g>
</g>
</svg>
