<?xml version="1.0" encoding="utf-8"?>
<!-- Generator: Adobe Illustrator 24.1.2, SVG Export Plug-In . SVG Version: 6.00 Build 0)  -->
<svg version="1.1" id="Capa_1" xmlns="http://www.w3.org/2000/svg" xmlns:xlink="http://www.w3.org/1999/xlink" x="0px" y="0px"
	 viewBox="0 0 250 250" style="enable-background:new 0 0 250 250;" xml:space="preserve">
<style type="text/css">
	.st0{fill:#3B5A98;}
	.st1{fill:#2E446F;}
</style>
<g>
	<circle id="Elipse_49" class="st0" cx="125" cy="125" r="100.1"/>
	<g id="_747374" transform="translate(396 500)">
		<g id="Grupo_460" transform="translate(0 0)">
			<path id="Trazado_323" class="st1" d="M-227.4-425.1h-81.3c-6.9,0-12.4,5.6-12.4,12.4v81.3c0,6.9,5.6,12.4,12.4,12.4h81.3
				c6.9,0,12.4-5.6,12.4-12.4v-81.3C-214.9-419.5-220.5-425-227.4-425.1z M-223.2-331.4c0,2.3-1.9,4.1-4.1,4.1l0,0H-251V-361h12.8
				l2.1-12.9H-251v-8.9c-0.1-3.4,2.6-6.2,6-6.2c0.1,0,0.1,0,0.2,0h8.5v-12.9h-8.5c-10.5,0-19.1,8.5-19.1,19.1c0,0,0,0,0,0v8.9h-12.4
				v12.9h12.4v33.8h-44.8c-2.3,0-4.1-1.9-4.1-4.1l0,0v-81.3c0-2.3,1.9-4.1,4.1-4.1h81.3c2.3,0,4.1,1.9,4.1,4.1l0,0V-331.4z"/>
		</g>
	</g>
</g>
</svg>
