<svg xmlns="http://www.w3.org/2000/svg" xmlns:xlink="http://www.w3.org/1999/xlink" width="314" height="296" viewBox="0 0 314 296">
  <defs>
    <radialGradient id="radial-gradient" cx="0.5" cy="0.551" r="0.751" gradientTransform="translate(0.046) scale(0.908 1)" gradientUnits="objectBoundingBox">
      <stop offset="0.001" stop-color="#4da2d0"/>
      <stop offset="0.301" stop-color="#1e9cd7"/>
      <stop offset="0.984" stop-color="#00479a"/>
    </radialGradient>
    <linearGradient id="linear-gradient" x1="0.501" y1="-0.192" x2="0.496" y2="0.701" gradientUnits="objectBoundingBox">
      <stop offset="0" stop-color="#fff" stop-opacity="0"/>
      <stop offset="1" stop-color="#fff"/>
    </linearGradient>
    <linearGradient id="linear-gradient-2" x1="0.501" y1="-0.282" x2="0.496" y2="0.681" xlink:href="#linear-gradient"/>
    <linearGradient id="linear-gradient-3" x1="-0.638" y1="0.058" x2="1.328" y2="0.956" gradientTransform="matrix(1, 0, 0, 1, 0, 0)" xlink:href="#radial-gradient"/>
    <linearGradient id="linear-gradient-4" x1="-1.812" y1="-0.313" x2="0.558" y2="0.585" gradientTransform="matrix(1, 0, 0, 1, 0, 0)" xlink:href="#radial-gradient"/>
    <linearGradient id="linear-gradient-5" x1="0.046" y1="0.333" x2="2.465" y2="1.23" gradientTransform="matrix(1, 0, 0, 1, 0, 0)" xlink:href="#radial-gradient"/>
    <clipPath id="clip-ZAPTalent-Logotipo-Vertical-Original">
      <rect width="314" height="296"/>
    </clipPath>
  </defs>
  <g id="ZAPTalent-Logotipo-Vertical-Original" clip-path="url(#clip-ZAPTalent-Logotipo-Vertical-Original)">
    <g id="Grupo_331" data-name="Grupo 331" transform="translate(-4149 1488)">
      <g id="Grupo_323" data-name="Grupo 323" transform="translate(4232.266 -1477.424)">
        <g id="Grupo_322" data-name="Grupo 322" transform="translate(0 0)">
          <g id="Grupo_321" data-name="Grupo 321">
            <g id="Grupo_319" data-name="Grupo 319">
              <path id="Trazado_332" data-name="Trazado 332" d="M441.088,527.267A77.413,77.413,0,1,0,318.875,590.38c2.468-7.892,6.9-18.053,10.725-23.207,8.352-11.256,20.579-18.8,34.2-18.8,14.242,0,26.957,8.248,35.315,20.356,3.62,5.245,7.2,14.277,9.238,21.74A77.3,77.3,0,0,0,441.088,527.267Z" transform="translate(-286.263 -449.855)" fill="url(#radial-gradient)"/>
              <path id="Trazado_333" data-name="Trazado 333" d="M352.585,514.481c-13.623,0-25.85,7.549-34.2,18.8-3.825,5.154-8.258,15.315-10.725,23.207a77.327,77.327,0,0,0,89.48.085c-2.041-7.463-5.617-16.5-9.238-21.74C379.542,522.729,366.827,514.481,352.585,514.481Z" transform="translate(-275.045 -415.967)" fill="#fff"/>
            </g>
            <path id="Trazado_334" data-name="Trazado 334" d="M404.559,492.043a73.713,73.713,0,0,0-5.352-27.858,77.446,77.446,0,0,0-89.762,0,73.709,73.709,0,0,0-5.352,27.858c0,27.966,15.017,51.6,35.644,59.313a37.109,37.109,0,0,1,29.176,0C389.541,543.645,404.559,520.009,404.559,492.043Z" transform="translate(-276.914 -449.855)" opacity="0.2" fill="url(#linear-gradient)"/>
            <g id="Grupo_320" data-name="Grupo 320" transform="translate(27.179)">
              <path id="Trazado_335" data-name="Trazado 335" d="M339.737,548.008a37.108,37.108,0,0,1,29.176,0c20.628-7.712,35.646-35.625,35.646-63.591a75.437,75.437,0,0,0-2.1-17.757,77.337,77.337,0,0,0-96.267,0,75.437,75.437,0,0,0-2.1,17.757C304.093,512.383,319.11,540.3,339.737,548.008Z" transform="translate(-304.093 -449.855)" opacity="0.2" fill="url(#linear-gradient-2)"/>
            </g>
            <circle id="Elipse_32" data-name="Elipse 32" cx="27.978" cy="27.978" r="27.978" transform="translate(49.435 49.435)" fill="#fff"/>
          </g>
        </g>
      </g>
      <g id="Grupo_330" data-name="Grupo 330" transform="translate(4161 -1279.789)">
        <g id="Grupo_324" data-name="Grupo 324" transform="translate(49.205 64.813)">
          <path id="Trazado_336" data-name="Trazado 336" d="M280.081,633.136v1.072h-8.289V622.485h8.038v1.072h-6.8v4.169h6.062v1.056H273.03v4.354Z" transform="translate(-271.791 -621.782)" fill="#616161"/>
          <path id="Trazado_337" data-name="Trazado 337" d="M287.738,628.122v5.107h-1.189v-4.991c0-1.858-.971-2.814-2.645-2.814a2.889,2.889,0,0,0-3.082,3.183v4.622h-1.189v-8.808h1.139v1.623a3.7,3.7,0,0,1,3.349-1.692C286.264,624.352,287.738,625.593,287.738,628.122Z" transform="translate(-267.679 -620.803)" fill="#616161"/>
          <path id="Trazado_338" data-name="Trazado 338" d="M299.61,622.024v12.425h-1.139v-1.741a3.815,3.815,0,0,1-3.4,1.825,4.481,4.481,0,0,1,0-8.96,3.854,3.854,0,0,1,3.349,1.742v-5.291Zm-1.172,8.021a3.278,3.278,0,1,0-3.267,3.433A3.221,3.221,0,0,0,298.437,630.045Z" transform="translate(-261.885 -622.024)" fill="#616161"/>
          <path id="Trazado_339" data-name="Trazado 339" d="M298.79,628.825a4.479,4.479,0,1,1,4.488,4.488A4.333,4.333,0,0,1,298.79,628.825Zm7.753,0a3.277,3.277,0,1,0-3.265,3.433A3.212,3.212,0,0,0,306.543,628.825Z" transform="translate(-257.634 -620.803)" fill="#616161"/>
          <path id="Trazado_340" data-name="Trazado 340" d="M315.023,628.122v5.107h-1.189v-4.991c0-1.858-.971-2.814-2.646-2.814a2.889,2.889,0,0,0-3.081,3.183v4.622h-1.189v-8.808h1.139v1.623a3.7,3.7,0,0,1,3.349-1.692C313.551,624.352,315.023,625.593,315.023,628.122Z" transform="translate(-253.372 -620.803)" fill="#616161"/>
          <path id="Trazado_341" data-name="Trazado 341" d="M323.38,622.024v12.425h-1.139v-1.741a3.818,3.818,0,0,1-3.4,1.825,4.481,4.481,0,0,1,0-8.96,3.85,3.85,0,0,1,3.349,1.742v-5.291Zm-1.174,8.021a3.277,3.277,0,1,0-3.265,3.433A3.221,3.221,0,0,0,322.206,630.045Z" transform="translate(-249.42 -622.024)" fill="#616161"/>
          <path id="Trazado_342" data-name="Trazado 342" d="M331.117,629.193h-7.369a3.261,3.261,0,0,0,3.466,3.064,3.471,3.471,0,0,0,2.7-1.156l.669.771a4.658,4.658,0,0,1-8.021-3.049,4.244,4.244,0,0,1,4.3-4.473,4.2,4.2,0,0,1,4.27,4.473C331.134,628.925,331.117,629.059,331.117,629.193Zm-7.369-.887h6.247a3.13,3.13,0,0,0-6.247,0Z" transform="translate(-245.17 -620.803)" fill="#616161"/>
          <path id="Trazado_343" data-name="Trazado 343" d="M339.084,633.333a2.838,2.838,0,0,1-1.86.619,2.333,2.333,0,0,1-2.578-2.562v-5.326H333.07v-1h1.576v-1.927h1.187v1.927h2.68v1h-2.68v5.259a1.412,1.412,0,0,0,1.524,1.608,1.963,1.963,0,0,0,1.306-.453Z" transform="translate(-239.658 -621.443)" fill="#616161"/>
          <path id="Trazado_344" data-name="Trazado 344" d="M347.058,624.4V633.2h-1.139V631.6a3.506,3.506,0,0,1-3.166,1.69,3.411,3.411,0,0,1-3.718-3.783V624.4h1.189v4.989c0,1.877.971,2.831,2.646,2.831a2.865,2.865,0,0,0,3-3.2V624.4Z" transform="translate(-236.53 -620.78)" fill="#616161"/>
          <path id="Trazado_345" data-name="Trazado 345" d="M359.023,622.024v12.425h-1.139v-1.741a3.815,3.815,0,0,1-3.4,1.825,4.481,4.481,0,0,1,0-8.96,3.85,3.85,0,0,1,3.349,1.742v-5.291Zm-1.172,8.021a3.278,3.278,0,1,0-3.265,3.433A3.221,3.221,0,0,0,357.851,630.045Z" transform="translate(-230.73 -622.024)" fill="#616161"/>
          <path id="Trazado_346" data-name="Trazado 346" d="M366.759,629.193h-7.369a3.261,3.261,0,0,0,3.468,3.064,3.466,3.466,0,0,0,2.7-1.156l.671.771a4.658,4.658,0,0,1-8.021-3.049,4.243,4.243,0,0,1,4.3-4.473,4.2,4.2,0,0,1,4.271,4.473C366.778,628.925,366.759,629.059,366.759,629.193Zm-7.369-.887h6.248a3.131,3.131,0,0,0-6.248,0Z" transform="translate(-226.479 -620.803)" fill="#616161"/>
          <path id="Trazado_347" data-name="Trazado 347" d="M365.276,632.224l.535-.937a5.331,5.331,0,0,0,3.133.988c1.674,0,2.361-.57,2.361-1.441,0-2.294-5.712-.485-5.712-3.968,0-1.442,1.241-2.514,3.485-2.514a5.97,5.97,0,0,1,3.116.822l-.52.954a4.525,4.525,0,0,0-2.6-.753c-1.591,0-2.294.619-2.294,1.457,0,2.378,5.71.585,5.71,3.969,0,1.524-1.34,2.511-3.634,2.511A5.887,5.887,0,0,1,365.276,632.224Z" transform="translate(-222.771 -620.803)" fill="#616161"/>
          <path id="Trazado_348" data-name="Trazado 348" d="M377.22,633.333a2.836,2.836,0,0,1-1.858.619,2.334,2.334,0,0,1-2.581-2.562v-5.326h-1.573v-1h1.573v-1.927h1.191v1.927h2.678v1h-2.678v5.259a1.411,1.411,0,0,0,1.524,1.608,1.965,1.965,0,0,0,1.3-.453Z" transform="translate(-219.66 -621.443)" fill="#616161"/>
          <path id="Trazado_349" data-name="Trazado 349" d="M384.129,627.77v5.459H382.99v-1.373a3.3,3.3,0,0,1-3.03,1.457c-1.994,0-3.216-1.038-3.216-2.562,0-1.355.87-2.494,3.4-2.494h2.8v-.537c0-1.508-.855-2.328-2.5-2.328a4.48,4.48,0,0,0-2.93,1.038l-.535-.889a5.59,5.59,0,0,1,3.582-1.189C382.839,624.352,384.129,625.492,384.129,627.77Zm-1.187,2.814v-1.441h-2.764c-1.709,0-2.261.669-2.261,1.575,0,1.021.82,1.657,2.227,1.657A2.819,2.819,0,0,0,382.941,630.584Z" transform="translate(-216.758 -620.803)" fill="#616161"/>
          <path id="Trazado_350" data-name="Trazado 350" d="M383.807,628.825a4.336,4.336,0,0,1,4.538-4.473,3.846,3.846,0,0,1,3.45,1.742l-.887.6a2.994,2.994,0,0,0-2.562-1.306,3.434,3.434,0,0,0,0,6.866,2.982,2.982,0,0,0,2.563-1.29l.887.6a3.879,3.879,0,0,1-3.45,1.742A4.349,4.349,0,0,1,383.807,628.825Z" transform="translate(-213.054 -620.803)" fill="#616161"/>
          <path id="Trazado_351" data-name="Trazado 351" d="M398.134,627.77v5.459h-1.139v-1.373a3.3,3.3,0,0,1-3.032,1.457c-1.992,0-3.215-1.038-3.215-2.562,0-1.355.87-2.494,3.4-2.494h2.8v-.537c0-1.508-.855-2.328-2.5-2.328a4.48,4.48,0,0,0-2.93,1.038l-.537-.889a5.594,5.594,0,0,1,3.584-1.189C396.844,624.352,398.134,625.492,398.134,627.77Zm-1.187,2.814v-1.441h-2.764c-1.709,0-2.261.669-2.261,1.575,0,1.021.82,1.657,2.227,1.657A2.82,2.82,0,0,0,396.946,630.584Z" transform="translate(-209.414 -620.803)" fill="#616161"/>
          <path id="Trazado_352" data-name="Trazado 352" d="M397.569,632.224l.537-.937a5.324,5.324,0,0,0,3.133.988c1.674,0,2.36-.57,2.36-1.441,0-2.294-5.71-.485-5.71-3.968,0-1.442,1.239-2.514,3.485-2.514a5.954,5.954,0,0,1,3.113.822l-.518.954a4.52,4.52,0,0,0-2.594-.753c-1.591,0-2.3.619-2.3,1.457,0,2.378,5.712.585,5.712,3.969,0,1.524-1.34,2.511-3.636,2.511A5.894,5.894,0,0,1,397.569,632.224Z" transform="translate(-205.837 -620.803)" fill="#616161"/>
        </g>
        <g id="Grupo_329" data-name="Grupo 329" transform="translate(0 0)">
          <g id="Grupo_327" data-name="Grupo 327" transform="translate(113.917 0.293)">
            <g id="Grupo_325" data-name="Grupo 325">
              <path id="Trazado_353" data-name="Trazado 353" d="M314.243,586.887H328.1v37.38h8.225v-37.38h13.857V579.7H314.243Z" transform="translate(-314.243 -579.698)" fill="gray"/>
              <path id="Trazado_354" data-name="Trazado 354" d="M351.241,589.223c-5.573,0-10.517,2.54-12.968,4.053l-.675.416,2.965,5.18.715-.419c3.5-2.052,6.351-3.009,8.957-3.009,3.57,0,5.608,1.55,6.068,4.608-13.878,1.149-19.559,4.384-19.559,11.081,0,5.193,4.194,8.821,10.2,8.821,4.084,0,7.828-2.084,10.142-3.723l.38,3.041h6.213v-17.52C363.678,593.79,359.145,589.223,351.241,589.223Zm5.143,16.088v5.212c-2.844,2.25-5.341,3.3-7.834,3.3-1.4,0-4.643-.3-4.643-3.114C343.907,608.662,345.351,606.218,356.384,605.311Z" transform="translate(-302.444 -574.704)" fill="gray"/>
              <path id="Trazado_355" data-name="Trazado 355" d="M379.45,616.64a11.594,11.594,0,0,1-4.636,1.094c-2.922,0-4.4-1.541-4.4-4.579v-31.69H353.589v6.154h9.527v25.2c0,7.122,3.784,11.207,10.381,11.207a19.047,19.047,0,0,0,7.943-1.671l.716-.284-1.878-5.791Z" transform="translate(-293.611 -578.772)" fill="gray"/>
              <path id="Trazado_356" data-name="Trazado 356" d="M386.388,589.223c-9.771,0-15.042,7.893-15.042,15.32,0,9.218,6.381,15.411,15.879,15.411a20.466,20.466,0,0,0,11.247-3.427l.634-.418-2.758-4.983-.729.441a14.284,14.284,0,0,1-7.68,2.322c-5.09,0-8.332-2.468-9.184-6.867H399.6l.108-.694a21.241,21.241,0,0,0,.27-3.2C399.976,594.682,394.642,589.223,386.388,589.223Zm.155,6.02c4.53,0,6.171,2.909,6.633,6H378.956A7.646,7.646,0,0,1,386.543,595.243Z" transform="translate(-284.3 -574.704)" fill="gray"/>
              <path id="Trazado_357" data-name="Trazado 357" d="M407.891,589.223c-4.291,0-7.434,2.148-9.777,4.341l-.373-3.66h-6.183v29.368h7.294v-19.6c2.575-2.61,4.419-3.933,7.088-3.933,2.951,0,4.916,1.064,4.916,6.258v17.28h7.294V601.252C418.15,595.764,416.371,589.223,407.891,589.223Z" transform="translate(-273.702 -574.704)" fill="gray"/>
              <path id="Trazado_358" data-name="Trazado 358" d="M437.691,615.1l-.834.306a16.925,16.925,0,0,1-6.035,1.134c-4.29,0-5.884-1.7-5.884-6.256v-11.44H438.02v-6.154H424.938V583.9h-6.264l-.744,8.817-7.927.3v5.829h7.64v11.425c0,8.276,3.994,12.471,11.87,12.471a26.569,26.569,0,0,0,9.043-1.66l.729-.251Z" transform="translate(-264.029 -577.493)" fill="gray"/>
            </g>
            <g id="Grupo_326" data-name="Grupo 326" transform="translate(176.271 14.495)">
              <path id="Trazado_359" data-name="Trazado 359" d="M429.878,592.841a3.407,3.407,0,1,1,3.4,3.607A3.439,3.439,0,0,1,429.878,592.841Zm6.219,0a2.828,2.828,0,1,0-2.816,3.065A2.884,2.884,0,0,0,436.1,592.841Zm-4.082-1.994H433.3c.729,0,1.433.276,1.433,1.2a1.1,1.1,0,0,1-.736,1.04l.912,1.616h-.694l-.721-1.413H432.6V594.7h-.588Zm1.128,1.924c.572,0,.951-.2.951-.687,0-.422-.219-.71-.887-.71h-.6v1.4Z" transform="translate(-429.878 -589.207)" fill="gray"/>
            </g>
          </g>
          <g id="Grupo_328" data-name="Grupo 328">
            <path id="Trazado_360" data-name="Trazado 360" d="M275.383,579.531,261.51,624.078H273.2l2.62-10.2h11.635l2.6,10.2h12.049l-13.875-44.547Zm2.8,25.135.752-2.93c.77-3.032,1.665-6.723,2.668-11,.7,2.918,1.469,5.934,2.168,8.677l1.338,5.251Z" transform="translate(-227.977 -579.493)" fill="url(#linear-gradient-3)"/>
            <path id="Trazado_361" data-name="Trazado 361" d="M306.021,579.531H289.979v44.547h11.352V609.524h4.69c10.873,0,17.628-5.89,17.628-15.373C323.649,584.586,317.553,579.531,306.021,579.531Zm-.564,20.645h-4.126v-11.3h4.126c4.992,0,7.029,1.527,7.029,5.271C312.486,598.261,310.253,600.176,305.457,600.176Z" transform="translate(-213.049 -579.493)" fill="url(#linear-gradient-4)"/>
            <path id="Trazado_362" data-name="Trazado 362" d="M272.165,588.116l.137-.2v-8.415H240.283l-.356,10.819h17.639l-17.922,25.907-.133.194V624.1H272.28l.214-10.762H254.621Z" transform="translate(-239.512 -579.506)" fill="url(#linear-gradient-5)"/>
          </g>
        </g>
      </g>
    </g>
  </g>
</svg>
