<svg xmlns="http://www.w3.org/2000/svg" xmlns:xlink="http://www.w3.org/1999/xlink" width="88" height="88" viewBox="0 0 88 88">
  <defs>
    <clipPath id="clip-ZAPTalent-Icono-5">
      <rect width="88" height="88"/>
    </clipPath>
  </defs>
  <g id="ZAPTalent-Icono-5" clip-path="url(#clip-ZAPTalent-Icono-5)">
    <g id="_1275480" data-name="1275480" transform="translate(1 1)">
      <path id="Trazado_98" data-name="Trazado 98" d="M85.853,85.853V82.991H64.232a10.014,10.014,0,0,0,2.6-4.293H81.56V81.56h2.862V72.975H81.56v2.862h-5.6l2.633-32.91H81.56A1.43,1.43,0,0,0,82.991,41.5V35.772a1.431,1.431,0,0,0-1.431-1.431h-.189l1.379-2.067a1.431,1.431,0,0,0,0-1.588l-2.862-4.293a1.443,1.443,0,0,0-.551-.486l-5.608-2.8-4.538-3.4L71.3,16.534a1.43,1.43,0,0,0,.09-1.431L68.532,9.38a1.432,1.432,0,0,0-.748-.69L60.9,5.939,55.385.42A1.43,1.43,0,0,0,53.734.151L48.312,2.862H35.772a1.431,1.431,0,0,0-.639.151L29.409,5.875a1.431,1.431,0,0,0-.614.59l-3.03,5.509-4.124-.515a1.43,1.43,0,0,0-1.4.683L15.944,19.3a1.392,1.392,0,0,0-.131.286L14.8,22.617l-4.436-1.109a1.431,1.431,0,0,0-1.752,1.1L7.22,29.574,4.84,34.341H4.293a1.431,1.431,0,0,0-1.431,1.431V41.5a1.431,1.431,0,0,0,1.431,1.431H7.265L9.9,75.837h-5.6V72.975H1.431V81.56H4.293V78.7H19.031a10.007,10.007,0,0,0,2.6,4.293H0v2.862ZM35.615,82.991a10.014,10.014,0,0,0,2.6-4.293h9.437a10.007,10.007,0,0,0,2.6,4.293ZM20.41,70.113H18.052l-.458-5.724H68.253l-.458,5.724H65.443a9.994,9.994,0,0,0-16.415,0h-12.2a9.994,9.994,0,0,0-16.415,0ZM16.335,48.65H69.518l-.343,4.293h-52.5Zm.572,7.154H68.946l-.458,5.724H17.365ZM47.219,75.837H38.634a9.962,9.962,0,0,0-.429-2.862h9.444A9.938,9.938,0,0,0,47.219,75.837Zm10.016,7.154a7.154,7.154,0,1,1,7.154-7.154A7.154,7.154,0,0,1,57.235,82.991Zm15.1-57.378L77.718,28.3l2.125,3.175-1.907,2.862H62.56l-1.1-3.314a1.431,1.431,0,0,0-.5-.692l-4.641-3.48,4.436-6.662,5.9,1.179,5.467,4.1A1.426,1.426,0,0,0,72.336,25.614ZM25.713,33.994l-1.353-5.411,1.268-6.344,7.8-6.5H47.72l5.346,12.028c.016.036.042.064.06.1a1.007,1.007,0,0,0,.065.1,1.189,1.189,0,0,0,.073.116c.029.034.064.061.1.093a1.519,1.519,0,0,0,.156.152l5.366,4.025.662,1.984H25.756A1.423,1.423,0,0,0,25.713,33.994ZM54.088,3.173l4.993,4.993a1.451,1.451,0,0,0,.479.318l6.649,2.658,2.248,4.495-1.869,2.8L60.383,17.2a1.43,1.43,0,0,0-1.471.609l-4.281,6.421-4.668-10.5a1.431,1.431,0,0,0-1.314-.85H45.231l2.726-1.635a1.433,1.433,0,0,0,.651-.879l1.272-5.085Zm-23,5.063L36.11,5.724H46.817l-.843,3.37-6.306,3.784H33l-4.178-.522Zm-8.872,6.178,7.252.907-6.053,5.044a1.432,1.432,0,0,0-.487.818l-1.035,5.162-4.436-2.657,1.019-3.055ZM9.873,30.689a1.4,1.4,0,0,0,.115-.354l1.145-5.682,4.061,1.015,3.232,1.939,3.2,1.919.957,4.816H8.039ZM5.724,37.2H80.129v2.862H5.724Zm7.045,38.634-2.633-32.91H75.718l-2.633,32.91H67.251a9.961,9.961,0,0,0-.429-2.862h2.29a1.431,1.431,0,0,0,1.431-1.316l1.946-24.325a1.432,1.432,0,0,0-1.431-1.545H14.785a1.432,1.432,0,0,0-1.431,1.545L15.3,71.659a1.43,1.43,0,0,0,1.431,1.316h2.289a9.976,9.976,0,0,0-.419,2.862Zm8.695,0a7.154,7.154,0,1,1,7.154,7.154A7.155,7.155,0,0,1,21.463,75.837Zm0,0" transform="translate(0 0)" fill="#fff"/>
      <path id="Trazado_99" data-name="Trazado 99" d="M140.293,400a4.293,4.293,0,1,0,4.293,4.293A4.293,4.293,0,0,0,140.293,400Zm0,5.723a1.431,1.431,0,1,1,1.431-1.431A1.43,1.43,0,0,1,140.293,405.723Zm0,0" transform="translate(-111.675 -328.456)" fill="#fff"/>
      <path id="Trazado_100" data-name="Trazado 100" d="M300.293,400a4.293,4.293,0,1,0,4.293,4.293A4.293,4.293,0,0,0,300.293,400Zm0,5.723a1.431,1.431,0,1,1,1.431-1.431A1.43,1.43,0,0,1,300.293,405.723Zm0,0" transform="translate(-243.057 -328.456)" fill="#fff"/>
    </g>
  </g>
</svg>
