<svg xmlns="http://www.w3.org/2000/svg" xmlns:xlink="http://www.w3.org/1999/xlink" width="88" height="88" viewBox="0 0 88 88">
  <defs>
    <clipPath id="clip-ZAPTalent-Icono-7">
      <rect width="88" height="88"/>
    </clipPath>
  </defs>
  <g id="ZAPTalent-Icono-7" clip-path="url(#clip-ZAPTalent-Icono-7)">
    <g id="Grupo_285" data-name="Grupo 285" transform="translate(-1062.629 -7124.094)">
      <g id="_1112021" data-name="1112021" transform="translate(1068.629 7131.094)">
        <path id="Trazado_168" data-name="Trazado 168" d="M348.21,83.295a7.585,7.585,0,1,0-7.585-7.585A7.585,7.585,0,0,0,348.21,83.295Zm0-2.528a5.057,5.057,0,0,1-4.877-3.792h9.754A5.057,5.057,0,0,1,348.21,80.766Zm0-10.113a5.057,5.057,0,0,1,4.877,3.792h-9.754A5.057,5.057,0,0,1,348.21,70.653Zm0,0" transform="translate(-290.06 -58.012)"/>
        <path id="Trazado_169" data-name="Trazado 169" d="M74.583,21.348V16.434H71.335c-.016-.164-.012-.325-.034-.491l4.705-2.716L70.949,4.47,66.24,7.189a13.094,13.094,0,0,0-3.034-1.754V0H53.093V5.436A13.133,13.133,0,0,0,50.06,7.193L45.35,4.47l-5.057,8.758,4.7,2.712c-.021.164-.017.33-.032.494H6.321V47.517A10.124,10.124,0,0,0,0,56.886V67c0,4.537,3.556,7.585,8.849,7.585h15.17c5.293,0,8.849-3.048,8.849-7.585V65.908h7.855l5.068,5.263c.009.01.021.012.031.023a1.377,1.377,0,0,0,.227.155,1.4,1.4,0,0,0,.2.119c.012,0,.018.014.029.017l7.995,2.83a1.292,1.292,0,0,0,.422.072A1.263,1.263,0,0,0,55.9,72.744l-2.137-6.837H64.651L74.584,55.02V24.63l1.422-2.463Zm-2.528-1.46-.748-.431c.021-.164.017-.33.033-.494h.715ZM43.749,12.3l2.528-4.379,4.071,2.35.681-.605a10.658,10.658,0,0,1,3.727-2.159l.865-.288V2.528h5.057V7.221l.865.288a10.666,10.666,0,0,1,3.729,2.161l.681.6,4.07-2.35L72.551,12.3l-4.064,2.346.182.892a10.615,10.615,0,0,1,.009,4.317l-.181.894,3.559,2.055v1.138l-2.032,3.521-4.071-2.35-.681.605a10.658,10.658,0,0,1-3.727,2.159l-.865.295v4.692H55.622V28.175l-.865-.288a10.658,10.658,0,0,1-3.727-2.159l-.681-.605-4.071,2.35-2.528-4.379L47.8,20.752l-.182-.894a10.84,10.84,0,0,1,0-4.321l.182-.894ZM2.528,56.886A7.592,7.592,0,0,1,10.113,49.3v5.237c0,3.386,2.268,6.14,5.057,6.14H17.7c2.789,0,5.057-2.754,5.057-6.14V49.3a7.593,7.593,0,0,1,7.585,7.585v7.585H2.528ZM17.7,55.622V49.3h2.528v5.237c0,1.958-1.158,3.612-2.528,3.612H15.17c-1.37,0-2.528-1.654-2.528-3.612V49.3H15.17v6.321Zm6.321,16.434H8.849c-3.055,0-6.321-1.329-6.321-5.057H30.339C30.339,70.726,27.074,72.055,24.018,72.055Zm8.849-8.676V57.757l5.418,5.622ZM46.733,68.5l-7.018-7.281,3.64-3.508,7.019,7.282ZM37.96,59.4l-1.754-1.821,3.641-3.509L41.6,55.89Zm-3.508-3.641-.877-.91a2.528,2.528,0,0,1,1.82-4.283h.048a2.517,2.517,0,0,1,1.77.774l.877.91Zm14.6,14.022,2.516-2.425,1.167,3.728Zm16.687-8.811V55.795h4.72Zm6.32-7.7H63.206V63.379H52.335L44.3,55.047l-5.268-5.461a5.022,5.022,0,0,0-8.169,1.29,10.092,10.092,0,0,0-8.113-4.1H10.113a10.244,10.244,0,0,0-1.264.087v-27.9H44.96c.015.164.011.33.032.494l-4.7,2.712,5.057,8.758,4.709-2.719a13.132,13.132,0,0,0,3.034,1.754V35.4H63.207V29.96A13.157,13.157,0,0,0,66.24,28.2l4.71,2.719,1.105-1.913V53.266Zm0,0"/>
        <path id="Trazado_170" data-name="Trazado 170" d="M221.406,281.016h2.528v2.528h-2.528Zm0,0" transform="translate(-188.539 -239.299)"/>
        <path id="Trazado_171" data-name="Trazado 171" d="M110.7,281.016h2.528v2.528H110.7Zm0,0" transform="translate(-94.269 -239.299)"/>
        <path id="Trazado_172" data-name="Trazado 172" d="M110.7,178.828h2.528v2.528H110.7Zm0,0" transform="translate(-94.269 -152.281)"/>
        <path id="Trazado_173" data-name="Trazado 173" d="M110.7,212.891h2.528v2.528H110.7Zm0,0" transform="translate(-94.269 -181.287)"/>
        <path id="Trazado_174" data-name="Trazado 174" d="M110.7,246.953h2.528v2.528H110.7Zm0,0" transform="translate(-94.269 -210.293)"/>
        <path id="Trazado_175" data-name="Trazado 175" d="M281.016,323.594h2.528v2.528h-2.528Zm0,0" transform="translate(-239.299 -275.557)"/>
        <path id="Trazado_176" data-name="Trazado 176" d="M246.953,178.828h2.528v2.528h-2.528Zm0,0" transform="translate(-210.293 -152.281)"/>
        <path id="Trazado_177" data-name="Trazado 177" d="M212.891,178.828h2.528v2.528h-2.528Zm0,0" transform="translate(-181.287 -152.281)"/>
        <path id="Trazado_178" data-name="Trazado 178" d="M178.828,178.828h2.528v2.528h-2.528Zm0,0" transform="translate(-152.281 -152.281)"/>
        <path id="Trazado_179" data-name="Trazado 179" d="M144.766,178.828h2.528v2.528h-2.528Zm0,0" transform="translate(-123.275 -152.281)"/>
        <path id="Trazado_180" data-name="Trazado 180" d="M383.2,255.469h2.528V258H383.2Zm0,0" transform="translate(-326.317 -217.545)"/>
        <path id="Trazado_181" data-name="Trazado 181" d="M383.2,289.531h2.528v2.528H383.2Zm0,0" transform="translate(-326.317 -246.551)"/>
        <path id="Trazado_182" data-name="Trazado 182" d="M383.2,323.594h2.528v2.528H383.2Zm0,0" transform="translate(-326.317 -275.557)"/>
        <path id="Trazado_183" data-name="Trazado 183" d="M349.141,323.594h2.528v2.528h-2.528Zm0,0" transform="translate(-297.311 -275.557)"/>
        <path id="Trazado_184" data-name="Trazado 184" d="M315.078,323.594h2.528v2.528h-2.528Zm0,0" transform="translate(-268.305 -275.557)"/>
      </g>
    </g>
  </g>
</svg>
