<svg xmlns="http://www.w3.org/2000/svg" xmlns:xlink="http://www.w3.org/1999/xlink" width="88" height="88" viewBox="0 0 88 88">
  <defs>
    <clipPath id="clip-ZAPTalent-Icono-3">
      <rect width="88" height="88"/>
    </clipPath>
  </defs>
  <g id="ZAPTalent-Icono-3" clip-path="url(#clip-ZAPTalent-Icono-3)">
    <g id="_1433114" data-name="1433114" transform="translate(1 4)">
      <path id="Trazado_101" data-name="Trazado 101" d="M1.385,33.45H9.067a20.594,20.594,0,0,0,1.951,4.692L5.58,43.577a1.386,1.386,0,0,0,0,1.959l5.874,5.876a1.386,1.386,0,0,0,1.958,0l5.438-5.438a20.58,20.58,0,0,0,4.69,1.95v7.682a1.385,1.385,0,0,0,1.385,1.385h8.308a1.385,1.385,0,0,0,1.385-1.385V47.924a20.58,20.58,0,0,0,4.69-1.95l5.438,5.438a1.425,1.425,0,0,0,1.958,0l5.875-5.876a1.386,1.386,0,0,0,0-1.959l-5.438-5.435a20.594,20.594,0,0,0,1.951-4.692h7.682a1.385,1.385,0,0,0,1.385-1.385V23.757a1.385,1.385,0,0,0-1.385-1.385H49.092a20.6,20.6,0,0,0-1.951-4.691l5.437-5.435a1.386,1.386,0,0,0,0-1.959L46.7,4.411a1.385,1.385,0,0,0-1.958,0L39.308,9.849a20.639,20.639,0,0,0-4.69-1.95V.217a1.385,1.385,0,0,0-1.385-1.385H24.925A1.385,1.385,0,0,0,23.54.217V7.9a20.639,20.639,0,0,0-4.69,1.95L13.412,4.411a1.425,1.425,0,0,0-1.958,0L5.579,10.287a1.386,1.386,0,0,0,0,1.959l5.438,5.435a20.6,20.6,0,0,0-1.951,4.691H1.385A1.385,1.385,0,0,0,0,23.757v8.308A1.385,1.385,0,0,0,1.385,33.45Zm1.385-8.308H10.15A1.384,1.384,0,0,0,11.5,24.053a17.815,17.815,0,0,1,2.426-5.835,1.385,1.385,0,0,0-.187-1.727L8.516,11.266l3.917-3.918,5.225,5.226a1.385,1.385,0,0,0,1.728.188,17.844,17.844,0,0,1,5.835-2.426A1.386,1.386,0,0,0,26.31,8.982V1.6h5.539V8.982a1.386,1.386,0,0,0,1.088,1.353,17.844,17.844,0,0,1,5.835,2.426,1.385,1.385,0,0,0,1.728-.188l5.225-5.226,3.916,3.918L44.417,16.49a1.385,1.385,0,0,0-.187,1.728,17.811,17.811,0,0,1,2.424,5.836,1.386,1.386,0,0,0,1.353,1.089h7.382v5.539H48.007a1.385,1.385,0,0,0-1.353,1.088A17.794,17.794,0,0,1,44.229,37.6a1.386,1.386,0,0,0,.187,1.727l5.226,5.225-3.917,3.919L40.5,43.249a1.386,1.386,0,0,0-1.728-.187,17.8,17.8,0,0,1-5.834,2.426,1.385,1.385,0,0,0-1.09,1.353v7.381H26.31V46.84a1.385,1.385,0,0,0-1.09-1.353,17.8,17.8,0,0,1-5.834-2.426,1.386,1.386,0,0,0-1.728.187l-5.225,5.226L8.517,44.557l5.225-5.225a1.385,1.385,0,0,0,.187-1.728A17.821,17.821,0,0,1,11.5,31.768a1.384,1.384,0,0,0-1.353-1.087H2.769Zm0,0" transform="translate(0 1.168)" fill="#fff"/>
      <path id="Trazado_102" data-name="Trazado 102" d="M141.078,150.988A11.078,11.078,0,1,0,130,139.91,11.077,11.077,0,0,0,141.078,150.988Zm0-19.386a8.308,8.308,0,1,1-8.308,8.308A8.309,8.309,0,0,1,141.078,131.6Zm0,0" transform="translate(-111.999 -110.831)" fill="#fff"/>
      <path id="Trazado_103" data-name="Trazado 103" d="M115.232,129.3A15.232,15.232,0,1,0,100,114.064,15.232,15.232,0,0,0,115.232,129.3Zm0-27.694a12.462,12.462,0,1,1-12.463,12.462A12.462,12.462,0,0,1,115.232,101.6Zm0,0" transform="translate(-86.153 -84.985)" fill="#fff"/>
      <path id="Trazado_104" data-name="Trazado 104" d="M78.929,303.757V292.679a1.385,1.385,0,0,0-1.385-1.385H74.775V280.217a1.385,1.385,0,0,0-1.385-1.385H60.928a1.385,1.385,0,0,0-1.385,1.385v11.078H52.619a1.385,1.385,0,0,0-1.385,1.385v11.078H6.924A6.932,6.932,0,0,0,0,310.681v2.769a6.931,6.931,0,0,0,6.924,6.924H78.929a6.931,6.931,0,0,0,6.924-6.924v-2.769A6.932,6.932,0,0,0,78.929,303.757Zm-2.769,0H66.467v-9.693H76.16ZM62.313,281.6h9.693v9.693H62.313ZM54,294.064H63.7v9.693H54ZM83.083,313.45a4.154,4.154,0,0,1-4.154,4.154H6.924a4.154,4.154,0,0,1-4.154-4.154v-2.769a4.155,4.155,0,0,1,4.154-4.154H78.929a4.155,4.155,0,0,1,4.154,4.154Zm0,0" transform="translate(0 -240.06)" fill="#fff"/>
      <path id="Trazado_105" data-name="Trazado 105" d="M284.154,488.832a4.154,4.154,0,1,0,4.154,4.154A4.155,4.155,0,0,0,284.154,488.832Zm0,5.539a1.385,1.385,0,1,1,1.385-1.385A1.385,1.385,0,0,1,284.154,494.371Zm0,0" transform="translate(-241.228 -420.981)" fill="#fff"/>
      <path id="Trazado_106" data-name="Trazado 106" d="M184.154,488.832a4.154,4.154,0,1,0,4.154,4.154A4.155,4.155,0,0,0,184.154,488.832Zm0,5.539a1.385,1.385,0,1,1,1.385-1.385A1.385,1.385,0,0,1,184.154,494.371Zm0,0" transform="translate(-155.075 -420.981)" fill="#fff"/>
      <path id="Trazado_107" data-name="Trazado 107" d="M384.154,488.832a4.154,4.154,0,1,0,4.154,4.154A4.155,4.155,0,0,0,384.154,488.832Zm0,5.539a1.385,1.385,0,1,1,1.385-1.385A1.385,1.385,0,0,1,384.154,494.371Zm0,0" transform="translate(-327.381 -420.981)" fill="#fff"/>
      <path id="Trazado_108" data-name="Trazado 108" d="M84.154,488.832a4.154,4.154,0,1,0,4.154,4.154A4.155,4.155,0,0,0,84.154,488.832Zm0,5.539a1.385,1.385,0,1,1,1.385-1.385A1.385,1.385,0,0,1,84.154,494.371Zm0,0" transform="translate(-68.922 -420.981)" fill="#fff"/>
      <path id="Trazado_109" data-name="Trazado 109" d="M484.154,488.832a4.154,4.154,0,1,0,4.154,4.154A4.155,4.155,0,0,0,484.154,488.832Zm0,5.539a1.385,1.385,0,1,1,1.385-1.385A1.385,1.385,0,0,1,484.154,494.371Zm0,0" transform="translate(-413.533 -420.981)" fill="#fff"/>
    </g>
  </g>
</svg>
