<svg xmlns="http://www.w3.org/2000/svg" xmlns:xlink="http://www.w3.org/1999/xlink" width="88" height="88" viewBox="0 0 88 88">
  <defs>
    <clipPath id="clip-ZAPTalent-Icono-9">
      <rect width="88" height="88"/>
    </clipPath>
  </defs>
  <g id="ZAPTalent-Icono-9" clip-path="url(#clip-ZAPTalent-Icono-9)">
    <g id="Grupo_284" data-name="Grupo 284" transform="translate(-1417.004 -7132.094)">
      <g id="Grupo_115" data-name="Grupo 115" transform="translate(1346 7057.09)">
        <g id="Grupo_121" data-name="Grupo 121" transform="translate(72.004 96.004)">
          <path id="Trazado_167" data-name="Trazado 167" d="M146.779,112.621h8.308a2.077,2.077,0,0,0,2.077-2.077v-8.308a2.077,2.077,0,0,0-2.077-2.077h-8.308a2.077,2.077,0,0,0-2.077,2.077v2.077H130.162a2.076,2.076,0,0,0-1.352.5l-3.344,2.866-3.909-6.514a2.077,2.077,0,0,0-1.78-1.007H101.083V98.081A2.077,2.077,0,0,0,99.006,96H74.081A2.077,2.077,0,0,0,72,98.081v8.308a2.077,2.077,0,0,0,2.077,2.077H99.006a2.077,2.077,0,0,0,2.077-2.077v-2.077H118.6l3.668,6.109-7.415,6.354H101.083V114.7a2.077,2.077,0,0,0-2.077-2.077H74.081A2.077,2.077,0,0,0,72,114.7v8.308a2.077,2.077,0,0,0,2.077,2.077H99.006a2.077,2.077,0,0,0,2.077-2.077v-2.077h14.54a2.076,2.076,0,0,0,1.352-.5l7.459-6.393,5.253,8.763-10.865,12.67H101.083v-4.154a2.077,2.077,0,0,0-2.077-2.077H74.081A2.077,2.077,0,0,0,72,131.314v8.308a2.077,2.077,0,0,0,2.077,2.077H99.006a2.077,2.077,0,0,0,2.077-2.077h18.694a2.077,2.077,0,0,0,1.576-.725l11.841-13.815H144.7v2.077a2.077,2.077,0,0,0,2.077,2.077h8.308a2.077,2.077,0,0,0,2.077-2.077v-8.308a2.077,2.077,0,0,0-2.077-2.077h-8.308a2.077,2.077,0,0,0-2.077,2.077v2.077H133.415l-5.78-9.636,3.3-2.827H144.7v2.077A2.077,2.077,0,0,0,146.779,112.621Zm2.077-8.308h4.154v4.154h-4.154Zm-51.927,0H76.158v-4.154H96.929Zm0,16.617H76.158v-4.154H96.929Zm0,16.617H76.158v-4.154H96.929Zm51.927-16.617h4.154v4.154h-4.154Z" transform="translate(-72.004 -96.004)" stroke="#fff" stroke-width="1.3"/>
        </g>
      </g>
    </g>
  </g>
</svg>
