<svg xmlns="http://www.w3.org/2000/svg" xmlns:xlink="http://www.w3.org/1999/xlink" width="456" height="134" viewBox="0 0 456 134">
  <defs>
    <radialGradient id="radial-gradient" cx="0.5" cy="0.5" r="0.682" gradientUnits="objectBoundingBox">
      <stop offset="0.001" stop-color="#4da2d0"/>
      <stop offset="0.301" stop-color="#1e9cd7"/>
      <stop offset="0.984" stop-color="#00479a"/>
    </radialGradient>
    <linearGradient id="linear-gradient" x1="0.501" y1="-1.634" x2="0.496" y2="-0.74" gradientUnits="objectBoundingBox">
      <stop offset="0" stop-color="#fff" stop-opacity="0"/>
      <stop offset="1" stop-color="#fff"/>
    </linearGradient>
    <linearGradient id="linear-gradient-2" x1="0.501" y1="-1.573" x2="0.496" y2="-0.679" xlink:href="#linear-gradient"/>
    <clipPath id="clip-ZAPTalent-Logotipo-Blanco">
      <rect width="456" height="134"/>
    </clipPath>
  </defs>
  <g id="ZAPTalent-Logotipo-Blanco" clip-path="url(#clip-ZAPTalent-Logotipo-Blanco)">
    <g id="Grupo_307" data-name="Grupo 307" transform="translate(-544.089 -164.755)">
      <g id="Grupo_297" data-name="Grupo 297" transform="translate(555.089 175.755)">
        <circle id="Elipse_26" data-name="Elipse 26" cx="55.03" cy="55.03" r="55.03" transform="translate(0 1.076)" fill="#fff"/>
        <circle id="Elipse_27" data-name="Elipse 27" cx="51.075" cy="51.075" r="51.075" transform="translate(3.955 5.031)" fill="url(#radial-gradient)"/>
        <path id="Trazado_272" data-name="Trazado 272" d="M639.262,207.7a48.614,48.614,0,0,0-3.531-18.379,51.095,51.095,0,0,0-59.222,0,48.638,48.638,0,0,0-3.531,18.379c0,18.45,9.908,34.045,23.517,39.133a24.487,24.487,0,0,1,19.251,0C629.356,241.747,639.262,226.152,639.262,207.7Z" transform="translate(-551.091 -174.836)" opacity="0.2" fill="url(#linear-gradient)"/>
        <path id="Trazado_273" data-name="Trazado 273" d="M639.262,203.59a48.615,48.615,0,0,0-3.531-18.379,51.095,51.095,0,0,0-59.222,0,48.638,48.638,0,0,0-3.531,18.379c0,18.45,9.908,36.867,23.517,41.955a24.474,24.474,0,0,1,19.251,0C629.356,240.456,639.262,222.04,639.262,203.59Z" transform="translate(-551.091 -175.755)" opacity="0.2" fill="url(#linear-gradient-2)"/>
        <path id="Trazado_274" data-name="Trazado 274" d="M610.133,271.481c.051-.015.1-.033.155-.049,3.916-1.181,9.076-2.858,12.958-2.108,4.184-2.8,8.112-5.978,11.7-8.509-1.343-4.933-3.711-10.921-6.109-14.395-5.514-7.988-13.9-13.43-23.3-13.43-8.988,0-17.056,4.981-22.565,12.406-2.673,3.6-5.456,9.989-7.012,15.3,5.032,3.581,10.741,8.41,16.9,11.691A172.341,172.341,0,0,0,610.133,271.481Z" transform="translate(-550.424 -162.963)" fill="#fff"/>
        <circle id="Elipse_28" data-name="Elipse 28" cx="18.459" cy="18.459" r="18.459" transform="translate(36.571 37.647)" fill="#fff"/>
      </g>
      <g id="Grupo_306" data-name="Grupo 306" transform="translate(688.109 209.153)">
        <g id="Grupo_299" data-name="Grupo 299" transform="translate(0 61.027)">
          <g id="Grupo_298" data-name="Grupo 298">
            <path id="Trazado_275" data-name="Trazado 275" d="M670.462,261.941v.861H663.81v-9.41h6.452v.86H664.8V257.6h4.867v.847H664.8v3.494Z" transform="translate(-663.81 -252.828)" fill="#fff"/>
            <path id="Trazado_276" data-name="Trazado 276" d="M678.158,258.285v4.1H677.2v-4.007a1.976,1.976,0,0,0-2.125-2.259,2.319,2.319,0,0,0-2.473,2.555v3.711h-.956v-7.071h.915v1.3a2.973,2.973,0,0,1,2.688-1.359A2.708,2.708,0,0,1,678.158,258.285Z" transform="translate(-662.057 -252.411)" fill="#fff"/>
            <path id="Trazado_277" data-name="Trazado 277" d="M689.867,252.931V262.9h-.914v-1.4a3.064,3.064,0,0,1-2.73,1.465,3.6,3.6,0,0,1,0-7.192,3.09,3.09,0,0,1,2.688,1.4v-4.247Zm-.942,6.438a2.63,2.63,0,1,0-2.62,2.755A2.585,2.585,0,0,0,688.925,259.369Z" transform="translate(-659.588 -252.931)" fill="#fff"/>
            <path id="Trazado_278" data-name="Trazado 278" d="M690.809,258.849a3.6,3.6,0,1,1,3.6,3.6A3.478,3.478,0,0,1,690.809,258.849Zm6.223,0a2.63,2.63,0,1,0-2.621,2.755A2.578,2.578,0,0,0,697.032,258.849Z" transform="translate(-657.776 -252.411)" fill="#fff"/>
            <path id="Trazado_279" data-name="Trazado 279" d="M705.442,258.285v4.1h-.954v-4.007a1.975,1.975,0,0,0-2.124-2.259,2.318,2.318,0,0,0-2.473,2.555v3.711h-.954v-7.071h.914v1.3a2.971,2.971,0,0,1,2.688-1.359A2.708,2.708,0,0,1,705.442,258.285Z" transform="translate(-655.959 -252.411)" fill="#fff"/>
            <path id="Trazado_280" data-name="Trazado 280" d="M713.636,252.931V262.9h-.914v-1.4a3.061,3.061,0,0,1-2.729,1.465,3.6,3.6,0,0,1,0-7.192,3.09,3.09,0,0,1,2.688,1.4v-4.247Zm-.941,6.438a2.63,2.63,0,1,0-2.621,2.755A2.585,2.585,0,0,0,712.695,259.369Z" transform="translate(-654.275 -252.931)" fill="#fff"/>
            <path id="Trazado_281" data-name="Trazado 281" d="M721.445,259.145h-5.913a2.616,2.616,0,0,0,2.782,2.459,2.782,2.782,0,0,0,2.163-.927l.538.619a3.738,3.738,0,0,1-6.438-2.447,3.405,3.405,0,0,1,3.454-3.59,3.371,3.371,0,0,1,3.428,3.59C721.46,258.93,721.445,259.037,721.445,259.145Zm-5.913-.712h5.014a2.512,2.512,0,0,0-5.014,0Z" transform="translate(-652.463 -252.411)" fill="#fff"/>
            <path id="Trazado_282" data-name="Trazado 282" d="M729.915,262.226a2.272,2.272,0,0,1-1.491.5,1.873,1.873,0,0,1-2.07-2.055v-4.276h-1.264v-.805h1.264v-1.545h.954v1.545h2.151v.805h-2.151v4.222a1.132,1.132,0,0,0,1.222,1.29,1.573,1.573,0,0,0,1.05-.363Z" transform="translate(-650.114 -252.683)" fill="#fff"/>
            <path id="Trazado_283" data-name="Trazado 283" d="M737.492,255.3v7.071h-.914v-1.291a2.81,2.81,0,0,1-2.54,1.357,2.738,2.738,0,0,1-2.984-3.037v-4.1h.954v4.006a1.978,1.978,0,0,0,2.123,2.271,2.3,2.3,0,0,0,2.407-2.568V255.3Z" transform="translate(-648.781 -252.401)" fill="#fff"/>
            <path id="Trazado_284" data-name="Trazado 284" d="M749.28,252.931V262.9h-.914v-1.4a3.064,3.064,0,0,1-2.73,1.465,3.6,3.6,0,0,1,0-7.192,3.094,3.094,0,0,1,2.689,1.4v-4.247Zm-.942,6.438a2.63,2.63,0,1,0-2.62,2.755A2.585,2.585,0,0,0,748.338,259.369Z" transform="translate(-646.309 -252.931)" fill="#fff"/>
            <path id="Trazado_285" data-name="Trazado 285" d="M757.089,259.145h-5.914a2.617,2.617,0,0,0,2.782,2.459,2.783,2.783,0,0,0,2.164-.927l.537.619a3.737,3.737,0,0,1-6.437-2.447,3.405,3.405,0,0,1,3.454-3.59,3.371,3.371,0,0,1,3.428,3.59C757.1,258.93,757.089,259.037,757.089,259.145Zm-5.914-.712h5.015a2.513,2.513,0,0,0-5.015,0Z" transform="translate(-644.497 -252.411)" fill="#fff"/>
            <path id="Trazado_286" data-name="Trazado 286" d="M757.295,261.577l.431-.752a4.272,4.272,0,0,0,2.512.794c1.345,0,1.9-.458,1.9-1.157,0-1.841-4.584-.389-4.584-3.185,0-1.157.995-2.018,2.8-2.018a4.788,4.788,0,0,1,2.5.659l-.417.766a3.626,3.626,0,0,0-2.084-.6c-1.276,0-1.841.5-1.841,1.17,0,1.909,4.583.47,4.583,3.186,0,1.224-1.075,2.015-2.916,2.015A4.718,4.718,0,0,1,757.295,261.577Z" transform="translate(-642.916 -252.411)" fill="#fff"/>
            <path id="Trazado_287" data-name="Trazado 287" d="M768.052,262.226a2.28,2.28,0,0,1-1.493.5,1.872,1.872,0,0,1-2.07-2.055v-4.276h-1.263v-.805h1.263v-1.545h.954v1.545h2.151v.805h-2.151v4.222a1.133,1.133,0,0,0,1.224,1.29,1.572,1.572,0,0,0,1.049-.363Z" transform="translate(-641.59 -252.683)" fill="#fff"/>
            <path id="Trazado_288" data-name="Trazado 288" d="M774.691,258v4.383h-.915v-1.1a2.653,2.653,0,0,1-2.434,1.17c-1.6,0-2.58-.832-2.58-2.055,0-1.089.7-2,2.728-2h2.245v-.431c0-1.21-.685-1.868-2-1.868a3.6,3.6,0,0,0-2.353.834l-.431-.713a4.487,4.487,0,0,1,2.876-.956C773.655,255.259,774.691,256.174,774.691,258Zm-.956,2.259V259.1h-2.217c-1.372,0-1.816.537-1.816,1.264,0,.82.658,1.33,1.788,1.33A2.261,2.261,0,0,0,773.736,260.261Z" transform="translate(-640.353 -252.411)" fill="#fff"/>
            <path id="Trazado_289" data-name="Trazado 289" d="M775.825,258.849a3.481,3.481,0,0,1,3.644-3.59,3.088,3.088,0,0,1,2.769,1.4l-.713.484a2.4,2.4,0,0,0-2.056-1.049,2.757,2.757,0,0,0,0,5.511,2.39,2.39,0,0,0,2.056-1.035l.713.484a3.116,3.116,0,0,1-2.769,1.4A3.491,3.491,0,0,1,775.825,258.849Z" transform="translate(-638.774 -252.411)" fill="#fff"/>
            <path id="Trazado_290" data-name="Trazado 290" d="M788.695,258v4.383h-.914v-1.1a2.653,2.653,0,0,1-2.434,1.17c-1.6,0-2.58-.832-2.58-2.055,0-1.089.7-2,2.728-2h2.245v-.431c0-1.21-.685-1.868-2-1.868a3.6,3.6,0,0,0-2.352.834l-.431-.713a4.484,4.484,0,0,1,2.876-.956C787.66,255.259,788.695,256.174,788.695,258Zm-.954,2.259V259.1h-2.217c-1.372,0-1.816.537-1.816,1.264,0,.82.658,1.33,1.788,1.33A2.262,2.262,0,0,0,787.74,260.261Z" transform="translate(-637.223 -252.411)" fill="#fff"/>
            <path id="Trazado_291" data-name="Trazado 291" d="M789.588,261.577l.431-.752a4.273,4.273,0,0,0,2.513.794c1.345,0,1.9-.458,1.9-1.157,0-1.841-4.583-.389-4.583-3.185,0-1.157.993-2.018,2.8-2.018a4.783,4.783,0,0,1,2.5.659l-.416.766a3.631,3.631,0,0,0-2.084-.6c-1.277,0-1.841.5-1.841,1.17,0,1.909,4.583.47,4.583,3.186,0,1.224-1.075,2.015-2.916,2.015A4.721,4.721,0,0,1,789.588,261.577Z" transform="translate(-635.698 -252.411)" fill="#fff"/>
          </g>
        </g>
        <g id="Grupo_305" data-name="Grupo 305">
          <g id="Grupo_304" data-name="Grupo 304" transform="translate(33.954 0.039)">
            <g id="Grupo_302" data-name="Grupo 302">
              <g id="Grupo_300" data-name="Grupo 300">
                <path id="Trazado_292" data-name="Trazado 292" d="M705.608,203.084,691.561,248.19H703.4l2.652-10.332h11.784l2.634,10.332h12.2l-14.048-45.106Zm3.6,22.484c.778-3.07,1.685-6.806,2.7-11.136.71,2.954,1.488,6.009,2.2,8.785l1.356,5.319h-7.013Z" transform="translate(-691.561 -203.084)" fill="#fff"/>
                <path id="Trazado_293" data-name="Trazado 293" d="M743.719,203.084H727.476V248.19h11.495V233.454h4.748c11.009,0,17.849-5.965,17.849-15.567C761.568,208.2,755.4,203.084,743.719,203.084Zm-4.748,9.466h4.177c5.056,0,7.117,1.547,7.117,5.337,0,4.162-2.261,6.1-7.117,6.1h-4.177Z" transform="translate(-683.534 -203.084)" fill="#fff"/>
              </g>
              <g id="Grupo_301" data-name="Grupo 301" transform="translate(81.392 0.258)">
                <path id="Trazado_294" data-name="Trazado 294" d="M758.085,210.574h14.032v37.849h8.328V210.574h14.031v-7.279h-36.39Z" transform="translate(-758.085 -203.295)" fill="#fff"/>
                <path id="Trazado_295" data-name="Trazado 295" d="M801.148,215.311c-5.642,0-10.647,2.571-13.129,4.1l-.684.422,3,5.245.724-.425c3.548-2.079,6.43-3.048,9.069-3.048,3.615,0,5.678,1.57,6.144,4.666-14.052,1.164-19.8,4.439-19.8,11.22,0,5.259,4.247,8.932,10.326,8.932,4.135,0,7.927-2.109,10.27-3.77l.384,3.081h6.291V228C813.743,219.936,809.152,215.311,801.148,215.311Zm5.208,16.288v5.278c-2.879,2.278-5.408,3.34-7.931,3.34-1.414,0-4.7-.307-4.7-3.153C793.724,234.993,795.185,232.52,806.357,231.6Z" transform="translate(-751.74 -200.609)" fill="#fff"/>
                <path id="Trazado_296" data-name="Trazado 296" d="M833.906,241.139a11.725,11.725,0,0,1-4.693,1.108c-2.958,0-4.46-1.56-4.46-4.636V205.524H807.722v6.231h9.646v25.512c0,7.211,3.831,11.347,10.511,11.347a19.263,19.263,0,0,0,8.042-1.692l.727-.288-1.9-5.862Z" transform="translate(-746.991 -202.797)" fill="#fff"/>
                <path id="Trazado_297" data-name="Trazado 297" d="M845.352,215.311c-9.893,0-15.231,7.992-15.231,15.512,0,9.334,6.461,15.6,16.078,15.6a20.715,20.715,0,0,0,11.388-3.47l.642-.423-2.792-5.045-.739.445a14.455,14.455,0,0,1-7.774,2.352c-5.155,0-8.438-2.5-9.3-6.953h21.1l.11-.7a21.552,21.552,0,0,0,.273-3.237C859.111,220.839,853.71,215.311,845.352,215.311Zm.158,6.094c4.587,0,6.247,2.945,6.716,6.073h-14.4A7.743,7.743,0,0,1,845.51,221.405Z" transform="translate(-741.985 -200.609)" fill="#fff"/>
                <path id="Trazado_298" data-name="Trazado 298" d="M872.158,215.311c-4.345,0-7.528,2.175-9.9,4.4L861.881,216h-6.262v29.737H863V225.886c2.608-2.642,4.474-3.981,7.177-3.981,2.989,0,4.979,1.077,4.979,6.335v17.5h7.386V227.49C882.546,221.934,880.744,215.311,872.158,215.311Z" transform="translate(-736.286 -200.609)" fill="#fff"/>
                <path id="Trazado_299" data-name="Trazado 299" d="M906.925,240.192l-.844.31a17.118,17.118,0,0,1-6.111,1.148c-4.344,0-5.957-1.717-5.957-6.334V223.731h13.246V217.5H894.012v-8.9H887.67l-.752,8.928-8.026.3v5.9h7.736V235.3c0,8.379,4.042,12.627,12.018,12.627a26.929,26.929,0,0,0,9.156-1.68l.738-.256Z" transform="translate(-731.084 -202.109)" fill="#fff"/>
              </g>
            </g>
            <g id="Grupo_303" data-name="Grupo 303" transform="translate(259.875 14.935)">
              <path id="Trazado_300" data-name="Trazado 300" d="M903.963,218.97a3.449,3.449,0,1,1,3.445,3.652A3.48,3.48,0,0,1,903.963,218.97Zm6.3,0a2.866,2.866,0,1,0-5.706,0,2.863,2.863,0,1,0,5.706,0Zm-4.133-2.019h1.3c.738,0,1.45.279,1.45,1.214a1.11,1.11,0,0,1-.745,1.052l.924,1.637h-.7l-.729-1.433h-.9v1.433h-.6Zm1.141,1.948c.579,0,.963-.2.963-.7,0-.428-.221-.719-.9-.719h-.61V218.9Z" transform="translate(-903.963 -215.291)" fill="#fff"/>
            </g>
          </g>
          <path id="Trazado_301" data-name="Trazado 301" d="M679.108,237.309l17.764-25.538.139-.2v-8.52H664.59l-.36,10.954h17.86l-18.146,26.232-.134.2v7.771h33.179l.217-10.9Z" transform="translate(-663.81 -203.052)" fill="#fff"/>
        </g>
      </g>
    </g>
  </g>
</svg>
