<svg xmlns="http://www.w3.org/2000/svg" xmlns:xlink="http://www.w3.org/1999/xlink" width="88" height="88" viewBox="0 0 88 88">
  <defs>
    <clipPath id="clip-ZAPTalent-Icono-6">
      <rect width="88" height="88"/>
    </clipPath>
  </defs>
  <g id="ZAPTalent-Icono-6" clip-path="url(#clip-ZAPTalent-Icono-6)">
    <g id="_2623986" data-name="2623986" transform="translate(14 3)">
      <path id="Trazado_110" data-name="Trazado 110" d="M38.658,82.527c11.012,0,29.658-1.5,29.658-7.092V75.19a2.308,2.308,0,0,0-1.135-2,6.989,6.989,0,0,0-1.444-.98V65.763a1.289,1.289,0,1,0-2.579,0v6.447a2.417,2.417,0,0,1,.077.916,1.289,1.289,0,0,0,.748,1.289l.387.168c.451.206.98.438,1.289.606l.09.1c-.864,1.612-10.393,4.384-27.079,4.384S12.507,76.9,11.656,75.306l.1-.129a10.465,10.465,0,0,1,1.289-.593l.387-.168a1.956,1.956,0,0,0,.735-1.792,1.29,1.29,0,0,0-.013-.413V46.2c6.331,2.128,17.124,2.8,24.5,2.8,2.192,0,4.384,0,6.447-.155a1.291,1.291,0,0,0-.116-2.579c-2.089.1-4.229.155-6.447.155-12.817,0-21.418-1.651-25.08-3.146a1.289,1.289,0,0,0-.438-.193A3.146,3.146,0,0,1,11.579,42a11.347,11.347,0,0,1,1.431-.735l.361-.155h0a1.211,1.211,0,0,0,.142-.1,1.29,1.29,0,0,0,.258-.181q.142-.2.271-.413a1.289,1.289,0,0,0,0-.309,1.213,1.213,0,0,0,.116-.129h0V11.386c6.331,2.128,17.124,2.8,24.5,2.8s18.169-.671,24.5-2.8V39.974h0a1.212,1.212,0,0,0,0,.168,1.29,1.29,0,0,0,0,.309q.128.211.271.413a1.29,1.29,0,0,0,.258.181,1.214,1.214,0,0,0,.142.1h0l.361.155a11.851,11.851,0,0,1,1.393.671,4.217,4.217,0,0,1-1.728,1.135h0c-1.921.851-5.661,1.921-12.5,2.579a1.291,1.291,0,0,0,.129,2.579h.129a57.459,57.459,0,0,0,11.541-2.076V60.606a1.289,1.289,0,0,0,2.579,0V45.132c1.586-.864,2.579-1.908,2.579-3.2,0-1.5-1.161-2.141-2.579-2.772V10.316c1.612-.877,2.579-1.934,2.579-3.211C68.316,1.5,49.67,0,38.658,0c-3.121,0-6.189.1-9.117.3a1.293,1.293,0,1,0,.181,2.579c2.863-.193,5.88-.3,8.936-.3,17.111,0,26.731,2.94,27.079,4.5-.077.348-.632.761-1.6,1.2a1.289,1.289,0,0,0-.413.181c-3.662,1.5-12.263,3.146-25.067,3.146S17.3,9.968,13.616,8.485a1.289,1.289,0,0,0-.49-.219c-.928-.426-1.47-.825-1.547-1.173s2.386-2.347,11.773-3.6A1.3,1.3,0,1,0,23.017.916C13.719,2.192,9,4.255,9,7.092c0,1.289.967,2.321,2.579,3.211V39.136C10.161,39.768,9,40.425,9,41.908c0,1.289.967,2.321,2.579,3.211V72.211a6.976,6.976,0,0,0-1.444.993A2.308,2.308,0,0,0,9,75.19v.245C9,81.031,27.646,82.527,38.658,82.527Z" transform="translate(-9 0)" fill="#fff"/>
      <path id="Trazado_111" data-name="Trazado 111" d="M32.641,15.617C31.957,16.739,26,26.6,26,30.472a7.737,7.737,0,0,0,15.474,0c0-3.868-5.957-13.733-6.641-14.855a1.289,1.289,0,0,0-2.192,0Zm6.254,14.855a5.158,5.158,0,0,1-10.316,0c0-2,2.824-7.582,5.158-11.605C36.071,22.89,38.895,28.473,38.895,30.472Z" transform="translate(-4.079 4.344)" fill="#fff"/>
      <path id="Trazado_112" data-name="Trazado 112" d="M30.381,27.41a1.289,1.289,0,0,0,.335,1.792,3.43,3.43,0,0,0,1.973.619,3.791,3.791,0,0,0,2.063-.619,1.3,1.3,0,0,0-1.444-2.153,1.044,1.044,0,0,1-1.135,0,1.289,1.289,0,0,0-1.792.361Z" transform="translate(-2.876 7.767)" fill="#fff"/>
    </g>
  </g>
</svg>
