<svg xmlns="http://www.w3.org/2000/svg" xmlns:xlink="http://www.w3.org/1999/xlink" width="88" height="88" viewBox="0 0 88 88">
  <defs>
    <clipPath id="clip-ZAPTalent-Icono-4">
      <rect width="88" height="88"/>
    </clipPath>
  </defs>
  <g id="ZAPTalent-Icono-4" clip-path="url(#clip-ZAPTalent-Icono-4)">
    <g id="_1275475" data-name="1275475" transform="translate(1 1)">
      <path id="Trazado_88" data-name="Trazado 88" d="M55.833,62.912a7.372,7.372,0,1,0-7.372-7.372A7.372,7.372,0,0,0,55.833,62.912Zm0-11.884a4.511,4.511,0,1,1-4.511,4.511A4.511,4.511,0,0,1,55.833,51.029Zm0,0" transform="translate(-39.849 -39.556)" fill="#fff"/>
      <path id="Trazado_89" data-name="Trazado 89" d="M80.417,64.856l-.552-14.432,2.692-3.7-3.264-6,.655-2.016,6.166-2.935V29.8L79.948,26.86l-.655-2.016,3.264-6-3.513-4.832L72.33,15.261l-1.716-1.247-.887-6.77L64.048,5.4l-4.7,4.956h-2.12L52.531,5.4l-5.68,1.847-.277,2.111L26.707,8.172,25.368,6.833l-.37-3L19.637,1.6,17.248,3.468H15.312L12.917,1.6,7.553,3.827l-.369,3L5.811,8.2l-3,.369L.579,13.94l1.87,2.394v1.941L.579,20.659l1.773,4.276L.377,50.241a8.249,8.249,0,0,0-.076.972v.053H.293v.112a8.57,8.57,0,0,0,12.046,7.845L20.8,55.7a8.527,8.527,0,0,0,3.771,10.23L11.5,70.139a8.582,8.582,0,0,0,1.666,17h.075l52.669-2.762.807,1.934,4.548.933,3.692-3.586.94-.311L81,84l3.083-3.473-1.261-4.99.2-.971,3.121-4.092-1.462-4.406ZM49.451,9.4,51.7,8.676,56,13.214h4.577l4.3-4.538,2.248.729.811,6.2,3.7,2.692,6.15-1.144,1.386,1.909-2.986,5.5,1.416,4.355L83.254,31.6v2.361l-5.646,2.689-1.416,4.355L79.178,46.5l-1.386,1.909-6.15-1.144-3.7,2.692-.811,6.2-2.248.73-4.3-4.538H56l-4.3,4.538-2.246-.73-.812-6.2-3.7-2.693-6.151,1.144L37.4,46.5l2.986-5.492-1.414-4.357-5.646-2.689V31.6l5.646-2.689,1.414-4.357L37.4,19.066l1.387-1.909L44.934,18.3l3.7-2.7ZM3.869,13.495l.944-2.289,2.331-.286L9.906,8.161l.286-2.33,2.289-.944L14.33,6.331h3.912l1.841-1.44,2.289.944.286,2.329,2.757,2.764,2.33.286L28.69,13.5l-1.445,1.849v3.912l1.445,1.849L27.744,23.4l-2.33.286-2.764,2.764-.286,2.33-2.288.945-1.849-1.444h-3.9l-1.85,1.444-2.288-.945L9.9,26.451,7.137,23.673l-2.329-.286L3.865,21.1l1.444-1.849v-3.9ZM3.154,51.4l.017-.223a5.413,5.413,0,1,1-.017.223Zm25.746,1.4a5.721,5.721,0,1,1-5.721,5.721A5.722,5.722,0,0,1,28.9,52.808ZM7.445,78.554a5.72,5.72,0,0,1,3.315-5.174l1.383-.445a5.714,5.714,0,1,1,1.076,11.34h-.071A5.721,5.721,0,0,1,7.445,78.554Zm12.407,5.368a8.553,8.553,0,0,0-2.289-12.73L31.533,66.7a8.582,8.582,0,1,0-5.865-16.112l-8.69,3.622A8.565,8.565,0,0,0,3.7,44.56L5.13,26.312l.694.086L7.2,27.771l.369,3,5.365,2.22,2.389-1.859h1.941l2.387,1.859L25,30.781l.37-3L26.741,26.4l3-.371,2.22-5.362-1.86-2.388V16.334l1.86-2.389-1.1-2.655,15.341.908-.237,1.817-1.717,1.246-6.712-1.249-3.513,4.832,3.262,6-.654,2.012L30.47,29.8v5.976l6.165,2.935.655,2.016-3.262,6,3.513,4.832L44.253,50.3l1.717,1.246.886,6.771,5.68,1.847,4.7-4.956h2.12l4.7,4.956,5.68-1.847.887-6.77L72.337,50.3l4.7.875.342,8.95-.365-.874-4.549-.935-3.7,3.584-.94.314-5.1-.658-3.083,3.473L60.9,70.024l-.2.971-3.121,4.091,1.466,4.406,4.95,1.408.742.658v.01Zm60.5-10.572L79.892,75.6,80.94,79.76l-1.074,1.209-4.253-.545-2.18.724-3.077,2.985-1.583-.323-1.651-3.956-1.716-1.527-4.124-1.173-.512-1.537,2.6-3.408.462-2.25L62.785,65.8l1.074-1.21,4.253.547,2.181-.724,3.078-2.986,1.583.326,1.652,3.958,1.716,1.523,4.124,1.171.511,1.537Zm0,0" transform="translate(-0.293 -1.315)" fill="#fff"/>
      <path id="Trazado_90" data-name="Trazado 90" d="M38.014,266.861A2.861,2.861,0,1,1,35.154,264,2.861,2.861,0,0,1,38.014,266.861Zm0,0" transform="translate(-26.572 -216.798)" fill="#fff"/>
      <path id="Trazado_91" data-name="Trazado 91" d="M150.014,306.861A2.861,2.861,0,1,1,147.154,304,2.861,2.861,0,0,1,150.014,306.861Zm0,0" transform="translate(-118.547 -249.646)" fill="#fff"/>
      <path id="Trazado_92" data-name="Trazado 92" d="M62.014,418.861A2.861,2.861,0,1,1,59.154,416,2.861,2.861,0,0,1,62.014,418.861Zm0,0" transform="translate(-46.28 -341.621)" fill="#fff"/>
      <path id="Trazado_93" data-name="Trazado 93" d="M367.445,360a7.152,7.152,0,1,0,7.152,7.152A7.152,7.152,0,0,0,367.445,360Zm0,11.443a4.291,4.291,0,1,1,4.291-4.291A4.291,4.291,0,0,1,367.445,371.443Zm0,0" transform="translate(-295.927 -295.634)" fill="#fff"/>
      <path id="Trazado_94" data-name="Trazado 94" d="M254.6,124.607a14.3,14.3,0,1,0-14.3-14.3A14.3,14.3,0,0,0,254.6,124.607Zm0-25.746A11.443,11.443,0,1,1,243.154,110.3,11.443,11.443,0,0,1,254.6,98.861Zm0,0" transform="translate(-197.382 -78.836)" fill="#fff"/>
      <path id="Trazado_95" data-name="Trazado 95" d="M280.875,145.164a8.582,8.582,0,1,0-8.582-8.582A8.583,8.583,0,0,0,280.875,145.164Zm0-14.3a5.721,5.721,0,1,1-5.721,5.721A5.722,5.722,0,0,1,280.875,130.861Zm0,0" transform="translate(-223.661 -105.114)" fill="#fff"/>
      <path id="Trazado_96" data-name="Trazado 96" d="M432.293,4.291A4.291,4.291,0,1,0,436.584,0,4.291,4.291,0,0,0,432.293,4.291Zm5.721,0a1.43,1.43,0,1,1-1.43-1.43A1.43,1.43,0,0,1,438.014,4.291Zm0,0" transform="translate(-355.054)" fill="#fff"/>
      <path id="Trazado_97" data-name="Trazado 97" d="M198.014,2.861A2.861,2.861,0,1,1,195.154,0,2.861,2.861,0,0,1,198.014,2.861Zm0,0" transform="translate(-157.964)" fill="#fff"/>
    </g>
  </g>
</svg>
