<svg xmlns="http://www.w3.org/2000/svg" xmlns:xlink="http://www.w3.org/1999/xlink" width="88" height="88" viewBox="0 0 88 88">
  <defs>
    <clipPath id="clip-ZAPTalent-Icono-2">
      <rect width="88" height="88"/>
    </clipPath>
  </defs>
  <g id="ZAPTalent-Icono-2" clip-path="url(#clip-ZAPTalent-Icono-2)">
    <g id="_988642" data-name="988642" transform="translate(1 1)">
      <g id="Grupo_71" data-name="Grupo 71" transform="translate(0 0)">
        <path id="Trazado_117" data-name="Trazado 117" d="M71.544,42.926A1.431,1.431,0,0,0,72.975,41.5V21.463H84.422a1.431,1.431,0,0,0,1.431-1.431V14.308a1.349,1.349,0,0,0-.031-.157,1.4,1.4,0,0,0-.062-.3,1.464,1.464,0,0,0-.894-.883,1.214,1.214,0,0,0-.117-.052L30.375.034A1.428,1.428,0,0,0,30.048,0H24.325a1.42,1.42,0,0,0-.494.1c-.039.014-.074.027-.112.044s-.066.021-.1.039L.728,13.061a1.381,1.381,0,0,0-.2.16A1.4,1.4,0,0,0,.4,13.33a1.431,1.431,0,0,0-.286.421v.017a1.424,1.424,0,0,0-.1.494c0,.017-.01.031-.01.049v5.724a1.431,1.431,0,0,0,1.431,1.431H21.463V48.057l-5.3,5.3a1.431,1.431,0,0,0-.419,1.012V77.267H12.878v8.585H41.5V77.267H38.634V54.373a1.431,1.431,0,0,0-.419-1.012l-5.3-5.3V21.463H61.528V41.5a1.431,1.431,0,0,0,1.431,1.431H65.82v4.293a1.431,1.431,0,0,0,1.431,1.431,2.862,2.862,0,1,1-2.862,2.862V50.08H61.528v1.431a5.705,5.705,0,0,0,2.993,5l-10.74,10.74h-3.7a1.431,1.431,0,0,0-1.431,1.431V81.56a1.431,1.431,0,0,0,1.431,1.431H84.422a1.431,1.431,0,0,0,1.431-1.431V68.682a1.431,1.431,0,0,0-1.431-1.431h-3.7l-10.74-10.74a5.7,5.7,0,0,0-1.3-10.543V42.926Zm1.431-27.187H82.991V18.6H72.975ZM82.991,70.113V80.129H51.512V70.113Zm-6.316-2.862H57.828l9.424-9.424Zm-6.562-32.91H64.39V21.463h5.724Zm0-15.74H64.39V15.739h5.724ZM25.756,2.861h2.862V12.878H25.756ZM24.325,15.739h5.724v2.269l-.592.592H24.325Zm5.724,6.316V32.318l-5.131-5.131Zm-5.724-.592h2.269l-2.269,2.269Zm0,9.178,5.131,5.131L24.325,40.9Zm5.724,8.585V49.488l-5.131-5.131ZM24.325,48.65v-.838l5.131,5.131-5.131,5.131ZM30.048,56.4V66.659l-5.131-5.131Zm-5.724,8.585,5.131,5.131-5.131,5.131Zm5.724,8.585v3.7h-3.7ZM22.894,3.877v9h-16ZM2.862,18.6V15.739h18.6V18.6ZM18.6,54.966,21.463,52.1V77.267H18.6ZM38.634,80.129v2.862H15.74V80.129ZM35.772,54.966v22.3H32.91V52.1ZM61.528,18.6H32.91V15.739H61.528ZM31.479,12.878V3.239l40.693,9.638H31.479ZM64.39,40.064V37.2h5.724v2.862Z" transform="translate(0 0)" fill="#fff"/>
      </g>
    </g>
  </g>
</svg>
