<?xml version="1.0" encoding="utf-8"?>
<!-- Generator: Adobe Illustrator 24.1.2, SVG Export Plug-In . SVG Version: 6.00 Build 0)  -->
<svg version="1.1" id="Capa_1" xmlns="http://www.w3.org/2000/svg" xmlns:xlink="http://www.w3.org/1999/xlink" x="0px" y="0px"
	 viewBox="0 0 400 400" style="enable-background:new 0 0 400 400;" xml:space="preserve">
<style type="text/css">
	.st0{fill:#3062A8;stroke:#2E62A7;stroke-width:0.2;}
</style>
<path id="_2933787" class="st0" d="M344.6,126.3h-49.3l-5.4-25.9c-4.9-22.5-24.8-38.6-47.9-38.6h-83.2c-23.1,0-43,16.1-47.9,38.6
	l-5.4,25.9H56.4c-7.8,0-14.2,6.2-14.2,14v184.2c0.1,7.8,6.4,14.1,14.2,14.1h288.2c7.8,0,14.2-6.2,14.2-14.1V140.4
	C358.8,132.6,352.4,126.3,344.6,126.3z M119.5,102.2c4-18.5,20.4-31.7,39.4-31.7h83.2c19,0,35.4,13.1,39.4,31.7l5,24.2h-11.4
	l-4.5-21.9c-2.9-13.4-14.8-23-28.5-23h-83.2c-13.7,0-25.6,9.6-28.5,23l-4.5,21.9h-11.4L119.5,102.2z M266.3,126.3H134.7l4.2-20.2
	c2-9.4,10.4-16.1,20-16.1h83.2c9.6,0,18,6.7,20,16.1L266.3,126.3z M50.8,140.4c0-3.1,2.5-5.5,5.6-5.5c0,0,0,0,0,0h288.2
	c3.1,0,5.6,2.4,5.6,5.5c0,0,0,0,0,0v47.2c-0.2,22.1-18.1,39.8-40.2,39.7H91c-22.1,0.1-40-17.7-40.2-39.7V140.4z M261.9,235.8h22.9
	v24.9c0,1.7-1.4,3.1-3.1,3c0,0,0,0,0,0H265c-1.7,0-3.1-1.3-3.1-3c0,0,0,0,0,0V235.8z M116.2,235.8h22.9v24.9c0,1.7-1.4,3.1-3.1,3
	c0,0,0,0,0,0h-16.7c-1.7,0-3.1-1.3-3.1-3c0,0,0,0,0,0L116.2,235.8z M350.1,324.5c0,3.1-2.5,5.5-5.6,5.5c0,0,0,0,0,0H56.4
	c-3.1,0-5.6-2.4-5.6-5.5c0,0,0,0,0,0V214.9C60,228,75,235.8,91,235.8h16.5v24.9c0.1,6.4,5.3,11.6,11.7,11.6H136
	c6.4,0,11.7-5.2,11.7-11.6v-25h105.5v24.9c0.1,6.4,5.3,11.6,11.7,11.6h16.7c6.4,0,11.7-5.2,11.7-11.6v-24.9h16.5
	c16,0,31-7.8,40.2-20.9L350.1,324.5z"/>
</svg>