<?xml version="1.0" encoding="utf-8"?>
<!-- Generator: Adobe Illustrator 24.1.2, SVG Export Plug-In . SVG Version: 6.00 Build 0)  -->
<svg version="1.1" id="Capa_1" xmlns="http://www.w3.org/2000/svg" xmlns:xlink="http://www.w3.org/1999/xlink" x="0px" y="0px"
	 viewBox="0 0 250 250" style="enable-background:new 0 0 250 250;" xml:space="preserve">
<style type="text/css">
	.st0{fill:#8C8B95;}
	.st1{fill:#8C8B95;stroke:#8C8B95;stroke-width:0.2;}
	.st2{fill:#8C8B95;stroke:#8C8B95;stroke-width:0.1;}
</style>
<g id="_882803" transform="translate(0.105 7.358)">
	<path id="Trazado_284" class="st0" d="M145.5,96.3h-4.3c-1.7,0-3.1,1.4-3.1,3.1c0,0,0,0,0,0v16.1c0,1.7,1.4,3.1,3.1,3.1l0,0h4.4
		c12.3,0,13.5-7.8,13.5-11.2C159.1,104.1,157.8,96.3,145.5,96.3z M144.2,112.4v-10c4.7,0,8.9,0.2,8.9,4.9
		C153,112,149,112.4,144.2,112.4L144.2,112.4z"/>
	<path id="Trazado_285" class="st0" d="M102.8,105c-0.5-1.6-2.2-2.5-3.9-2c-1,0.3-1.7,1.1-2,2l-6.3,19.9c-0.5,1.5,0.3,3.2,1.8,3.7
		c4.8,1.7,10,1.8,14.8,0.1c1.5-0.6,2.3-2.2,1.8-3.7L102.8,105z M97.3,123.7l2.5-7.9l2.5,8C100.7,124,99,124,97.3,123.7L97.3,123.7z"
		/>
	<path id="Trazado_286" class="st0" d="M220.5,64.5H29.3c-2.6,0.1-4.7,2.2-4.6,4.8v98.4c0,1.6,1.3,3,2.9,3.1h98.8
		c1.3,0,2.5-0.5,3.3-1.4l93.9-96.7c1.9-1.9,1.9-4.9,0.1-6.8C222.9,65,221.7,64.5,220.5,64.5z M126.1,164.7H30.6v-17.9
		c10.9,6.2,23.9,7.2,35.6,2.7c0.5,1.1,1.5,1.7,2.7,1.7h17.6c1.3,0,2.4-0.9,2.8-2.1l2.1-6.5c5.5,1.3,11.1,1.3,16.6,0l2,6.4
		c0.4,1.2,1.5,2.1,2.8,2.1H139L126.1,164.7z M30.6,136.3v-20.9c4.8,5.9,11.5,10,18.9,11.7c2.2,0.7,7.3,2.3,7.7,3.5
		c0,1.8-2.9,2.1-4.6,2.2c-5.2,0.2-10.3-1.3-14.5-4.3c-1.4-0.8-3.1-0.4-4,1c-0.1,0.1-0.1,0.2-0.2,0.3L30.6,136.3z M144.5,145.8v-13.6
		c5.1,0.3,10.2-0.3,15-1.8L144.5,145.8z M147.8,126.1h-6.4c-1.6,0.1-2.9,1.4-2.9,3.1v16.1h-23.6l-2.2-7c-0.5-1.6-2.1-2.4-3.7-2
		c-6.1,2-12.6,1.9-18.6-0.1c-1.5-0.5-3.2,0.3-3.7,1.8c0,0,0,0.1,0,0.1l-2.3,7.1H73.1l0.5-1.2c0.5-1.3,0-2.7-1.1-3.5
		c-4.1-3-4.1,5.7-20,5.8c-6.3,0-12.4-1.5-18.1-4.3l3.3-6.8c4.5,2.6,9.7,3.8,14.9,3.6c7.6-0.2,10.3-4.3,10.4-8.1
		c0.2-12.3-29.9-6.8-29.6-26.6C33.7,89.7,52.9,83.8,72.4,92l-3.8,6.8c-11.8-5.2-24.5-3.8-24.7,4c0,3.9,4,7.1,12.8,10
		c8.8,2.9,16.3,5.9,17.5,13.6c0.2,1.6,1.7,2.7,3.3,2.5c1.1-0.1,2-0.9,2.4-1.9l13.7-37.7h12.7l16.2,45.5c0.5,1.5,2.2,2.3,3.7,1.8
		c1.2-0.4,2-1.6,2-2.9V89.3c22.4,0,40.7-2.2,40.7,18.6C168.9,119.5,161.2,126.1,147.8,126.1L147.8,126.1z M173.8,115.6
		c3-9.4,0.4-19.6-6.8-26.4c-6.6-4.4-14.5-6.5-22.4-5.9h-19.5c-1.6,0.1-2.9,1.4-2.9,3.1v30.4L111,85.3c-0.4-1.2-1.5-2-2.7-2H91.5
		c-1.2,0-2.3,0.8-2.7,2l-11.9,32.6c-7.2-10-22.8-10.4-27-15c1.7-1,3.6-1.4,5.6-1.1c4.6,0.1,9.1,1.3,13,3.6c1.4,0.7,3.1,0.2,3.8-1.2
		c7.3-13,7.5-12.8,7-14.5c-0.2-0.8-0.8-1.5-1.5-1.8c-15-7.9-38.1-8.9-47.2,5.6V70.4h187L173.8,115.6z"/>
</g>
<g id="_2950657" transform="translate(0.1 227.392)">
	<g id="Grupo_351" transform="translate(0 30.11)">
		<path id="Trazado_287" class="st1" d="M160.2,1269h-33.5c-0.6,0-1.1,0.4-1.1,1c0,0.6,0.4,1.1,1,1.1c0.1,0,0.1,0,0.2,0h33.5
			c0.6,0,1.1-0.4,1.1-1c0-0.6-0.4-1.1-1-1.1C160.3,1269,160.2,1269,160.2,1269z"/>
		<path id="Trazado_288" class="st1" d="M160.2,1277.1h-33.5c-0.6,0-1.1,0.4-1.1,1c0,0.6,0.4,1.1,1,1.1c0.1,0,0.1,0,0.2,0h33.5
			c0.6,0,1.1-0.4,1.1-1c0-0.6-0.4-1.1-1-1.1C160.3,1277.1,160.2,1277.1,160.2,1277.1z"/>
		<path id="Trazado_289" class="st1" d="M160.2,1285.1h-33.5c-0.6,0-1.1,0.4-1.1,1c0,0.6,0.4,1.1,1,1.1c0.1,0,0.1,0,0.2,0h33.5
			c0.6,0,1.1-0.4,1.1-1c0-0.6-0.4-1.1-1-1.1C160.3,1285.1,160.2,1285.1,160.2,1285.1z"/>
		<path id="Trazado_290" class="st1" d="M163.5,1259.8h-40.2c-3.4,0-6.1,2.7-6.1,6.1v25.3c0,3.4,2.7,6.1,6.1,6.1h28.1
			c0.3,0,0.6,0.1,0.8,0.4l9.1,11.5c0.3,0.4,0.9,0.7,1.4,0.7c0.2,0,0.4,0,0.6-0.1c0.7-0.3,1.2-0.9,1.2-1.7v-10.8c2.9-0.5,5-3.1,5-6
			v-25.3C169.6,1262.5,166.9,1259.8,163.5,1259.8z M167.6,1291.2c0,2.2-1.8,4-4,4c-0.6,0-1,0.5-1,1.1v11l-8.6-10.9
			c-0.6-0.7-1.5-1.2-2.4-1.2h-28.1c-2.2,0-4-1.8-4-4v-25.3c0-2.2,1.8-4,4-4h40.2c2.2,0,4,1.8,4,4L167.6,1291.2z"/>
		<path id="Trazado_291" class="st1" d="M113.2,1277.2c-0.7,0.1-1.4,0.5-1.8,1l-7.2,9.2v-9.2c0-0.6-0.5-1-1-1.1
			c-1.8,0-3.3-1.5-3.3-3.4v-22c0-1.9,1.5-3.4,3.4-3.4h35c1.9,0,3.4,1.5,3.4,3.4v4.1c0,0.6,0.4,1.1,1,1.1c0.6,0,1.1-0.4,1.1-1
			c0-0.1,0-0.1,0-0.2v-4.1c0-3-2.5-5.5-5.5-5.5h-35c-3,0-5.5,2.5-5.5,5.5v22c0,2.6,1.8,4.8,4.4,5.4v9.3c0,0.7,0.5,1.4,1.2,1.7
			c0.2,0.1,0.4,0.1,0.6,0.1c0.5,0,1-0.2,1.4-0.7l7.9-10c0.1-0.1,0.3-0.2,0.5-0.3c0.6,0,1-0.5,1-1.1c0-0.6-0.5-1-1.1-1
			C113.3,1277.2,113.2,1277.2,113.2,1277.2L113.2,1277.2z"/>
	</g>
</g>
<path id="_1442912" class="st0" d="M148.8,1287.1c1,1,1,2.5,0,3.5l-16.5,16.5c-1,1-2.5,1-3.5,0l-7.9-7.9c-0.9-1-0.8-2.6,0.2-3.5
	c0.9-0.8,2.3-0.8,3.3,0l6.1,6.1l14.8-14.8C146.2,1286.1,147.8,1286.1,148.8,1287.1z M166.3,1297.1c0,17.4-14.1,31.5-31.5,31.5
	s-31.5-14.1-31.5-31.5c0-17.4,14.1-31.5,31.5-31.5C152.2,1265.6,166.3,1279.7,166.3,1297.1C166.3,1297.1,166.3,1297.1,166.3,1297.1z
	 M161.4,1297.1c0-14.7-11.9-26.6-26.6-26.6c-14.7,0-26.6,11.9-26.6,26.6s11.9,26.6,26.6,26.6
	C149.5,1323.7,161.4,1311.8,161.4,1297.1C161.4,1297.1,161.4,1297.1,161.4,1297.1z"/>
<g id="clipboard" transform="translate(0.804 171.492)">
	<path id="Trazado_292" class="st2" d="M139.3,880.1h3.5c0.5,0,0.8-0.4,0.8-0.8c0-0.5-0.4-0.8-0.8-0.8h-3.5c-0.5,0-0.8,0.4-0.8,0.8
		C138.5,879.7,138.9,880.1,139.3,880.1z"/>
	<path id="Trazado_293" class="st2" d="M123.9,880.1h12.3c0.5,0,0.8-0.4,0.8-0.8c0-0.5-0.4-0.8-0.8-0.8h-12.3
		c-0.5,0-0.8,0.4-0.8,0.8C123.1,879.7,123.4,880.1,123.9,880.1z"/>
	<path id="Trazado_294" class="st2" d="M115.4,880.1h5.2c0.5,0,0.8-0.4,0.8-0.8c0-0.5-0.4-0.8-0.8-0.8h-5.2c-0.5,0-0.8,0.4-0.8,0.8
		C114.6,879.7,115,880.1,115.4,880.1z"/>
	<path id="Trazado_295" class="st2" d="M134.2,885.7h-14.6c-0.5,0-0.8,0.4-0.8,0.8c0,0.5,0.4,0.8,0.8,0.8h14.6
		c0.5,0,0.8-0.4,0.8-0.8C135.1,886.1,134.7,885.7,134.2,885.7z"/>
	<path id="Trazado_296" class="st2" d="M115.4,887.3h1.5c0.5,0,0.8-0.4,0.8-0.8c0-0.5-0.4-0.8-0.8-0.8h-1.5c-0.5,0-0.8,0.4-0.8,0.8
		C114.6,886.9,115,887.3,115.4,887.3z"/>
	<path id="Trazado_297" class="st2" d="M115.4,895h9.8c0.5,0,0.8-0.4,0.8-0.8c0-0.5-0.4-0.8-0.8-0.8h-9.8c-0.5,0-0.8,0.4-0.8,0.8
		C114.6,894.6,115,895,115.4,895z"/>
	<path id="Trazado_298" class="st2" d="M119.4,900.5h-3.9c-0.5,0-0.8,0.4-0.8,0.8c0,0.5,0.4,0.8,0.8,0.8h3.9c0.5,0,0.8-0.4,0.8-0.8
		C120.2,900.9,119.8,900.5,119.4,900.5z"/>
	<path id="Trazado_299" class="st2" d="M163.1,874.5c-1.1-1.6-3.2-2.1-4.9-1l-0.9,0.6l0,0l-1.6,1V863c0-1.9-1.6-3.5-3.5-3.5h-18
		c-1.3-2.8-4.7-4-7.5-2.7c-1.2,0.6-2.1,1.5-2.7,2.7h-18c-1.9,0-3.5,1.6-3.5,3.5c0,0,0,0,0,0v55.9c0,1.9,1.6,3.5,3.5,3.5h46.2
		c1.9,0,3.5-1.6,3.5-3.5v-33.6l7.1-4.7c1.6-1.1,2.1-3.2,1-4.9c0,0,0,0,0,0L163.1,874.5z M132.6,898.5l-1-1.5l27.8-18.3l1,1.5
		L132.6,898.5z M147.9,905.6h-4.3c-1.9,0-3.5,1.6-3.5,3.5v4.2h-29.1c-0.3,0-0.5-0.2-0.5-0.5V869c0-0.3,0.2-0.5,0.5-0.5l0,0h3.7v2.3
		c0,0.5,0.4,0.8,0.8,0.8h27.4c0.5,0,0.8-0.4,0.8-0.8v-2.3h3.7c0.3,0,0.5,0.2,0.5,0.5v11.2l-19.8,13h0l0,0l-0.1,0.1l0,0l-0.1,0.1l0,0
		l0,0.1l0,0l-3.8,6.5l-1.1,0.7c-0.4,0.2-0.5,0.8-0.2,1.1s0.8,0.5,1.1,0.2l0,0l1.1-0.7l7.4-0.9h0.1h0.1h0h0.1h0l0.1,0l0,0l15.1-10
		V905.6z M146.8,907.3l-5.1,5.1v-3.2c0-1,0.8-1.9,1.9-1.9L146.8,907.3z M130.9,899l-4.6,0.6l2.3-4l1.1,1.7L130.9,899z M130.7,895.6
		l-1-1.5l25.6-16.9l0,0l2.2-1.4l1,1.5L130.7,895.6z M152.2,861.1c1,0,1.9,0.8,1.9,1.9v13.2l-4.6,3V869c0-1.2-1-2.2-2.2-2.2h-3.7
		v-2.5c0-0.5-0.4-0.8-0.8-0.8h-8v-1.6c0-0.3,0-0.5-0.1-0.8H152.2z M129.1,857.9c2.2,0,4,1.8,4,4v2.4c0,0.5,0.4,0.8,0.8,0.8h8v4.8
		h-25.8v-4.8h8c0.5,0,0.8-0.4,0.8-0.8v-2.4C125.1,859.7,126.9,857.9,129.1,857.9z M154.1,918.9c0,1-0.8,1.9-1.9,1.9H106
		c-1,0-1.9-0.8-1.9-1.9V863c0-1,0.8-1.9,1.9-1.9h17.5c0,0.3-0.1,0.5-0.1,0.8v1.6h-8.1c-0.5,0-0.8,0.4-0.8,0.8v2.5h-3.7
		c-1.2,0-2.2,1-2.2,2.2v43.8c0,1.2,1,2.2,2.2,2.2h29.4c0.1,0,0.2,0,0.3,0c0.1,0,0.1,0,0.2,0c0.2,0,0.5-0.1,0.6-0.3
		c0.2-0.1,0.4-0.3,0.6-0.4l6.7-6.7c0.5-0.5,0.7-1.1,0.7-1.7v-16.5l4.6-3V918.9z M162,879.2l-0.2,0.1l-2.8-4.3l0.2-0.1
		c0.9-0.6,2-0.3,2.6,0.6c0,0,0,0,0,0l0.8,1.2C163.1,877.5,162.8,878.6,162,879.2C161.9,879.2,161.9,879.2,162,879.2L162,879.2z"/>
</g>
</svg>
