<svg xmlns="http://www.w3.org/2000/svg" xmlns:xlink="http://www.w3.org/1999/xlink" width="100" height="100" viewBox="0 0 100 100">
  <defs>
    <clipPath id="clip-Icon-user-password">
      <rect width="100" height="100"/>
    </clipPath>
  </defs>
  <g id="Icon-user-password" clip-path="url(#clip-Icon-user-password)">
    <g id="_3064494" data-name="3064494" transform="translate(9.005 9)">
      <path id="Trazado_521" data-name="Trazado 521" d="M24.864,28.728a6.864,6.864,0,1,1,6.864-6.864A6.871,6.871,0,0,1,24.864,28.728Zm0-8.58a1.716,1.716,0,1,0,1.716,1.716A1.721,1.721,0,0,0,24.864,20.148Z" transform="translate(43.771 36.48)" fill="#fff" stroke="#fff" stroke-width="1"/>
      <path id="Trazado_522" data-name="Trazado 522" d="M40.882,33.728a2.575,2.575,0,0,1-2.574-2.574V29.438a4.3,4.3,0,0,0-4.29-4.29h-8.58a4.3,4.3,0,0,0-4.29,4.29v1.716a2.574,2.574,0,0,1-5.148,0V29.438A9.446,9.446,0,0,1,25.438,20h8.58a9.446,9.446,0,0,1,9.438,9.438v1.716A2.575,2.575,0,0,1,40.882,33.728Z" transform="translate(38.907 48.64)" fill="#fff" stroke="#fff" stroke-width="1"/>
      <path id="Unión_1" data-name="Unión 1" d="M7.721,68.639A7.732,7.732,0,0,1,0,60.918V31.745a7.732,7.732,0,0,1,7.721-7.721H10.3V17.16a17.16,17.16,0,1,1,34.321,0v6.863h2.572a7.734,7.734,0,0,1,7.723,7.721V60.918a7.734,7.734,0,0,1-7.723,7.721ZM5.147,31.745V60.918a2.579,2.579,0,0,0,2.574,2.574H47.189a2.579,2.579,0,0,0,2.574-2.574V31.745a2.579,2.579,0,0,0-2.574-2.574H7.721A2.579,2.579,0,0,0,5.147,31.745Zm34.321-7.721V17.16a12.012,12.012,0,1,0-24.024,0v6.863Z" transform="translate(-0.005)" fill="#fff" stroke="#fff" stroke-width="1"/>
    </g>
  </g>
</svg>
