<?xml version="1.0" encoding="utf-8"?>
<!-- Generator: Adobe Illustrator 24.1.2, SVG Export Plug-In . SVG Version: 6.00 Build 0)  -->
<svg version="1.1" id="Capa_1" xmlns="http://www.w3.org/2000/svg" xmlns:xlink="http://www.w3.org/1999/xlink" x="0px" y="0px"
	 viewBox="0 0 400 400" style="enable-background:new 0 0 400 400;" xml:space="preserve">
<style type="text/css">
	.st0{fill:#919099;}
</style>
<g id="_977411" transform="translate(-108.383 27.05)">
	<g id="Grupo_471" transform="translate(113.684 0.75)">
		<g id="Grupo_470" transform="translate(0)">
			<path id="Trazado_327" class="st0" d="M212.8,34.5h-46.4c-2.6,0-4.6,2.1-4.6,4.6s2.1,4.6,4.6,4.6h46.4c2.6,0,4.6-2.1,4.6-4.6
				S215.4,34.5,212.8,34.5z"/>
		</g>
	</g>
	<g id="Grupo_473" transform="translate(117.685 0.75)">
		<g id="Grupo_472">
			<path id="Trazado_328" class="st0" d="M241.3,34.5h-4.6c-2.6,0-4.6,2.1-4.6,4.6s2.1,4.6,4.6,4.6h4.6c2.6,0,4.6-2.1,4.6-4.6
				S243.9,34.5,241.3,34.5z"/>
		</g>
	</g>
	<g id="Grupo_475" transform="translate(114.184 12.755)">
		<g id="Grupo_474" transform="translate(0)">
			<path id="Trazado_329" class="st0" d="M194.8,245.5h-11.5c-7.1,0-12.8,5.7-12.8,12.8v2.2c0,7.1,5.7,12.8,12.8,12.8h11.5
				c7.1,0,12.8-5.7,12.8-12.8v-2.2C207.6,251.2,201.9,245.5,194.8,245.5z M198.4,260.5c0,1.9-1.6,3.5-3.5,3.5l0,0h-11.5
				c-1.9,0-3.5-1.6-3.5-3.5l0,0v-2.2c0-1.9,1.6-3.5,3.5-3.5l0,0h11.5c1.9,0,3.5,1.6,3.5,3.5l0,0V260.5z"/>
		</g>
	</g>
	<g id="Grupo_477" transform="translate(110.933)">
		<g id="Grupo_476" transform="translate(0)">
			<path id="Trazado_330" class="st0" d="M254.5,21.3H130c-9.2,0.1-16.7,7.5-16.7,16.7v245.2c0.1,9.2,7.5,16.7,16.7,16.7h124.3
				c9.2-0.1,16.7-7.5,16.7-16.7V38C271.1,28.9,263.7,21.4,254.5,21.3z M261.9,283.2c0,4.1-3.3,7.4-7.4,7.4l0,0H130
				c-4.1,0-7.4-3.3-7.4-7.4l0,0V38c0-4.1,3.3-7.4,7.4-7.4l0,0h124.3c4.1,0,7.4,3.3,7.4,7.4c0,0,0,0,0,0L261.9,283.2L261.9,283.2z"/>
		</g>
	</g>
	<g id="Grupo_479" transform="translate(110.933 1.501)">
		<g id="Grupo_478" transform="translate(0)">
			<path id="Trazado_331" class="st0" d="M266.6,47.7H118.1c-2.6,0-4.6,2.1-4.6,4.6v195c0,2.6,2.1,4.6,4.6,4.6h148.6
				c2.6,0,4.6-2.1,4.6-4.6v-195C271.3,49.8,269.2,47.7,266.6,47.7z M262,242.7H122.7V57H262V242.7z"/>
		</g>
	</g>
</g>
</svg>