<?xml version="1.0" encoding="utf-8"?>
<!-- Generator: Adobe Illustrator 24.1.2, SVG Export Plug-In . SVG Version: 6.00 Build 0)  -->
<svg version="1.1" id="Capa_1" xmlns="http://www.w3.org/2000/svg" xmlns:xlink="http://www.w3.org/1999/xlink" x="0px" y="0px"
	 viewBox="0 0 400 400" style="enable-background:new 0 0 400 400;" xml:space="preserve">
<style type="text/css">
	.st0{fill:#919099;stroke:#FFFFFF;stroke-width:0.1;}
</style>
<path id="_2089181" class="st0" d="M299.3,89.5H103.1c-12.5,0-22.6,10.1-22.6,22.6v135.8c0,12.5,10.1,22.6,22.6,22.6h196.2
	c12.5,0,22.6-10.1,22.6-22.6V112.1C321.9,99.6,311.8,89.5,299.3,89.5z M299.3,104.6c1,0,2,0.2,2.9,0.6l-101,87.5l-101-87.5
	c0.9-0.4,1.9-0.6,2.9-0.6L299.3,104.6z M299.3,255.5H103.1c-4.2,0-7.5-3.4-7.5-7.5V121.1l100.7,87.3c2.8,2.5,7,2.5,9.9,0l100.7-87.3
	v126.8C306.8,252.1,303.4,255.5,299.3,255.5L299.3,255.5z"/>
</svg>
