<?xml version="1.0" encoding="utf-8"?>
<!-- Generator: Adobe Illustrator 24.1.2, SVG Export Plug-In . SVG Version: 6.00 Build 0)  -->
<svg version="1.1" id="Capa_1" xmlns="http://www.w3.org/2000/svg" xmlns:xlink="http://www.w3.org/1999/xlink" x="0px" y="0px"
	 viewBox="0 0 400 400" style="enable-background:new 0 0 400 400;" xml:space="preserve">
<style type="text/css">
	.st0{fill:#187EE6;}
</style>
<g>
	<g>
		<path class="st0" d="M317.7,105.9h-2.1l-26-71.6c-2.8-7.6-7.3-11.5-13.4-11.5H123.9c-6.1,0-10.7,3.9-13.4,11.5l-26,71.6h-2.1
			c-7.6,0-13.8,6.2-13.8,13.8V137c0,7.6,6.2,13.8,13.8,13.8h0.4l13.4,201c1,14.9,12.4,25.3,27.7,25.3h152.3
			c15.1,0,26.7-10.6,27.7-25.3l13.4-201h0.4c7.6,0,13.8-6.2,13.8-13.8v-17.3C331.5,112.1,325.3,105.9,317.7,105.9z M258.2,36.7
			l-9.4,41.5h-97.6l-9.4-41.5H258.2z M290,350.9c-0.4,6-4.9,12.4-13.9,12.4H123.9c-9.6,0-13.5-6.7-13.9-12.4L96.7,150.9h206.7
			L290,350.9z M82.3,137v-17.3h86.5c3.8,0,6.9-3.1,6.9-6.9c0-3.8-3.1-6.9-6.9-6.9H99.1L123.5,39c0.5-1.3,0.8-2,1.1-2.4h3.1L137.9,82
			c1.4,6.1,5.8,10,11.4,10h101.5c5.5,0,10-3.9,11.4-10l10.3-45.4h3.1c0.2,0.4,0.6,1.1,1.1,2.4l24.3,66.8h-69.7
			c-3.8,0-6.9,3.1-6.9,6.9c0,3.8,3.1,6.9,6.9,6.9h86.5l0,17.3H82.3z"/>
		<path class="st0" d="M165.4,216.3h69.2c3.8,0,6.9-3.1,6.9-6.9v-31.1c0-3.8-3.1-6.9-6.9-6.9h-69.2c-3.8,0-6.9,3.1-6.9,6.9v31.1
			C158.5,213.2,161.6,216.3,165.4,216.3z M172.3,185.2h55.4v17.3h-55.4V185.2z"/>
		<path class="st0" d="M200,105.9L200,105.9c-3.8,0-6.9,3.1-6.9,6.9c0,3.8,3.1,6.9,6.9,6.9c3.8,0,6.9-3.1,6.9-6.9
			C206.9,109,203.8,105.9,200,105.9z"/>
	</g>
</g>
</svg>
