<?xml version="1.0" encoding="utf-8"?>
<!-- Generator: Adobe Illustrator 24.2.1, SVG Export Plug-In . SVG Version: 6.00 Build 0)  -->
<svg version="1.1" id="Capa_1" xmlns="http://www.w3.org/2000/svg" xmlns:xlink="http://www.w3.org/1999/xlink" x="0px" y="0px"
	 viewBox="0 0 250 250" style="enable-background:new 0 0 250 250;" xml:space="preserve">
<style type="text/css">
	.st0{fill:#A3CBF5;stroke:#A3CBF5;}
</style>
<g id="Grupo_172" transform="translate(1 1)">
	<g id="Elipse_22">
		<path class="st0" d="M124,234.4c-60.9,0-110.5-49.6-110.5-110.5S63.1,13.4,124,13.4S234.5,63,234.5,123.9S184.9,234.4,124,234.4z
			 M124,26.4c-53.8,0-97.5,43.7-97.5,97.5s43.7,97.5,97.5,97.5s97.5-43.7,97.5-97.5S177.8,26.4,124,26.4z"/>
	</g>
	<g id="Trazado_218">
		<path class="st0" d="M132.8,224.9l0.3-0.1c7.4-2.2,17.2-5.4,24.5-4c7.9-5.3,15.3-11.3,22.1-16.1c-2.5-9.6-6.4-18.8-11.5-27.2
			c-9.6-15.2-26.1-24.7-44-25.4c-17.1,0.6-33,9.3-42.6,23.4c-5.9,8.9-10.3,18.6-13.3,28.9c10.2,8,20.8,15.4,31.9,22.1
			C111.1,226.6,122,226.1,132.8,224.9z"/>
		<path class="st0" d="M100.1,227.1l-0.1-0.1c-11.1-6.7-21.9-14.1-32-22.1l-0.3-0.2l0.1-0.3c2.9-10.3,7.4-20.1,13.3-29.1
			c9.7-14.2,25.8-23.1,43-23.7c18.2,0.7,34.8,10.3,44.5,25.6c5.2,8.5,9.1,17.7,11.6,27.3l0.1,0.3l-0.3,0.2c-2.7,1.9-5.5,4-8.5,6.3
			c-4.4,3.3-8.9,6.7-13.6,9.8l-0.2,0.1l-0.2,0c-6.8-1.3-15.8,1.4-23,3.6l-1.6,0.5c-10.8,1.1-21.8,1.7-32.7,1.7H100.1z M68.9,204.4
			c10,7.9,20.6,15.2,31.5,21.8c10.8,0,21.7-0.6,32.4-1.7l1.5-0.5c7.3-2.2,16.3-4.9,23.3-3.7c4.6-3.1,9.1-6.4,13.4-9.7
			c2.9-2.2,5.6-4.2,8.3-6.1c-2.5-9.4-6.3-18.4-11.4-26.7c-9.5-15.1-25.8-24.5-43.6-25.1c-16.9,0.6-32.7,9.3-42.2,23.2
			C76.2,184.7,71.8,194.3,68.9,204.4z"/>
	</g>
	<g id="Elipse_24">
		<circle class="st0" cx="124" cy="125.9" r="34.9"/>
		<path class="st0" d="M124,161.3c-19.5,0-35.4-15.9-35.4-35.4c0-19.5,15.9-35.4,35.4-35.4c19.5,0,35.4,15.9,35.4,35.4
			C159.4,145.4,143.5,161.3,124,161.3z M124,91.5c-19,0-34.4,15.4-34.4,34.4s15.4,34.4,34.4,34.4s34.4-15.4,34.4-34.4
			S143,91.5,124,91.5z"/>
	</g>
</g>
</svg>
