<?xml version="1.0" encoding="utf-8"?>
<!-- Generator: Adobe Illustrator 24.1.2, SVG Export Plug-In . SVG Version: 6.00 Build 0)  -->
<svg version="1.1" id="Capa_1" xmlns="http://www.w3.org/2000/svg" xmlns:xlink="http://www.w3.org/1999/xlink" x="0px" y="0px"
	 viewBox="0 0 200 200" style="enable-background:new 0 0 200 200;" xml:space="preserve">
<style type="text/css">
	.st0{fill:#8C8B95;}
</style>
<g id="_61689" transform="translate(0.001 -40.522)">
	<path id="Trazado_451" class="st0" d="M191.9,136.8l-84.2-68l-4.7-3.9c-1.8-1.5-4.3-1.5-6.1,0L72.7,85.1v-8.5
		c0-2.6-2.1-4.8-4.8-4.8c0,0,0,0,0,0H49.7c-2.6,0-4.8,2.1-4.8,4.8l0,0V108L8.1,138.1c-2,1.7-2.3,4.7-0.7,6.7s4.7,2.3,6.7,0.7
		l14.4-11.8v78.8c0,2.6,2.1,4.8,4.8,4.8h0h50.9c2.6,0,4.8-2.1,4.8-4.8l0,0v-36.9h22.2v36.9c0,2.6,2.1,4.8,4.8,4.8c0,0,0,0,0,0h50.9
		c2.6,0,4.8-2.1,4.8-4.8l0,0v-80l14.4,11.6c2,1.7,5,1.3,6.7-0.7C194.3,141.4,193.9,138.4,191.9,136.8L191.9,136.8z M54.5,81.3h8.6
		v11.3l-8.6,7L54.5,81.3z M162,126.2v81.5h-41.3v-36.9c0-2.6-2.1-4.8-4.8-4.8c0,0,0,0,0,0H84.2c-2.6,0-4.8,2.1-4.8,4.8l0,0v36.9H38
		v-81.5l18.5-15.4c0,0,43.4-35.5,43.6-36L162,126.2z"/>
</g>
</svg>
