<svg xmlns="http://www.w3.org/2000/svg" xmlns:xlink="http://www.w3.org/1999/xlink" width="100" height="100" viewBox="0 0 100 100">
  <defs>
    <clipPath id="clip-Icon-user-curiculum">
      <rect width="100" height="100"/>
    </clipPath>
  </defs>
  <g id="Icon-user-curiculum" clip-path="url(#clip-Icon-user-curiculum)">
    <g id="Grupo_1406" data-name="Grupo 1406" transform="translate(-32.272 9)">
      <g id="Grupo_1471" data-name="Grupo 1471" transform="translate(48.272)">
        <g id="Grupo_1470" data-name="Grupo 1470">
          <path id="Trazado_525" data-name="Trazado 525" d="M179.458,274.636H137.31a1.212,1.212,0,0,0,0,2.425h42.147a1.212,1.212,0,1,0,0-2.425Z" transform="translate(-121.899 -230.234)" fill="#CCCBCF" stroke="#fff" stroke-width="0.1"/>
          <path id="Trazado_526" data-name="Trazado 526" d="M179.458,322.961H137.31a1.212,1.212,0,1,0,0,2.425h42.147a1.212,1.212,0,1,0,0-2.425Z" transform="translate(-121.899 -270.746)" fill="#CCCBCF" stroke="#fff" stroke-width="0.1"/>
          <path id="Trazado_527" data-name="Trazado 527" d="M179.458,371.286H137.31a1.212,1.212,0,1,0,0,2.425h42.147a1.212,1.212,0,1,0,0-2.425Z" transform="translate(-121.899 -311.258)" fill="#CCCBCF" stroke="#fff" stroke-width="0.1"/>
          <path id="Trazado_528" data-name="Trazado 528" d="M179.458,419.611H137.31a1.212,1.212,0,1,0,0,2.425h42.147a1.212,1.212,0,1,0,0-2.425Z" transform="translate(-121.899 -351.77)" fill="#CCCBCF" stroke="#fff" stroke-width="0.1"/>
          <path id="Trazado_529" data-name="Trazado 529" d="M317.7,175.7H302.208a1.212,1.212,0,0,0,0,2.425H317.7a1.212,1.212,0,1,0,0-2.425Z" transform="translate(-260.137 -147.295)" fill="#CCCBCF" stroke="#fff" stroke-width="0.1"/>
          <path id="Trazado_530" data-name="Trazado 530" d="M317.7,136.06H302.208a1.212,1.212,0,0,0,0,2.425H317.7a1.212,1.212,0,1,0,0-2.425Z" transform="translate(-260.137 -114.063)" fill="#CCCBCF" stroke="#fff" stroke-width="0.1"/>
          <path id="Trazado_531" data-name="Trazado 531" d="M115.441,11.842a4.774,4.774,0,0,0-4.768-4.768h-2.306V4.768A4.773,4.773,0,0,0,103.6,0H53.04a4.774,4.774,0,0,0-4.768,4.768V70.935A4.774,4.774,0,0,0,53.04,75.7h2.306v2.306a4.773,4.773,0,0,0,4.768,4.768h50.558a4.774,4.774,0,0,0,4.768-4.768V11.842Zm-60.095,0V73.278H53.04A2.346,2.346,0,0,1,50.7,70.935V4.768A2.346,2.346,0,0,1,53.04,2.425H103.6a2.346,2.346,0,0,1,2.343,2.343V7.074H60.114A4.774,4.774,0,0,0,55.346,11.842Zm57.67,66.167a2.346,2.346,0,0,1-2.343,2.343H60.114a2.346,2.346,0,0,1-2.343-2.343V11.842A2.346,2.346,0,0,1,60.114,9.5h50.558a2.346,2.346,0,0,1,2.343,2.343V78.009Z" transform="translate(-48.272)" fill="#CCCBCF" stroke="#fff" stroke-width="0.1"/>
        </g>
      </g>
      <path id="_2948035" data-name=" 2948035" d="M148.959,126.378a6.946,6.946,0,0,0-9.823,0l0,0a6.946,6.946,0,0,0-.4,9.391,7.12,7.12,0,0,0,.82.822,6.954,6.954,0,0,0,4.492,1.647h0a6.953,6.953,0,0,0,4.492-1.647,7.088,7.088,0,0,0,.82-.822,6.945,6.945,0,0,0-.4-9.391Zm-8.8,9.589a3.984,3.984,0,0,1,3.827-3.256h.114a3.926,3.926,0,0,1,3.8,3.279,6.076,6.076,0,0,1-7.741-.022Zm3.884-4.125a1.737,1.737,0,1,1,1.737-1.737A1.737,1.737,0,0,1,144.046,131.841Zm4.65,3.368c-.022.024-.041.048-.062.073a4.792,4.792,0,0,0-2.948-3.151,2.605,2.605,0,1,0-3.279,0,4.8,4.8,0,0,0-2.948,3.148c-.022-.024-.041-.048-.062-.073a6.079,6.079,0,0,1,4.649-10h0a6.081,6.081,0,0,1,4.65,10Z" transform="translate(-74.465 -104.239)" fill="#CCCBCF"/>
    </g>
  </g>
</svg>
