<svg xmlns="http://www.w3.org/2000/svg" xmlns:xlink="http://www.w3.org/1999/xlink" width="100" height="100" viewBox="0 0 100 100">
  <defs>
    <clipPath id="clip-Icon-user-registro">
      <rect width="100" height="100"/>
    </clipPath>
  </defs>
  <g id="Icon-user-registro" clip-path="url(#clip-Icon-user-registro)">
    <path id="_2948035" data-name="2948035" d="M73.364,12.591a42.962,42.962,0,0,0-60.773,0,42.961,42.961,0,0,0-2.468,58.087,43.966,43.966,0,0,0,5.07,5.087,43.012,43.012,0,0,0,27.784,10.19h0a43.012,43.012,0,0,0,27.784-10.19,43.968,43.968,0,0,0,5.07-5.087,42.961,42.961,0,0,0-2.468-58.087ZM18.954,71.9A24.641,24.641,0,0,1,42.625,51.758h.705a24.282,24.282,0,0,1,23.5,20.28,37.58,37.58,0,0,1-47.88-.134ZM42.978,46.386A10.744,10.744,0,1,1,53.722,35.641,10.754,10.754,0,0,1,42.978,46.386ZM71.736,67.22c-.134.151-.252.3-.386.453A29.644,29.644,0,0,0,53.118,48.182a16.117,16.117,0,1,0-20.28,0A29.665,29.665,0,0,0,14.606,67.656c-.134-.151-.252-.3-.386-.453A37.6,37.6,0,0,1,42.978,5.372h0A37.613,37.613,0,0,1,71.736,67.22Z" transform="translate(7.5 7.215)" fill="#FFF" stroke="#fff" stroke-width="1"/>
  </g>
</svg>
