<?xml version="1.0" encoding="utf-8"?>
<!-- Generator: Adobe Illustrator 24.1.2, SVG Export Plug-In . SVG Version: 6.00 Build 0)  -->
<svg version="1.1" id="Layer_1" xmlns="http://www.w3.org/2000/svg" xmlns:xlink="http://www.w3.org/1999/xlink" x="0px" y="0px"
	 viewBox="0 0 512 512" style="enable-background:new 0 0 512 512;" xml:space="preserve">
<style type="text/css">
	.st0{fill:#FFFFFF;}
	.st1{fill:url(#SVGID_1_);}
	.st2{opacity:0.2;fill:url(#SVGID_2_);enable-background:new    ;}
	.st3{opacity:0.2;fill:url(#SVGID_3_);enable-background:new    ;}
</style>
<g>
	<g>
		<circle class="st0" cx="81.2" cy="255" r="59.2"/>
		
			<radialGradient id="SVGID_1_" cx="81.2152" cy="257" r="75.0371" gradientTransform="matrix(1 0 0 -1 0 512)" gradientUnits="userSpaceOnUse">
			<stop  offset="1.194235e-03" style="stop-color:#4DA2D0"/>
			<stop  offset="0.3013" style="stop-color:#1E9CD7"/>
			<stop  offset="0.9838" style="stop-color:#00479A"/>
		</radialGradient>
		<circle class="st1" cx="81.2" cy="255" r="55"/>
		
			<linearGradient id="SVGID_2_" gradientUnits="userSpaceOnUse" x1="81.2816" y1="348.3033" x2="80.9397" y2="283.873" gradientTransform="matrix(1 0 0 -0.7885 0 494.728)">
			<stop  offset="0" style="stop-color:#FFFFFF;stop-opacity:0"/>
			<stop  offset="1" style="stop-color:#FFFFFF"/>
		</linearGradient>
		<path class="st2" d="M116.9,230c0-7.1-1.4-13.8-3.8-19.8c-9-6.4-20-10.2-31.9-10.2c-11.9,0-22.9,3.8-31.9,10.2
			c-2.4,5.9-3.8,12.6-3.8,19.8c0,19.8,10.7,36.6,25.4,42.2c3.2-1.4,6.7-2.1,10.3-2.1s7.1,0.8,10.3,2.1
			C106.2,266.6,116.9,249.9,116.9,230z"/>
		
			<linearGradient id="SVGID_3_" gradientUnits="userSpaceOnUse" x1="81.2658" y1="352.2256" x2="80.9192" y2="286.9118" gradientTransform="matrix(1 0 0 -0.7885 0 494.728)">
			<stop  offset="0" style="stop-color:#FFFFFF;stop-opacity:0"/>
			<stop  offset="1" style="stop-color:#FFFFFF"/>
		</linearGradient>
		<path class="st3" d="M116.9,224.5c0-7.1-1.4-11.5-3.8-17.5c-9-6.4-20-10.4-31.9-10.4c-11.9,0-22.9,4.1-31.9,10.4
			c-2.4,5.9-3.8,10.3-3.8,17.5c0,19.8,10.7,39.7,25.4,45.2c3.2-1.4,6.7-2.1,10.3-2.1s7.1,0.8,10.3,2.1
			C106.2,264.3,116.9,244.5,116.9,224.5z"/>
		<path class="st0" d="M86.3,311.4h0.1c4.2-1.3,9.7-3.1,13.9-2.3c4.5-3,8.9-5.8,12.9-8.5c-1.4-5.3-4.2-12.5-6.8-16.2
			c-5.9-8.6-14.9-14.5-25-14.5c-9.7,0-18.3,5.3-24.3,13.3c-2.9,3.8-6,11.4-7.8,17.2c5.4,3.8,11.8,8.5,18.4,11.9
			C73.9,312.4,80.2,312.1,86.3,311.4z"/>
		<circle class="st0" cx="81.2" cy="255" r="19.9"/>
		<g>
			<g>
				<g>
					<path class="st0" d="M193.4,251.1l-5.8-2.4l-0.6-0.2c-4.2-1.6-6.4-2.4-6.4-4.4c0-3,3.5-3.2,5-3.2c4.5,0,7.3,1.3,10.2,3.5
						l0.7,0.5l6.4-8l-0.6-0.6c-4.3-4.1-10.1-6.4-16.1-6.4c-10.3,0-18.1,6.4-18.1,14.8c0,8.3,6.6,12.1,10.4,13.6l6.1,2.5l1.2,0.5
						c3.9,1.6,5.4,2.3,5.4,4.8c0,2-2.1,3.1-5.7,3.1c-3.9,0-8.2-1.6-11.8-4.6l-0.7-0.6l-7.2,8.6l0.7,0.6c5,4.4,11.7,7,18.4,7
						c13.1,0,19-8,19-15.4C203.9,258.2,200.5,253.7,193.4,251.1z"/>
					<path class="st0" d="M217.1,230.7l-15.1,48.6h12.7l2.9-11.1h12.6l2.8,11.1h13.1l-15.1-48.6H217.1z M221,254.9
						c0.8-3.4,1.9-7.3,2.9-11.9c0.8,3.1,1.6,6.5,2.3,9.5l1.5,5.7h-7.5L221,254.9z"/>
					<path class="st0" d="M266.7,230.7h-17.5v48.6h12.4v-15.9h5.1c11.8,0,19.2-6.4,19.2-16.8C286,236.1,279.3,230.7,266.7,230.7z
						 M261.6,240.9h4.5c5.4,0,7.6,1.6,7.6,5.8c0,4.5-2.4,6.6-7.6,6.6h-4.5V240.9z"/>
				</g>
				<g>
					<polygon class="st0" points="289.6,238.8 304.6,238.8 304.6,279.5 313.7,279.5 313.7,238.8 328.7,238.8 328.7,230.9 
						289.6,230.9 					"/>
					<path class="st0" d="M342.8,246.8c-6,0-11.5,2.8-14.1,4.4l-0.7,0.5l3.2,5.7l0.8-0.5c3.8-2.2,7-3.2,9.7-3.2c3.9,0,6.1,1.7,6.6,5
						c-15.1,1.3-21.3,4.8-21.3,12.1c0,5.7,4.5,9.6,11.1,9.6c4.4,0,8.6-2.3,11-4.1l0.5,3.4h6.7v-19.1
						C356.3,251.8,351.3,246.8,342.8,246.8z M348.3,264.3v5.7c-3.1,2.4-5.8,3.6-8.6,3.6c-1.5,0-5.1-0.3-5.1-3.4
						C334.8,267.9,336.3,265.2,348.3,264.3z"/>
					<path class="st0" d="M383.1,272.2c-1.9,0.8-3.5,1.2-5.1,1.2c-3.1,0-4.8-1.6-4.8-5v-34.5h-18.3v6.7h10.4V268
						c0,7.8,4.2,12.2,11.4,12.2c3.5,0,5.6-0.6,8.7-1.9l0.8-0.3l-2.1-6.3L383.1,272.2z"/>
					<path class="st0" d="M400.8,246.8c-10.7,0-16.3,8.6-16.3,16.7c0,10.1,7,16.8,17.3,16.8c5.4,0,9.6-2.1,12.3-3.7l0.7-0.5l-3-5.4
						l-0.8,0.5c-2.9,1.7-5.4,2.5-8.3,2.5c-5.6,0-9-2.7-10-7.5h22.7l0.1-0.8c0.1-0.8,0.3-2.2,0.3-3.5
						C415.5,252.7,409.7,246.8,400.8,246.8z M400.9,253.3c5,0,6.7,3.1,7.2,6.5h-15.5C393.7,255.8,396.9,253.3,400.9,253.3z"/>
					<path class="st0" d="M435.7,246.8c-4.6,0-8.1,2.3-10.7,4.8l-0.5-3.9h-6.7v32h8v-21.3c2.8-2.9,4.9-4.3,7.8-4.3
						c3.2,0,5.3,1.2,5.3,6.8v18.8h8V260C446.9,253.8,445,246.8,435.7,246.8z"/>
					<path class="st0" d="M478.8,271.9l-0.9,0.3c-2.3,0.8-4.4,1.3-6.6,1.3c-4.6,0-6.4-1.9-6.4-6.8v-12.5h14.3v-6.7h-14.3v-9.6h-6.8
						l-0.8,9.6l-8.7,0.3v6.4h8.3v12.4c0,9,4.4,13.6,13,13.6c4.1,0,7.3-0.9,9.8-1.9l0.8-0.2L478.8,271.9z"/>
				</g>
			</g>
			<g>
				<path class="st0" d="M481.6,250.7c0-2.3,1.7-3.9,3.7-3.9c2,0,3.7,1.6,3.7,3.9c0,2.3-1.7,3.9-3.7,3.9
					C483.3,254.7,481.6,253,481.6,250.7z M488.4,250.7c0-2-1.4-3.4-3-3.4s-3.1,1.4-3.1,3.4s1.4,3.4,3.1,3.4S488.4,252.6,488.4,250.7
					z M483.9,248.5h1.4c0.8,0,1.5,0.3,1.5,1.3c0,0.5-0.3,1-0.8,1.2l1,1.7h-0.8l-0.8-1.5h-0.9v1.5h-0.7v-4.2H483.9z M485.2,250.6
					c0.6,0,1-0.2,1-0.7c0-0.5-0.2-0.8-0.9-0.8h-0.7v1.5H485.2z"/>
			</g>
		</g>
	</g>
	<g>
		<g>
			<path class="st0" d="M187.8,306.1v0.9h-7.1v-10.1h7v0.9h-5.9v3.6h5.2v0.9h-5.2v3.7L187.8,306.1L187.8,306.1z"/>
			<path class="st0" d="M198,302.6v4.4h-1v-4.3c0-1.6-0.8-2.4-2.3-2.4c-1.6,0-2.7,1-2.7,2.8v3.9h-1v-7.6h0.9v1.4
				c0.6-0.9,1.6-1.5,2.9-1.5C196.7,299.4,198,300.4,198,302.6z"/>
			<path class="st0" d="M213.3,296.3V307h-0.9v-1.5c-0.6,1-1.6,1.6-2.9,1.6c-2.2,0-3.8-1.6-3.8-3.8c0-2.3,1.6-3.8,3.8-3.8
				c1.2,0,2.2,0.6,2.9,1.5v-4.5h0.9V296.3z M212.3,303.2c0-1.7-1.2-3-2.8-3c-1.6,0-2.8,1.2-2.8,3c0,1.7,1.2,3,2.8,3
				C211.1,306.1,212.3,304.9,212.3,303.2z"/>
			<path class="st0" d="M216.3,303.2c0-2.2,1.6-3.8,3.8-3.8s3.8,1.6,3.8,3.8s-1.6,3.8-3.8,3.8C218,307,216.3,305.4,216.3,303.2z
				 M222.9,303.2c0-1.7-1.2-3-2.8-3c-1.6,0-2.8,1.2-2.8,3c0,1.7,1.2,3,2.8,3C221.8,306.1,222.9,304.9,222.9,303.2z"/>
			<path class="st0" d="M233.9,302.6v4.4h-1v-4.3c0-1.6-0.8-2.4-2.3-2.4c-1.6,0-2.7,1-2.7,2.8v3.9h-1v-7.6h0.9v1.4
				c0.6-0.9,1.6-1.5,2.9-1.5C232.7,299.4,233.9,300.4,233.9,302.6z"/>
			<path class="st0" d="M244.6,296.3V307h-0.9v-1.5c-0.6,1-1.6,1.6-2.9,1.6c-2.2,0-3.8-1.6-3.8-3.8c0-2.3,1.6-3.8,3.8-3.8
				c1.2,0,2.2,0.6,2.9,1.5v-4.5h0.9V296.3z M243.6,303.2c0-1.7-1.2-3-2.8-3s-2.8,1.2-2.8,3c0,1.7,1.2,3,2.8,3
				C242.4,306.1,243.6,304.9,243.6,303.2z"/>
			<path class="st0" d="M255,303.6h-6.4c0.1,1.6,1.3,2.7,3,2.7c0.9,0,1.7-0.3,2.3-1l0.6,0.7c-0.7,0.8-1.7,1.3-2.9,1.3
				c-2.3,0-3.9-1.6-3.9-3.8c0-2.2,1.6-3.8,3.7-3.8s3.7,1.6,3.7,3.8C255,303.3,255,303.4,255,303.6z M248.7,302.7h5.4
				c-0.1-1.5-1.2-2.5-2.7-2.5C249.8,300.2,248.8,301.2,248.7,302.7z"/>
			<path class="st0" d="M266.6,306.6c-0.3,0.3-1,0.6-1.6,0.6c-1.4,0-2.2-0.8-2.2-2.2v-4.6h-1.4v-0.8h1.4v-1.6h1v1.6h2.3v0.8h-2.3
				v4.5c0,0.9,0.5,1.4,1.3,1.4c0.5,0,0.8-0.1,1.2-0.3L266.6,306.6z"/>
			<path class="st0" d="M276.2,299.4v7.6h-0.9v-1.4c-0.6,0.9-1.5,1.5-2.8,1.5c-2,0-3.2-1-3.2-3.2v-4.4h1v4.3c0,1.6,0.8,2.4,2.3,2.4
				c1.6,0,2.5-1,2.5-2.8v-3.9h1V299.4z"/>
			<path class="st0" d="M291.5,296.3V307h-0.9v-1.5c-0.6,1-1.6,1.6-2.9,1.6c-2.2,0-3.8-1.6-3.8-3.8c0-2.3,1.6-3.8,3.8-3.8
				c1.2,0,2.2,0.6,2.9,1.5v-4.5h0.9V296.3z M290.6,303.2c0-1.7-1.2-3-2.8-3c-1.6,0-2.8,1.2-2.8,3c0,1.7,1.2,3,2.8,3
				C289.3,306.1,290.6,304.9,290.6,303.2z"/>
			<path class="st0" d="M302,303.6h-6.4c0.1,1.6,1.3,2.7,3,2.7c0.9,0,1.7-0.3,2.3-1l0.6,0.7c-0.7,0.8-1.7,1.3-2.9,1.3
				c-2.3,0-3.9-1.6-3.9-3.8c0-2.2,1.6-3.8,3.7-3.8c2.1,0,3.7,1.6,3.7,3.8C302,303.3,302,303.4,302,303.6z M295.6,302.7h5.4
				c-0.1-1.5-1.2-2.5-2.7-2.5C296.8,300.2,295.7,301.2,295.6,302.7z"/>
			<path class="st0" d="M303.8,306.1l0.5-0.8c0.6,0.5,1.6,0.8,2.7,0.8c1.4,0,2.1-0.5,2.1-1.3c0-2-5-0.5-5-3.5c0-1.3,1-2.2,3-2.2
				c0.9,0,2.1,0.2,2.7,0.7l-0.5,0.8c-0.7-0.5-1.5-0.7-2.2-0.7c-1.4,0-2,0.6-2,1.3c0,2.1,5,0.5,5,3.5c0,1.3-1.2,2.2-3.1,2.2
				C305.7,307,304.5,306.7,303.8,306.1z"/>
			<path class="st0" d="M316.9,306.6c-0.3,0.3-1,0.6-1.6,0.6c-1.4,0-2.2-0.8-2.2-2.2v-4.6h-1.4v-0.8h1.4v-1.6h1v1.6h2.3v0.8h-2.3
				v4.5c0,0.9,0.5,1.4,1.3,1.4c0.5,0,0.8-0.1,1.2-0.3L316.9,306.6z"/>
			<path class="st0" d="M325.4,302.3v4.8h-0.9v-1.2c-0.5,0.8-1.4,1.3-2.7,1.3c-1.7,0-2.8-0.9-2.8-2.2c0-1.2,0.7-2.2,2.9-2.2h2.4
				v-0.5c0-1.3-0.7-2-2.2-2c-0.9,0-1.9,0.3-2.5,0.9l-0.5-0.8c0.8-0.7,1.9-1,3.1-1C324.2,299.4,325.4,300.3,325.4,302.3z
				 M324.3,304.7v-1.3h-2.4c-1.5,0-2,0.6-2,1.4c0,0.9,0.7,1.4,2,1.4C323.1,306.2,324,305.8,324.3,304.7z"/>
			<path class="st0" d="M328.3,303.2c0-2.3,1.6-3.8,3.9-3.8c1.3,0,2.3,0.5,3,1.5l-0.8,0.6c-0.5-0.8-1.3-1.2-2.2-1.2
				c-1.6,0-2.9,1.2-2.9,3c0,1.7,1.2,3,2.9,3c0.9,0,1.7-0.3,2.2-1.2l0.8,0.5c-0.6,0.9-1.7,1.5-3,1.5
				C329.9,307,328.3,305.4,328.3,303.2z"/>
			<path class="st0" d="M343.8,302.3v4.8h-0.9v-1.2c-0.5,0.8-1.4,1.3-2.7,1.3c-1.7,0-2.8-0.9-2.8-2.2c0-1.2,0.7-2.2,2.9-2.2h2.4
				v-0.5c0-1.3-0.7-2-2.2-2c-0.9,0-1.9,0.3-2.5,0.9l-0.5-0.8c0.8-0.7,1.9-1,3.1-1C342.6,299.4,343.8,300.3,343.8,302.3z
				 M342.8,304.7v-1.3h-2.4c-1.5,0-2,0.6-2,1.4c0,0.9,0.7,1.4,2,1.4C341.5,306.2,342.4,305.8,342.8,304.7z"/>
			<path class="st0" d="M346.5,306.1l0.5-0.8c0.6,0.5,1.6,0.8,2.7,0.8c1.4,0,2.1-0.5,2.1-1.3c0-2-5-0.5-5-3.5c0-1.3,1-2.2,3-2.2
				c0.9,0,2.1,0.2,2.7,0.7l-0.5,0.8c-0.7-0.5-1.5-0.7-2.2-0.7c-1.4,0-2,0.6-2,1.3c0,2.1,5,0.5,5,3.5c0,1.3-1.2,2.2-3.1,2.2
				C348.2,307,347,306.7,346.5,306.1z"/>
		</g>
	</g>
</g>
</svg>
