<?xml version="1.0" encoding="utf-8"?>
<!-- Generator: Adobe Illustrator 24.1.2, SVG Export Plug-In . SVG Version: 6.00 Build 0)  -->
<svg version="1.1" id="Capa_1" xmlns="http://www.w3.org/2000/svg" xmlns:xlink="http://www.w3.org/1999/xlink" x="0px" y="0px"
	 viewBox="0 0 250 250" style="enable-background:new 0 0 250 250;" xml:space="preserve">
<style type="text/css">
	.st0{fill:url(#Elipse_53_1_);}
	.st1{opacity:0.5;}
	.st2{fill:#FFFFFF;}
</style>
<g>
	<linearGradient id="Elipse_53_1_" gradientUnits="userSpaceOnUse" x1="52.2759" y1="39.6282" x2="194.8648" y2="207.0152">
		<stop  offset="0" style="stop-color:#4257A6"/>
		<stop  offset="0.225" style="stop-color:#B82790"/>
		<stop  offset="0.554" style="stop-color:#CA217C"/>
		<stop  offset="0.699" style="stop-color:#ED273D"/>
		<stop  offset="1" style="stop-color:#FED46E"/>
	</linearGradient>
	<circle id="Elipse_53" class="st0" cx="125" cy="125" r="100.1"/>
	<g id="_1384031" transform="translate(521 500)" class="st1">
		<path id="Trazado_324" class="st2" d="M-346.5-393.9c-0.1-4.4-0.9-8.8-2.5-12.9c-2.8-7.1-8.4-12.8-15.5-15.5
			c-4.1-1.5-8.5-2.4-12.9-2.5c-5.7-0.3-7.5-0.3-21.9-0.3s-16.2,0.1-21.9,0.3c-4.4,0.1-8.8,0.9-12.9,2.5c-3.5,1.3-6.7,3.4-9.4,6.1
			c-2.7,2.6-4.8,5.9-6.1,9.4c-1.6,4.1-2.4,8.5-2.5,12.9c-0.3,5.7-0.3,7.5-0.3,21.9s0.1,16.2,0.3,21.9c0.1,4.4,0.9,8.8,2.5,12.9
			c2.8,7.1,8.4,12.8,15.5,15.5c4.1,1.5,8.5,2.4,12.9,2.5c5.6,0.3,7.5,0.3,21.9,0.3s16.2-0.1,21.9-0.3c4.4-0.1,8.8-0.9,12.9-2.5
			c7.1-2.8,12.8-8.4,15.5-15.5c1.5-4.1,2.4-8.5,2.5-12.9c0.3-5.6,0.3-7.5,0.3-21.9S-346.3-388.2-346.5-393.9z M-356-350.5
			c0,3.4-0.7,6.7-1.8,9.8c-1.8,4.6-5.4,8.3-10.1,10.1c-3.2,1.2-6.5,1.8-9.8,1.8c-5.6,0.3-7.3,0.3-21.4,0.3s-15.9-0.1-21.4-0.3
			c-3.4,0-6.7-0.6-9.8-1.8c-2.3-0.8-4.4-2.2-6.1-4c-1.8-1.7-3.1-3.8-4-6.1c-1.2-3.2-1.8-6.5-1.8-9.8c-0.3-5.6-0.3-7.3-0.3-21.4
			c0-14.2,0.1-15.9,0.3-21.4c0-3.4,0.6-6.7,1.8-9.8c0.8-2.3,2.2-4.4,4-6.1c1.7-1.8,3.8-3.1,6.1-4c3.2-1.2,6.5-1.8,9.9-1.8
			c5.6-0.3,7.3-0.3,21.4-0.3s15.9,0.1,21.4,0.3c3.4,0,6.7,0.7,9.8,1.8c2.3,0.8,4.4,2.2,6.1,4c1.8,1.7,3.1,3.8,4,6.1
			c1.2,3.2,1.8,6.5,1.8,9.8c0.3,5.6,0.3,7.3,0.3,21.4C-355.7-357.8-355.8-356.1-356-350.5z"/>
		<path id="Trazado_325" class="st2" d="M-399.2-399.2c-15.1,0-27.3,12.2-27.3,27.3c0,15.1,12.2,27.3,27.3,27.3
			c15.1,0,27.3-12.2,27.3-27.3C-372-387-384.2-399.2-399.2-399.2z M-399.2-354.3c-9.8,0-17.7-7.9-17.7-17.7
			c0-9.8,7.9-17.7,17.7-17.7c9.8,0,17.7,7.9,17.7,17.7C-381.6-362.2-389.5-354.3-399.2-354.3C-399.2-354.3-399.2-354.3-399.2-354.3z
			"/>
		<path id="Trazado_326" class="st2" d="M-364.6-400.3c0,3.5-2.8,6.4-6.4,6.4c-3.5,0-6.4-2.8-6.4-6.4c0-3.5,2.8-6.4,6.4-6.4l0,0
			C-367.4-406.7-364.6-403.8-364.6-400.3z"/>
	</g>
</g>
</svg>
