<?xml version="1.0" encoding="utf-8"?>
<!-- Generator: Adobe Illustrator 24.1.2, SVG Export Plug-In . SVG Version: 6.00 Build 0)  -->
<svg version="1.1" id="Capa_1" xmlns="http://www.w3.org/2000/svg" xmlns:xlink="http://www.w3.org/1999/xlink" x="0px" y="0px"
	 viewBox="0 0 250 250" style="enable-background:new 0 0 250 250;" xml:space="preserve">
<style type="text/css">
	.st0{fill:#1485D1;}
	.st1{fill:#13639A;}
</style>
<g>
	<circle id="Elipse_50" class="st0" cx="125" cy="125" r="100.1"/>
	<path id="_1384088" class="st1" d="M108.1,162.6H93.6v-46.8h14.5V162.6z M109.6,100.9c0-4.7-3.8-8.5-8.5-8.5s-8.5,3.8-8.5,8.5
		c0,4.7,3.8,8.5,8.5,8.5c0,0,0,0,0,0C105.8,109.4,109.6,105.5,109.6,100.9C109.6,100.9,109.6,100.9,109.6,100.9L109.6,100.9z
		 M162.4,136.9c0-12.6-2.7-21.9-17.3-21.9c-5.6-0.3-10.8,2.4-13.7,7.2l0,0v-6.4h-14.1v46.8h14.1v-23.2c0-6.1,1.6-12,9.1-12
		c7.4,0,7.7,7,7.7,12.4v22.9h14.3V136.9z M181.1,168.6V87.4c0-6.9-5.6-12.4-12.4-12.4H87.4c-6.9,0-12.4,5.6-12.4,12.4v81.3
		c0,6.9,5.6,12.4,12.4,12.4h81.3C175.5,181.1,181.1,175.5,181.1,168.6z M168.6,83.2c2.3,0,4.1,1.9,4.1,4.1l0,0v81.3
		c0,2.3-1.9,4.1-4.1,4.1l0,0H87.4c-2.3,0-4.1-1.9-4.1-4.1l0,0V87.4c0-2.3,1.9-4.1,4.1-4.1H168.6z"/>
</g>
</svg>
