<?xml version="1.0" encoding="utf-8"?>
<!-- Generator: Adobe Illustrator 24.1.2, SVG Export Plug-In . SVG Version: 6.00 Build 0)  -->
<svg version="1.1" id="Capa_1" xmlns="http://www.w3.org/2000/svg" xmlns:xlink="http://www.w3.org/1999/xlink" x="0px" y="0px"
	 viewBox="0 0 250 250" style="enable-background:new 0 0 250 250;" xml:space="preserve">
<style type="text/css">
	.st0{opacity:0.1;}
</style>
<g id="Grupo_533" transform="translate(-283 -376)">
	<g id="_904861" transform="translate(326.474 403.042)" class="st0">
		<g id="Grupo_531" transform="translate(0 5.486)">
			<g id="Grupo_530" transform="translate(0 0)">
				<path id="Trazado_335" d="M93.8,58.7h3.5V48.2h-14v14.9c0,1-0.8,1.8-1.8,1.8s-1.8-0.8-1.8-1.8V48.2h-14v10.5h3.5v4.4l0,0
					c0,6.8,5.5,12.3,12.3,12.3s12.3-5.5,12.3-12.3V58.7z M93.3,54.7h-3.5v8.5c0,4.5-3.7,8.2-8.2,8.2c-4.5,0-8.2-3.7-8.2-8.2v-8.5
					h-3.5v-2.4h5.9v10.8c0,3.2,2.6,5.8,5.8,5.8c3.2,0,5.8-2.6,5.8-5.8c0,0,0,0,0,0V52.3h5.9L93.3,54.7z"/>
				<rect id="Rectángulo_278" x="29.4" y="95.5" width="4.1" height="4.1"/>
				<rect id="Rectángulo_279" x="29.4" y="109" width="4.1" height="19.3"/>
				<rect id="Rectángulo_280" x="29.4" y="102.3" width="4.1" height="4.1"/>
				<rect id="Rectángulo_281" x="62.6" y="95.5" width="4.1" height="4.1"/>
				<rect id="Rectángulo_282" x="62.6" y="102.3" width="4.1" height="4.1"/>
				<rect id="Rectángulo_283" x="62.6" y="109" width="4.1" height="19.3"/>
				<rect id="Rectángulo_284" x="97.2" y="109" width="4.1" height="19.3"/>
				<rect id="Rectángulo_285" x="97.2" y="102.3" width="4.1" height="4.1"/>
				<rect id="Rectángulo_286" x="97.2" y="95.5" width="4.1" height="4.1"/>
				<rect id="Rectángulo_287" x="130.6" y="95.5" width="4.1" height="4.1"/>
				<rect id="Rectángulo_288" x="130.6" y="102.3" width="4.1" height="4.1"/>
				<rect id="Rectángulo_289" x="130.6" y="109" width="4.1" height="19.3"/>
				<path id="Trazado_336" d="M148.2,148.5v-7.7h-2.6l-1.3-9.1H141V91.7h3.4l1.3-9.1h5.1L81.5,24.7L12.3,82.6h5.1l1.3,9.1h3.4v40.1
					h-3.4l-1.3,9.1h-2.6v7.7h-2.6v11.8h138.6v-11.8L148.2,148.5L148.2,148.5z M141.6,140.8h-19l0.7-5h17.5L141.6,140.8z M55.4,87.6
					l-0.7-5h19l-0.7,5H55.4z M69,91.7v40h-9.6V91.7L69,91.7L69,91.7z M55.3,91.7v40h-3.4l-1.3,9.1h-6l-1.3-9.1h-3.4V91.7h3.4
					l1.3-9.1h6l1.3,9.1L55.3,91.7L55.3,91.7z M55.4,135.8h17.5l0.7,5h-19L55.4,135.8z M73,131.7V91.7h3.4l1.3-9.1h7.5l1.3,9.1H90
					v40.1h-3.4l-1.3,9.1h-7.5l-1.3-9.1L73,131.7z M90.1,87.6l-0.7-5h19l-0.7,5H90.1z M103.7,91.7v40h-9.6V91.7L103.7,91.7
					L103.7,91.7z M90.1,135.8h17.5l0.7,5h-19L90.1,135.8z M107.8,131.7V91.7h3.4l1.3-9.1h6l1.3,9.1h3.4v40.1h-3.4l-1.3,9.1h-6
					l-1.3-9.1H107.8z M127.3,131.7V91.7h9.6v40.1H127.3z M140.8,87.6h-17.5l-0.7-5h19L140.8,87.6z M81.5,30l58.1,48.6H23.5L81.5,30z
					 M21.5,82.6h19l-0.7,5H22.2L21.5,82.6z M35.8,91.7v40.1h-9.6V91.7C26.1,91.7,35.8,91.7,35.8,91.7z M22.2,135.8h17.5l0.7,5h-19
					L22.2,135.8z M18.9,144.8h125.3v3.7H18.9L18.9,144.8z M146.8,156.2H16.3v-3.7h130.4L146.8,156.2z"/>
				<path id="Trazado_337" d="M81.5,40l7.7,6.4l2.6-3.1l-10.3-8.6l-10.3,8.6l2.6,3.1L81.5,40z"/>
				<path id="Trazado_338" d="M102,51.8L99.4,55L119,71.3H93.3v4.1h36.8L102,51.8z"/>
				<path id="Trazado_339" d="M63.6,55L61,51.8L32.9,75.4h36.8v-4.1H44.1L63.6,55z"/>
			</g>
		</g>
	</g>
</g>
</svg>
