<?xml version="1.0" encoding="utf-8"?>
<!-- Generator: Adobe Illustrator 24.1.2, SVG Export Plug-In . SVG Version: 6.00 Build 0)  -->
<svg version="1.1" id="Capa_1" xmlns="http://www.w3.org/2000/svg" xmlns:xlink="http://www.w3.org/1999/xlink" x="0px" y="0px"
	 viewBox="0 0 250 250" style="enable-background:new 0 0 250 250;" xml:space="preserve">
<style type="text/css">
	.st0{fill:#8F8E97;stroke:#8C8B95;stroke-width:0.1;}
	.st1{fill:#8C8B95;}
	.st2{fill:#8C8B95;stroke:#8C8B95;stroke-width:0.2;}
	.st3{fill:#8C8B95;stroke:#8C8B95;stroke-width:0.1;}
</style>
<g id="award" transform="translate(0.105 38.013)">
	<g id="Grupo_336" transform="translate(2.608 50.697)">
		<g id="Grupo_335" transform="translate(0 0)">
			<path id="Trazado_276" class="st0" d="M178.7-9.7H65.9c-1.6,0.1-2.8,1.5-2.7,3.1c0.1,1.4,1.3,2.6,2.7,2.7h112.8
				c1.6-0.1,2.8-1.5,2.7-3.1C181.3-8.5,180.2-9.6,178.7-9.7z"/>
		</g>
	</g>
	<g id="Grupo_338" transform="translate(2.608 52.772)">
		<g id="Grupo_337" transform="translate(0 0)">
			<path id="Trazado_277" class="st0" d="M178.7,19.8H65.9c-1.6,0.1-2.8,1.5-2.7,3.1c0.1,1.4,1.3,2.6,2.7,2.7h112.8
				c1.6-0.1,2.8-1.5,2.7-3.1C181.3,21.1,180.2,19.9,178.7,19.8z"/>
		</g>
	</g>
	<g id="Grupo_340" transform="translate(5.035 54.119)">
		<g id="Grupo_339" transform="translate(0 0)">
			<path id="Trazado_278" class="st0" d="M139.3,39h-38.9c-1.6,0.1-2.8,1.5-2.7,3.1c0.1,1.4,1.3,2.6,2.7,2.7h38.9
				c1.6-0.1,2.8-1.5,2.7-3.1C141.9,40.3,140.7,39.1,139.3,39z"/>
		</g>
	</g>
	<g id="Grupo_342" transform="translate(4.489 51.73)">
		<g id="Grupo_341" transform="translate(0 0)">
			<path id="Trazado_279" class="st0" d="M176.8,5H92.6c-1.6,0.1-2.8,1.5-2.7,3.1c0.1,1.4,1.3,2.6,2.7,2.7h84.2
				c1.6-0.1,2.8-1.5,2.7-3.1C179.4,6.2,178.3,5.1,176.8,5z"/>
		</g>
	</g>
	<g id="Grupo_344" transform="translate(2.608 51.73)">
		<g id="Grupo_343">
			<path id="Trazado_280" class="st0" d="M81,5H65.8c-1.6-0.1-3,1.1-3.1,2.7c-0.1,1.6,1.1,3,2.7,3.1c0.1,0,0.3,0,0.4,0H81
				c1.6,0.1,3-1.1,3.1-2.7c0.1-1.6-1.1-3-2.7-3.1C81.3,5,81.1,5,81,5z"/>
		</g>
	</g>
	<g id="Grupo_346" transform="translate(0.914 49.396)">
		<g id="Grupo_345" transform="translate(0 0)">
			<path id="Trazado_281" class="st0" d="M208.1-13.3c-0.7-0.7-1.6-1-2.5-1l0,0c-5.9,0-10.7-4.6-11-10.5c-0.1-1.9-1.7-3.4-3.6-3.4
				H56.3c-1.9,0-3.5,1.5-3.6,3.4c-0.3,5.7-4.8,10.2-10.5,10.5c-1.9,0.1-3.4,1.7-3.4,3.6v75.1c0,1.9,1.5,3.5,3.4,3.6
				c5.7,0.3,10.2,4.8,10.5,10.5c0.1,1.9,1.7,3.4,3.6,3.4H142c1.6-0.1,2.8-1.5,2.7-3.1c-0.1-1.4-1.3-2.6-2.7-2.7H58.3
				c-1.2-7-6.7-12.5-13.6-13.6V-8.8c7-1.2,12.5-6.7,13.6-13.6H189c1.3,7.2,7.1,12.8,14.3,13.7v49.4c0.1,1.6,1.5,2.8,3.1,2.7
				c1.4-0.1,2.6-1.3,2.7-2.7v-51.4C209.1-11.7,208.8-12.7,208.1-13.3z"/>
		</g>
	</g>
	<g id="Grupo_348" transform="translate(0 48.445)">
		<g id="Grupo_347" transform="translate(0 0)">
			<path id="Trazado_282" class="st0" d="M215.9-41.8H33.9c-4.5,0-8.1,3.6-8.1,8.1V89.2c0,4.5,3.6,8.1,8.1,8.1h122l-4.3,9
				c-0.8,1.7-0.1,3.8,1.6,4.6c0.6,0.3,1.4,0.4,2,0.3l8-1.3l4.5,7.4c0.6,1,1.7,1.7,2.9,1.7h0.2c1.3-0.1,2.4-0.8,2.9-2l7.8-16.3
				l7.8,16.3c0.5,1.1,1.7,1.9,2.9,2h0.2c1.2,0,2.3-0.6,2.9-1.7l4.5-7.4l8,1.3c1.9,0.3,3.6-1,4-2.8c0.1-0.7,0-1.4-0.3-2l-4.3-9h8.7
				c4.4,0,8-3.6,8-8.1V-33.7C224-38.2,220.4-41.8,215.9-41.8z M170.4,110.5l-3-5c-0.7-1.2-2.1-1.8-3.5-1.6l-5.2,0.8l5.4-11.4
				c2.2,2.2,5.3,3.3,8.4,3c1.1-0.1,2.2,0.2,3,0.8c0.3,0.2,0.6,0.4,0.9,0.6L170.4,110.5z M182.2,93.3L182.2,93.3
				c-0.4,0.1-0.9,0.1-1.3,0l0,0c-0.7-0.1-1.4-0.4-1.9-0.8c-1.7-1.2-3.8-1.9-6-1.9c-0.3,0-0.7,0-1,0c-1.9,0.2-3.8-0.9-4.6-2.6
				c-0.4-0.8-0.8-1.5-1.3-2.2v-0.1l-0.2-0.1l-0.1-0.1c-1-1.1-2.2-2-3.5-2.6c-1.8-0.8-2.8-2.6-2.6-4.6c0.2-2.5-0.4-4.9-1.9-7
				c-1.1-1.6-1.1-3.7,0-5.3c1.4-2,2.1-4.5,1.9-7c-0.2-1.9,0.9-3.8,2.6-4.6c2.3-1,4.1-2.8,5.1-5.1c0.8-1.8,2.6-2.8,4.6-2.6
				c2.5,0.2,4.9-0.4,7-1.9c1.6-1.1,3.7-1.1,5.3,0c2,1.4,4.5,2.1,7,1.9c1.9-0.2,3.8,0.9,4.6,2.6c1,2.3,2.8,4.1,5.1,5.1
				c1.8,0.8,2.8,2.6,2.6,4.6c-0.2,2.5,0.4,4.9,1.9,7c1.1,1.6,1.1,3.7,0,5.3c-1.4,2-2.1,4.5-1.9,7c0.2,1.9-0.9,3.8-2.6,4.6
				c-1.3,0.6-2.5,1.5-3.5,2.6l-0.1,0.1v0.1l-0.1,0.1c-0.5,0.7-1,1.4-1.3,2.1c-0.8,1.8-2.6,2.8-4.6,2.6c-2.5-0.2-4.9,0.4-7,1.9
				C183.6,92.8,183,93.1,182.2,93.3L182.2,93.3z M199.2,103.9c-1.4-0.2-2.8,0.4-3.5,1.6l-3,5l-6.1-12.7c0.3-0.2,0.6-0.4,0.9-0.6
				c0.9-0.6,2-0.9,3-0.8c3.1,0.3,6.2-0.8,8.4-3l5.4,11.4L199.2,103.9z M218.2,89.2c0,1.2-1,2.3-2.3,2.3h-11.4l-1.5-3.1l0.2-0.1
				c4-1.8,6.4-6,6-10.4c-0.1-1.1,0.2-2.2,0.8-3c2.6-3.6,2.6-8.4,0-12c-0.6-0.9-0.9-2-0.8-3c0.4-4.4-2-8.5-6-10.4
				c-1-0.5-1.8-1.3-2.2-2.2c-1.8-4-6-6.4-10.4-6c-1.1,0.1-2.2-0.2-3-0.8c-3.6-2.6-8.4-2.6-12,0c-0.9,0.6-2,0.9-3,0.8
				c-4.4-0.4-8.5,2-10.4,6c-0.5,1-1.3,1.8-2.2,2.2c-4,1.8-6.4,6-6,10.3c0.1,1.1-0.2,2.2-0.8,3c-2.6,3.6-2.6,8.4,0,12
				c0.6,0.9,0.9,2,0.8,3c-0.4,4.4,2,8.5,6,10.4l0.2,0.1l-1.5,3.1H33.9c-1.2,0-2.3-1-2.3-2.3V-33.7c0-1.2,1-2.3,2.3-2.3h182.1
				c1.2,0,2.3,1,2.3,2.3L218.2,89.2L218.2,89.2z"/>
		</g>
	</g>
	<g id="Grupo_350" transform="translate(9.017 54.51)">
		<g id="Grupo_349">
			<path id="Trazado_283" class="st0" d="M172.3,44.6c-10,0-18.1,8.1-18.1,18.1c0,10,8.1,18.1,18.1,18.1c10,0,18.1-8.1,18.1-18.1
				c0,0,0,0,0,0C190.3,52.7,182.3,44.6,172.3,44.6z M172.3,74.9c-6.7,0-12.2-5.5-12.2-12.2s5.5-12.2,12.2-12.2
				c6.7,0,12.2,5.5,12.2,12.2v0C184.5,69.4,179.1,74.9,172.3,74.9C172.3,74.9,172.3,74.9,172.3,74.9L172.3,74.9z"/>
		</g>
	</g>
</g>
<g id="_882803" transform="translate(0.105 7.358)">
	<path id="Trazado_284" class="st1" d="M141.1,810.2h-1.6c-0.6,0-1.1,0.5-1.1,1.1c0,0,0,0,0,0v5.8c0,0.6,0.5,1.1,1.1,1.1l0,0h1.6
		c4.4,0,4.9-2.8,4.9-4C146,813,145.5,810.2,141.1,810.2z M140.6,816v-3.6c1.7,0,3.2,0.1,3.2,1.8C143.8,815.8,142.3,816,140.6,816
		L140.6,816z"/>
	<path id="Trazado_285" class="st1" d="M125.7,813.3c-0.2-0.6-0.8-0.9-1.4-0.7c-0.3,0.1-0.6,0.4-0.7,0.7l-2.3,7.2
		c-0.2,0.5,0.1,1.1,0.7,1.3c1.7,0.6,3.6,0.6,5.3,0c0.5-0.2,0.8-0.8,0.7-1.3L125.7,813.3z M123.8,820l0.9-2.9l0.9,2.9
		C125,820.1,124.4,820.1,123.8,820L123.8,820z"/>
	<path id="Trazado_286" class="st1" d="M168,798.8H99.4c-0.9,0-1.7,0.8-1.7,1.7v35.3c0,0.6,0.5,1.1,1.1,1.1h35.5
		c0.5,0,0.9-0.2,1.2-0.5l33.7-34.7c0.7-0.7,0.7-1.8,0-2.5C168.9,799,168.4,798.8,168,798.8z M134.1,834.8H99.8v-6.4
		c3.9,2.2,8.6,2.6,12.8,1c0.2,0.4,0.5,0.6,1,0.6h6.3c0.5,0,0.9-0.3,1-0.8l0.7-2.3c2,0.5,4,0.5,6,0l0.7,2.3c0.1,0.4,0.5,0.7,1,0.8
		h9.4L134.1,834.8z M99.8,824.6v-7.5c1.7,2.1,4.1,3.6,6.8,4.2c0.8,0.2,2.6,0.8,2.8,1.2c0,0.7-1,0.8-1.7,0.8
		c-1.9,0.1-3.7-0.5-5.2-1.5c-0.5-0.3-1.1-0.1-1.4,0.3c0,0,0,0.1-0.1,0.1L99.8,824.6z M140.7,828v-4.9c1.8,0.1,3.7-0.1,5.4-0.7
		L140.7,828z M141.9,820.9h-2.3c-0.6,0-1.1,0.5-1.1,1.1v5.8h-8.5l-0.8-2.5c-0.2-0.6-0.8-0.9-1.3-0.7c-2.2,0.7-4.5,0.7-6.7,0
		c-0.5-0.2-1.1,0.1-1.3,0.7c0,0,0,0,0,0l-0.8,2.6h-4l0.2-0.4c0.2-0.5,0-1-0.4-1.3c-1.5-1.1-1.5,2-7.2,2.1c-2.2,0-4.5-0.5-6.5-1.5
		l1.2-2.4c1.6,0.9,3.5,1.4,5.3,1.3c2.7-0.1,3.7-1.5,3.7-2.9c0.1-4.4-10.7-2.4-10.6-9.5c0.1-5.2,7-7.3,14-4.4l-1.4,2.4
		c-4.2-1.9-8.8-1.4-8.9,1.4c0,1.4,1.4,2.5,4.6,3.6c3.1,1,5.9,2.1,6.3,4.9c0.1,0.6,0.6,1,1.2,0.9c0.4,0,0.7-0.3,0.9-0.7l4.9-13.5h4.6
		l5.8,16.3c0.2,0.5,0.8,0.8,1.3,0.7c0.4-0.1,0.7-0.6,0.7-1v-15.9c8,0,14.6-0.8,14.6,6.7C149.5,818.5,146.7,820.9,141.9,820.9
		L141.9,820.9z M151.2,817.1c1.1-3.4,0.1-7.1-2.4-9.5c-2.4-1.6-5.2-2.3-8-2.1h-7c-0.6,0-1.1,0.5-1.1,1.1v10.9l-4-11.3
		c-0.1-0.4-0.5-0.7-1-0.7h-6c-0.4,0-0.8,0.3-1,0.7l-4.3,11.7c-2.6-3.6-8.2-3.7-9.7-5.4c0.6-0.4,1.3-0.5,2-0.4c1.6,0,3.3,0.5,4.7,1.3
		c0.5,0.2,1.1,0.1,1.4-0.4c2.6-4.7,2.7-4.6,2.5-5.2c-0.1-0.3-0.3-0.5-0.6-0.7c-5.4-2.8-13.7-3.2-17,2v-8.3h67.2L151.2,817.1z"/>
</g>
<g id="_2950657" transform="translate(0.1 227.392)">
	<g id="Grupo_351" transform="translate(0 30.11)">
		<path id="Trazado_287" class="st2" d="M160.2,1269h-33.5c-0.6,0-1.1,0.4-1.1,1c0,0.6,0.4,1.1,1,1.1c0.1,0,0.1,0,0.2,0h33.5
			c0.6,0,1.1-0.4,1.1-1c0-0.6-0.4-1.1-1-1.1C160.3,1269,160.2,1269,160.2,1269z"/>
		<path id="Trazado_288" class="st2" d="M160.2,1277.1h-33.5c-0.6,0-1.1,0.4-1.1,1c0,0.6,0.4,1.1,1,1.1c0.1,0,0.1,0,0.2,0h33.5
			c0.6,0,1.1-0.4,1.1-1c0-0.6-0.4-1.1-1-1.1C160.3,1277.1,160.2,1277.1,160.2,1277.1z"/>
		<path id="Trazado_289" class="st2" d="M160.2,1285.1h-33.5c-0.6,0-1.1,0.4-1.1,1c0,0.6,0.4,1.1,1,1.1c0.1,0,0.1,0,0.2,0h33.5
			c0.6,0,1.1-0.4,1.1-1c0-0.6-0.4-1.1-1-1.1C160.3,1285.1,160.2,1285.1,160.2,1285.1z"/>
		<path id="Trazado_290" class="st2" d="M163.5,1259.8h-40.2c-3.4,0-6.1,2.7-6.1,6.1v25.3c0,3.4,2.7,6.1,6.1,6.1h28.1
			c0.3,0,0.6,0.1,0.8,0.4l9.1,11.5c0.3,0.4,0.9,0.7,1.4,0.7c0.2,0,0.4,0,0.6-0.1c0.7-0.3,1.2-0.9,1.2-1.7v-10.8c2.9-0.5,5-3.1,5-6
			v-25.3C169.6,1262.5,166.9,1259.8,163.5,1259.8z M167.6,1291.2c0,2.2-1.8,4-4,4c-0.6,0-1,0.5-1,1.1v11l-8.6-10.9
			c-0.6-0.7-1.5-1.2-2.4-1.2h-28.1c-2.2,0-4-1.8-4-4v-25.3c0-2.2,1.8-4,4-4h40.2c2.2,0,4,1.8,4,4L167.6,1291.2z"/>
		<path id="Trazado_291" class="st2" d="M113.2,1277.2c-0.7,0.1-1.4,0.5-1.8,1l-7.2,9.2v-9.2c0-0.6-0.5-1-1-1.1
			c-1.8,0-3.3-1.5-3.3-3.4v-22c0-1.9,1.5-3.4,3.4-3.4h35c1.9,0,3.4,1.5,3.4,3.4v4.1c0,0.6,0.4,1.1,1,1.1c0.6,0,1.1-0.4,1.1-1
			c0-0.1,0-0.1,0-0.2v-4.1c0-3-2.5-5.5-5.5-5.5h-35c-3,0-5.5,2.5-5.5,5.5v22c0,2.6,1.8,4.8,4.4,5.4v9.3c0,0.7,0.5,1.4,1.2,1.7
			c0.2,0.1,0.4,0.1,0.6,0.1c0.5,0,1-0.2,1.4-0.7l7.9-10c0.1-0.1,0.3-0.2,0.5-0.3c0.6,0,1-0.5,1-1.1c0-0.6-0.5-1-1.1-1
			C113.3,1277.2,113.2,1277.2,113.2,1277.2L113.2,1277.2z"/>
	</g>
</g>
<path id="_1442912" class="st1" d="M148.8,1287.1c1,1,1,2.5,0,3.5l-16.5,16.5c-1,1-2.5,1-3.5,0l-7.9-7.9c-0.9-1-0.8-2.6,0.2-3.5
	c0.9-0.8,2.3-0.8,3.3,0l6.1,6.1l14.8-14.8C146.2,1286.1,147.8,1286.1,148.8,1287.1z M166.3,1297.1c0,17.4-14.1,31.5-31.5,31.5
	s-31.5-14.1-31.5-31.5c0-17.4,14.1-31.5,31.5-31.5C152.2,1265.6,166.3,1279.7,166.3,1297.1C166.3,1297.1,166.3,1297.1,166.3,1297.1z
	 M161.4,1297.1c0-14.7-11.9-26.6-26.6-26.6c-14.7,0-26.6,11.9-26.6,26.6s11.9,26.6,26.6,26.6
	C149.5,1323.7,161.4,1311.8,161.4,1297.1C161.4,1297.1,161.4,1297.1,161.4,1297.1z"/>
<g id="clipboard" transform="translate(0.804 171.492)">
	<path id="Trazado_292" class="st3" d="M139.3,880.1h3.5c0.5,0,0.8-0.4,0.8-0.8c0-0.5-0.4-0.8-0.8-0.8h-3.5c-0.5,0-0.8,0.4-0.8,0.8
		C138.5,879.7,138.9,880.1,139.3,880.1z"/>
	<path id="Trazado_293" class="st3" d="M123.9,880.1h12.3c0.5,0,0.8-0.4,0.8-0.8c0-0.5-0.4-0.8-0.8-0.8h-12.3
		c-0.5,0-0.8,0.4-0.8,0.8C123.1,879.7,123.4,880.1,123.9,880.1z"/>
	<path id="Trazado_294" class="st3" d="M115.4,880.1h5.2c0.5,0,0.8-0.4,0.8-0.8c0-0.5-0.4-0.8-0.8-0.8h-5.2c-0.5,0-0.8,0.4-0.8,0.8
		C114.6,879.7,115,880.1,115.4,880.1z"/>
	<path id="Trazado_295" class="st3" d="M134.2,885.7h-14.6c-0.5,0-0.8,0.4-0.8,0.8c0,0.5,0.4,0.8,0.8,0.8h14.6
		c0.5,0,0.8-0.4,0.8-0.8C135.1,886.1,134.7,885.7,134.2,885.7z"/>
	<path id="Trazado_296" class="st3" d="M115.4,887.3h1.5c0.5,0,0.8-0.4,0.8-0.8c0-0.5-0.4-0.8-0.8-0.8h-1.5c-0.5,0-0.8,0.4-0.8,0.8
		C114.6,886.9,115,887.3,115.4,887.3z"/>
	<path id="Trazado_297" class="st3" d="M115.4,895h9.8c0.5,0,0.8-0.4,0.8-0.8c0-0.5-0.4-0.8-0.8-0.8h-9.8c-0.5,0-0.8,0.4-0.8,0.8
		C114.6,894.6,115,895,115.4,895z"/>
	<path id="Trazado_298" class="st3" d="M119.4,900.5h-3.9c-0.5,0-0.8,0.4-0.8,0.8c0,0.5,0.4,0.8,0.8,0.8h3.9c0.5,0,0.8-0.4,0.8-0.8
		C120.2,900.9,119.8,900.5,119.4,900.5z"/>
	<path id="Trazado_299" class="st3" d="M163.1,874.5c-1.1-1.6-3.2-2.1-4.9-1l-0.9,0.6l0,0l-1.6,1V863c0-1.9-1.6-3.5-3.5-3.5h-18
		c-1.3-2.8-4.7-4-7.5-2.7c-1.2,0.6-2.1,1.5-2.7,2.7h-18c-1.9,0-3.5,1.6-3.5,3.5c0,0,0,0,0,0v55.9c0,1.9,1.6,3.5,3.5,3.5h46.2
		c1.9,0,3.5-1.6,3.5-3.5v-33.6l7.1-4.7c1.6-1.1,2.1-3.2,1-4.9c0,0,0,0,0,0L163.1,874.5z M132.6,898.5l-1-1.5l27.8-18.3l1,1.5
		L132.6,898.5z M147.9,905.6h-4.3c-1.9,0-3.5,1.6-3.5,3.5v4.2h-29.1c-0.3,0-0.5-0.2-0.5-0.5V869c0-0.3,0.2-0.5,0.5-0.5l0,0h3.7v2.3
		c0,0.5,0.4,0.8,0.8,0.8h27.4c0.5,0,0.8-0.4,0.8-0.8v-2.3h3.7c0.3,0,0.5,0.2,0.5,0.5v11.2l-19.8,13h0l0,0l-0.1,0.1l0,0l-0.1,0.1l0,0
		l0,0.1l0,0l-3.8,6.5l-1.1,0.7c-0.4,0.2-0.5,0.8-0.2,1.1s0.8,0.5,1.1,0.2l0,0l1.1-0.7l7.4-0.9h0.1h0.1h0h0.1h0l0.1,0l0,0l15.1-10
		V905.6z M146.8,907.3l-5.1,5.1v-3.2c0-1,0.8-1.9,1.9-1.9L146.8,907.3z M130.9,899l-4.6,0.6l2.3-4l1.1,1.7L130.9,899z M130.7,895.6
		l-1-1.5l25.6-16.9l0,0l2.2-1.4l1,1.5L130.7,895.6z M152.2,861.1c1,0,1.9,0.8,1.9,1.9v13.2l-4.6,3V869c0-1.2-1-2.2-2.2-2.2h-3.7
		v-2.5c0-0.5-0.4-0.8-0.8-0.8h-8v-1.6c0-0.3,0-0.5-0.1-0.8H152.2z M129.1,857.9c2.2,0,4,1.8,4,4v2.4c0,0.5,0.4,0.8,0.8,0.8h8v4.8
		h-25.8v-4.8h8c0.5,0,0.8-0.4,0.8-0.8v-2.4C125.1,859.7,126.9,857.9,129.1,857.9z M154.1,918.9c0,1-0.8,1.9-1.9,1.9H106
		c-1,0-1.9-0.8-1.9-1.9V863c0-1,0.8-1.9,1.9-1.9h17.5c0,0.3-0.1,0.5-0.1,0.8v1.6h-8.1c-0.5,0-0.8,0.4-0.8,0.8v2.5h-3.7
		c-1.2,0-2.2,1-2.2,2.2v43.8c0,1.2,1,2.2,2.2,2.2h29.4c0.1,0,0.2,0,0.3,0c0.1,0,0.1,0,0.2,0c0.2,0,0.5-0.1,0.6-0.3
		c0.2-0.1,0.4-0.3,0.6-0.4l6.7-6.7c0.5-0.5,0.7-1.1,0.7-1.7v-16.5l4.6-3V918.9z M162,879.2l-0.2,0.1l-2.8-4.3l0.2-0.1
		c0.9-0.6,2-0.3,2.6,0.6c0,0,0,0,0,0l0.8,1.2C163.1,877.5,162.8,878.6,162,879.2C161.9,879.2,161.9,879.2,162,879.2L162,879.2z"/>
</g>
</svg>
