<?xml version="1.0" encoding="utf-8"?>
<!-- Generator: Adobe Illustrator 24.1.2, SVG Export Plug-In . SVG Version: 6.00 Build 0)  -->
<svg version="1.1" id="Capa_1" xmlns="http://www.w3.org/2000/svg" xmlns:xlink="http://www.w3.org/1999/xlink" x="0px" y="0px"
	 viewBox="0 0 250 250" style="enable-background:new 0 0 250 250;" xml:space="preserve">
<style type="text/css">
	.st0{opacity:0.1;}
</style>
<g class="st0">
	<path d="M190.3,91.5h-22.8V59.7c0-0.7-0.3-1.4-0.8-1.9c-0.5-0.5-1.2-0.8-1.9-0.8H137c-1.5,0-2.7,1.2-2.7,2.7s1.2,2.7,2.7,2.7h25.2
		v5.3H87.8v-5.3h57.6c1.5,0,2.7-1.2,2.7-2.7s-1.2-2.7-2.7-2.7H85.2c-0.7,0-1.4,0.3-1.9,0.8c-0.5,0.5-0.8,1.2-0.8,1.9v31.9H59.7
		c-1.5,0-2.7,1.2-2.7,2.7v96.2c0,1.5,1.2,2.7,2.7,2.7h130.7c1.5,0,2.7-1.2,2.7-2.7V94.2C193,92.7,191.8,91.5,190.3,91.5z
		 M138.8,160.6v27.1h-11.2v-27.1H138.8z M141.5,155.3h-32.9c-1.5,0-2.7,1.2-2.7,2.7v19.1H87.8V83.6h74.4v93.5h-18.1v-19.1
		C144.1,156.5,142.9,155.3,141.5,155.3z M162.2,72.9v5.3H87.8v-5.3H162.2z M62.3,96.8h20.2v5.3H70.3c-1.5,0-2.7,1.2-2.7,2.7
		s1.2,2.7,2.7,2.7h12.2v5.3H70.3c-1.5,0-2.7,1.2-2.7,2.7s1.2,2.7,2.7,2.7h12.2v5.3H70.3c-1.5,0-2.7,1.2-2.7,2.7s1.2,2.7,2.7,2.7
		h12.2v5.3H70.3c-1.5,0-2.7,1.2-2.7,2.7s1.2,2.7,2.7,2.7h12.2v5.3H70.3c-1.5,0-2.7,1.2-2.7,2.7s1.2,2.7,2.7,2.7h12.2v5.3H70.3
		c-1.5,0-2.7,1.2-2.7,2.7s1.2,2.7,2.7,2.7h12.2v27.1H62.3V96.8z M87.8,182.4h18.1v5.3H87.8V182.4z M111.2,160.6h11.2v27.1h-11.2
		V160.6z M144.1,182.4h18.1v5.3h-18.1V182.4z M187.7,187.7h-20.2v-27.1h12.2c1.5,0,2.7-1.2,2.7-2.7s-1.2-2.7-2.7-2.7h-12.2V150h12.2
		c1.5,0,2.7-1.2,2.7-2.7s-1.2-2.7-2.7-2.7h-12.2v-5.3h12.2c1.5,0,2.7-1.2,2.7-2.7s-1.2-2.7-2.7-2.7h-12.2v-5.3h12.2
		c1.5,0,2.7-1.2,2.7-2.7s-1.2-2.7-2.7-2.7h-12.2v-5.3h12.2c1.5,0,2.7-1.2,2.7-2.7s-1.2-2.7-2.7-2.7h-12.2v-5.3h12.2
		c1.5,0,2.7-1.2,2.7-2.7s-1.2-2.7-2.7-2.7h-12.2v-5.3h20.2V187.7z"/>
	<path d="M154.2,147.3c0-1.5-1.2-2.7-2.7-2.7H98.4c-1.5,0-2.7,1.2-2.7,2.7s1.2,2.7,2.7,2.7h53.1C153,150,154.2,148.8,154.2,147.3z"
		/>
	<path d="M98.4,139.3h53.1c1.5,0,2.7-1.2,2.7-2.7s-1.2-2.7-2.7-2.7H98.4c-1.5,0-2.7,1.2-2.7,2.7S97,139.3,98.4,139.3z"/>
	<path d="M98.4,128.7h53.1c1.5,0,2.7-1.2,2.7-2.7s-1.2-2.7-2.7-2.7H98.4c-1.5,0-2.7,1.2-2.7,2.7S97,128.7,98.4,128.7z"/>
	<path d="M98.4,118.1h53.1c1.5,0,2.7-1.2,2.7-2.7s-1.2-2.7-2.7-2.7H98.4c-1.5,0-2.7,1.2-2.7,2.7S97,118.1,98.4,118.1z"/>
	<path d="M98.4,107.5h53.1c1.5,0,2.7-1.2,2.7-2.7s-1.2-2.7-2.7-2.7H98.4c-1.5,0-2.7,1.2-2.7,2.7S97,107.5,98.4,107.5z"/>
	<path d="M98.4,96.8h53.1c1.5,0,2.7-1.2,2.7-2.7s-1.2-2.7-2.7-2.7H98.4c-1.5,0-2.7,1.2-2.7,2.7S97,96.8,98.4,96.8z"/>
</g>
</svg>
