<?xml version="1.0" encoding="utf-8"?>
<!-- Generator: Adobe Illustrator 24.1.2, SVG Export Plug-In . SVG Version: 6.00 Build 0)  -->
<svg version="1.1" id="Capa_1" xmlns="http://www.w3.org/2000/svg" xmlns:xlink="http://www.w3.org/1999/xlink" x="0px" y="0px"
	 viewBox="0 0 250 250" style="enable-background:new 0 0 250 250;" xml:space="preserve">
<style type="text/css">
	.st0{fill:#C63224;}
	.st1{fill:#9B281D;}
</style>
<g>
	<circle id="Elipse_52" class="st0" cx="125" cy="125" r="100.1"/>
	<path id="Trazado_268" class="st1" d="M169.1,120h-43.3v15.5h25.9c-3.8,11.3-14.3,19-26.2,19c-15.5-0.1-27.9-12.8-27.7-28.2
		c-0.1-15.4,12.3-28.1,27.7-28.2c0,0,0,0,0,0c6.5,0,12.7,2.3,17.7,6.5h0.7l11.4-11.6c-8.1-7.5-18.7-11.7-29.8-11.7
		c-24.7,0.2-44.5,20.4-44.3,45c-0.2,24.7,19.6,44.8,44.3,45c0,0,0,0,0,0c3.2,0,6.4-0.3,9.5-1c6.4-1.4,12.3-4.2,17.5-8.3
		c5.1-4,9.3-9,12.3-14.8c1.5-2.9,2.7-6,3.5-9.2c0.8-4,1-8,0.8-12.1L169.1,120z"/>
</g>
</svg>
