<?xml version="1.0" encoding="utf-8"?>
<!-- Generator: Adobe Illustrator 24.1.2, SVG Export Plug-In . SVG Version: 6.00 Build 0)  -->
<svg version="1.1" id="Capa_1" xmlns="http://www.w3.org/2000/svg" xmlns:xlink="http://www.w3.org/1999/xlink" x="0px" y="0px"
	 viewBox="0 0 250 250" style="enable-background:new 0 0 250 250;" xml:space="preserve">
<style type="text/css">
	.st0{fill:#8C8B95;stroke:#8C8B95;stroke-width:0.2;}
	.st1{fill:#8C8B95;}
</style>
<g id="_2950657" transform="translate(0.1 227.392)">
	<g id="Grupo_351" transform="translate(0 30.11)">
		<path id="Trazado_287" class="st0" d="M154.2,345h-33.5c-0.6,0-1.1,0.4-1.1,1c0,0.6,0.4,1.1,1,1.1c0.1,0,0.1,0,0.2,0h33.5
			c0.6,0,1.1-0.4,1.1-1c0-0.6-0.4-1.1-1-1.1C154.3,345,154.2,345,154.2,345z"/>
		<path id="Trazado_288" class="st0" d="M154.2,353.1h-33.5c-0.6,0-1.1,0.4-1.1,1c0,0.6,0.4,1.1,1,1.1c0.1,0,0.1,0,0.2,0h33.5
			c0.6,0,1.1-0.4,1.1-1c0-0.6-0.4-1.1-1-1.1C154.3,353.1,154.2,353.1,154.2,353.1z"/>
		<path id="Trazado_289" class="st0" d="M154.2,361.1h-33.5c-0.6,0-1.1,0.4-1.1,1c0,0.6,0.4,1.1,1,1.1c0.1,0,0.1,0,0.2,0h33.5
			c0.6,0,1.1-0.4,1.1-1c0-0.6-0.4-1.1-1-1.1C154.3,361.1,154.2,361.1,154.2,361.1z"/>
		<path id="Trazado_290" class="st0" d="M157.5,335.8h-40.2c-3.4,0-6.1,2.7-6.1,6.1v25.3c0,3.4,2.7,6.1,6.1,6.1h28.1
			c0.3,0,0.6,0.1,0.8,0.4l9.1,11.5c0.3,0.4,0.9,0.7,1.4,0.7c0.2,0,0.4,0,0.6-0.1c0.7-0.3,1.2-0.9,1.2-1.7v-10.8c2.9-0.5,5-3.1,5-6
			v-25.3C163.6,338.5,160.9,335.8,157.5,335.8z M161.6,367.2c0,2.2-1.8,4-4,4c-0.6,0-1,0.5-1,1.1v11l-8.6-10.9
			c-0.6-0.7-1.5-1.2-2.4-1.2h-28.1c-2.2,0-4-1.8-4-4v-25.3c0-2.2,1.8-4,4-4h40.2c2.2,0,4,1.8,4,4L161.6,367.2z"/>
		<path id="Trazado_291" class="st0" d="M107.2,353.2c-0.7,0.1-1.4,0.5-1.8,1l-7.2,9.2v-9.2c0-0.6-0.5-1-1-1.1
			c-1.8,0-3.3-1.5-3.3-3.4v-22c0-1.9,1.5-3.4,3.4-3.4h35c1.9,0,3.4,1.5,3.4,3.4v4.1c0,0.6,0.4,1.1,1,1.1c0.6,0,1.1-0.4,1.1-1
			c0-0.1,0-0.1,0-0.2v-4.1c0-3-2.5-5.5-5.5-5.5h-35c-3,0-5.5,2.5-5.5,5.5v22c0,2.6,1.8,4.8,4.4,5.4v9.3c0,0.7,0.5,1.4,1.2,1.7
			c0.2,0.1,0.4,0.1,0.6,0.1c0.5,0,1-0.2,1.4-0.7l7.9-10c0.1-0.1,0.3-0.2,0.5-0.3c0.6,0,1-0.5,1-1.1c0-0.6-0.5-1-1.1-1
			C107.3,353.2,107.2,353.2,107.2,353.2L107.2,353.2z"/>
	</g>
</g>
<g>
	<path id="_1442912" class="st1" d="M163.7,97.2c2.7,2.7,2.7,7,0,9.7l-45.9,45.9c-2.7,2.7-7,2.7-9.7,0L86.3,131
		c-2.5-2.8-2.2-7.2,0.6-9.7c2.6-2.3,6.4-2.3,9,0l17.1,17l41-41C156.7,94.6,161,94.6,163.7,97.2z M212.5,125
		c0,48.3-39.2,87.5-87.5,87.5S37.5,173.3,37.5,125c0-48.3,39.2-87.5,87.5-87.5c48.3,0,87.5,39.1,87.5,87.4
		C212.5,124.9,212.5,125,212.5,125z M198.8,125c0-40.8-33-73.8-73.8-73.8s-73.8,33-73.8,73.8s33,73.8,73.8,73.8
		C165.8,198.8,198.8,165.8,198.8,125C198.8,125,198.8,125,198.8,125z"/>
</g>
</svg>
