<?xml version="1.0" encoding="utf-8"?>
<!-- Generator: Adobe Illustrator 24.1.2, SVG Export Plug-In . SVG Version: 6.00 Build 0)  -->
<svg version="1.1" id="Capa_1" xmlns="http://www.w3.org/2000/svg" xmlns:xlink="http://www.w3.org/1999/xlink" x="0px" y="0px"
	 viewBox="0 0 250 250" style="enable-background:new 0 0 250 250;" xml:space="preserve">
<style type="text/css">
	.st0{fill:#DBDBDB;}
</style>
<g id="_2082099" transform="translate(-1 -1)">
	<path id="Trazado_347" class="st0" d="M134.1,152.1c7.3-4.8,9.4-14.6,4.7-21.9c-4.8-7.3-14.6-9.4-21.9-4.7
		c-7.3,4.8-9.4,14.6-4.7,21.9c1.2,1.9,2.8,3.5,4.7,4.7c-11.4,3.7-19.1,14.4-19.1,26.3v7.9h55.5v-7.9
		C153.2,166.5,145.5,155.9,134.1,152.1z M136.6,174.5l-7.9,7.9h-0.4l8.3-25c1.4,0.7,2.8,1.6,4,2.6l-0.9,5.4l-7.2,4.8L136.6,174.5z
		 M111.5,165.4l-0.9-5.4c1.2-1,2.6-1.9,4-2.6l8.3,25h-0.4l-7.9-7.9l4.3-4.3L111.5,165.4z M113.6,138.9c0-6.6,5.3-11.9,11.9-11.9
		s11.9,5.3,11.9,11.9s-5.3,11.9-11.9,11.9l0,0C118.9,150.7,113.6,145.4,113.6,138.9L113.6,138.9z M132.8,155.9l-7.3,22.2l-7.3-22.2
		C122.9,154.3,128.1,154.3,132.8,155.9z M101.7,178.5c0-5.5,1.9-10.8,5.4-15l0.8,4.3l4.6,3.1l-3.7,3.7l7.9,7.9h-15V178.5z
		 M149.3,182.4h-15l7.9-7.9l-3.7-3.7l4.6-3.1l0.8-4.3c3.5,4.2,5.4,9.5,5.4,15L149.3,182.4z"/>
	<path id="Trazado_348" class="st0" d="M115.6,119.1h19.8V95.3h9.6L125.5,66L106,95.3h9.6V119.1z M113.4,91.3l12.1-18.2l12.1,18.2
		h-6.2v23.8h-11.9V91.3H113.4z"/>
	<path id="Trazado_349" class="st0" d="M67.5,90.8l6.8,34.2l6.7-6.7l16.8,17.5l14.6-14.6L95,104.3l6.7-6.7L67.5,90.8z M106.8,121.2
		l-8.9,8.9l-16.8-17.5l-4.3,4.3l-4.2-21.1l21.1,4.2l-4.3,4.3L106.8,121.2z"/>
	<path id="Trazado_350" class="st0" d="M138.5,121.2l14.6,14.6l16.8-17.5l6.7,6.7l6.8-34.2l-34.2,6.8l6.7,6.7L138.5,121.2z
		 M178.4,95.8l-4.2,21.1l-4.3-4.3L153,130.1l-8.9-8.9l17.5-16.8l-4.3-4.3L178.4,95.8z"/>
	<path id="Trazado_351" class="st0" d="M70,75.5c3.3,0,5.9-2.7,5.9-5.9s-2.7-5.9-5.9-5.9s-5.9,2.7-5.9,5.9c0,0,0,0,0,0
		C64.1,72.8,66.8,75.5,70,75.5z M70,67.6c1.1,0,2,0.9,2,2c0,1.1-0.9,2-2,2c-1.1,0-2-0.9-2-2l0,0C68.1,68.4,68.9,67.6,70,67.6z"/>
	<path id="Trazado_352" class="st0" d="M85.8,88.1l2.8-2.8l2.7,2.7l-2.8,2.8L85.8,88.1z"/>
	<path id="Trazado_353" class="st0" d="M74.6,76.9l2.8-2.8l2.8,2.8l-2.8,2.8L74.6,76.9z"/>
	<path id="Trazado_354" class="st0" d="M80.2,82.5l2.8-2.8l2.8,2.8L83,85.3L80.2,82.5z"/>
	<path id="Trazado_355" class="st0" d="M70,174.5c-3.3,0-5.9,2.7-5.9,5.9s2.7,5.9,5.9,5.9s5.9-2.7,5.9-5.9l0,0
		C76,177.2,73.3,174.5,70,174.5z M70,182.4c-1.1,0-2-0.9-2-2s0.9-2,2-2c1.1,0,2,0.9,2,2C72,181.6,71.1,182.4,70,182.4z"/>
	<path id="Trazado_356" class="st0" d="M85.8,161.9l2.7-2.7l2.8,2.8l-2.7,2.7L85.8,161.9z"/>
	<path id="Trazado_357" class="st0" d="M74.6,173.1l2.8-2.8l2.8,2.8l-2.8,2.8L74.6,173.1z"/>
	<path id="Trazado_358" class="st0" d="M80.2,167.5l2.8-2.8l2.8,2.8l-2.8,2.8L80.2,167.5z"/>
	<path id="Trazado_359" class="st0" d="M181,174.5c-3.3,0-5.9,2.7-5.9,5.9c0,3.3,2.7,5.9,5.9,5.9c3.3,0,5.9-2.7,5.9-5.9l0,0
		C186.9,177.2,184.2,174.5,181,174.5z M181,182.4c-1.1,0-2-0.9-2-2s0.9-2,2-2c1.1,0,2,0.9,2,2C182.9,181.6,182.1,182.4,181,182.4z"
		/>
	<path id="Trazado_360" class="st0" d="M170.8,173.1l2.8-2.8l2.8,2.8l-2.8,2.8L170.8,173.1z"/>
	<path id="Trazado_361" class="st0" d="M159.7,162.1l2.8-2.8l2.7,2.7l-2.8,2.8L159.7,162.1z"/>
	<path id="Trazado_362" class="st0" d="M165.2,167.5l2.8-2.8l2.8,2.8l-2.8,2.8L165.2,167.5z"/>
	<path id="Trazado_363" class="st0" d="M181,75.5c3.3,0,5.9-2.7,5.9-5.9c0-3.3-2.7-5.9-5.9-5.9c-3.3,0-5.9,2.7-5.9,5.9c0,0,0,0,0,0
		C175,72.8,177.7,75.5,181,75.5z M181,67.6c1.1,0,2,0.9,2,2s-0.9,2-2,2c-1.1,0-2-0.9-2-2C179,68.4,179.9,67.6,181,67.6z"/>
	<path id="Trazado_364" class="st0" d="M165.2,82.5l2.8-2.8l2.8,2.8l-2.8,2.8L165.2,82.5z"/>
	<path id="Trazado_365" class="st0" d="M170.8,76.9l2.8-2.8l2.8,2.8l-2.8,2.8L170.8,76.9z"/>
	<path id="Trazado_366" class="st0" d="M159.7,88l2.7-2.7l2.8,2.8l-2.7,2.7L159.7,88z"/>
	<path id="Trazado_367" class="st0" d="M181,136.9c-3.3,0-5.9,2.7-5.9,5.9c0,3.3,2.7,5.9,5.9,5.9c3.3,0,5.9-2.7,5.9-5.9l0,0
		C186.9,139.5,184.2,136.9,181,136.9z M181,144.8c-1.1,0-2-0.9-2-2c0-1.1,0.9-2,2-2c1.1,0,2,0.9,2,2
		C182.9,143.9,182.1,144.8,181,144.8z"/>
	<path id="Trazado_368" class="st0" d="M167.1,140.8h4v4h-4V140.8z"/>
	<path id="Trazado_369" class="st0" d="M151.2,140.8h4v4h-4V140.8z"/>
	<path id="Trazado_370" class="st0" d="M159.2,140.8h4v4h-4V140.8z"/>
	<path id="Trazado_371" class="st0" d="M70,148.8c3.3,0,5.9-2.7,5.9-5.9c0-3.3-2.7-5.9-5.9-5.9s-5.9,2.7-5.9,5.9
		C64.1,146.1,66.8,148.8,70,148.8z M70,140.8c1.1,0,2,0.9,2,2s-0.9,2-2,2c-1.1,0-2-0.9-2-2C68.1,141.7,68.9,140.8,70,140.8z"/>
	<path id="Trazado_372" class="st0" d="M87.9,140.8h4v4h-4V140.8z"/>
	<path id="Trazado_373" class="st0" d="M79.9,140.8h4v4h-4V140.8z"/>
	<path id="Trazado_374" class="st0" d="M95.8,140.8h4v4h-4V140.8z"/>
</g>
</svg>
