<?xml version="1.0" encoding="utf-8"?>
<!-- Generator: Adobe Illustrator 24.1.2, SVG Export Plug-In . SVG Version: 6.00 Build 0)  -->
<svg version="1.1" id="Capa_1" xmlns="http://www.w3.org/2000/svg" xmlns:xlink="http://www.w3.org/1999/xlink" x="0px" y="0px"
	 viewBox="0 0 250 250" style="enable-background:new 0 0 250 250;" xml:space="preserve">
<style type="text/css">
	.st0{fill:#8C8B95;stroke:#8C8B95;stroke-width:0.2;}
</style>
<g id="_2950657" transform="translate(0.1 227.392)">
	<g id="Grupo_351" transform="translate(0 30.11)">
		<path id="Trazado_287" class="st0" d="M197.3-155.2H114c-1.5-0.1-2.7,1-2.8,2.4s1,2.7,2.4,2.8c0.1,0,0.3,0,0.4,0h83.3
			c1.5,0.1,2.7-1,2.8-2.4s-1-2.7-2.4-2.8C197.6-155.2,197.5-155.2,197.3-155.2z"/>
		<path id="Trazado_288" class="st0" d="M197.3-135.1H114c-1.5-0.1-2.7,1-2.8,2.4s1,2.7,2.4,2.8c0.1,0,0.3,0,0.4,0h83.3
			c1.5,0.1,2.7-1,2.8-2.4c0.1-1.5-1-2.7-2.4-2.8C197.6-135.1,197.5-135.1,197.3-135.1z"/>
		<path id="Trazado_289" class="st0" d="M197.3-115.1H114c-1.5-0.1-2.7,1-2.8,2.4c-0.1,1.5,1,2.7,2.4,2.8c0.1,0,0.3,0,0.4,0h83.3
			c1.5,0.1,2.7-1,2.8-2.4c0.1-1.5-1-2.7-2.4-2.8C197.6-115.1,197.5-115.1,197.3-115.1z"/>
		<path id="Trazado_290" class="st0" d="M205.7-178.2h-100c-8.4,0-15.3,6.8-15.3,15.3v62.9c0,8.4,6.8,15.3,15.3,15.3h70.1
			c0.7,0,1.5,0.3,1.9,0.9l22.6,28.7c0.9,1.1,2.2,1.7,3.6,1.8c0.5,0,1-0.1,1.5-0.3c1.8-0.6,3.1-2.4,3.1-4.3v-27
			c7.2-1.4,12.5-7.7,12.5-15v-62.9C220.9-171.3,214.1-178.2,205.7-178.2z M215.7-100c0,5.5-4.4,9.9-9.9,10c-1.4,0-2.6,1.2-2.6,2.6
			V-60l-21.4-27.1c-1.5-1.9-3.7-2.9-6-2.9h-70.1c-5.5,0-10-4.5-10-10v-62.9c0-5.5,4.5-10,10-10h100c5.5,0,10,4.5,10,10L215.7-100z"
			/>
		<path id="Trazado_291" class="st0" d="M80.4-134.8c-1.8,0.3-3.4,1.2-4.5,2.6l-18,22.8v-22.9c0-1.4-1.2-2.6-2.6-2.6
			c-4.6-0.1-8.3-3.8-8.3-8.4V-198c0-4.6,3.8-8.4,8.4-8.4h87.1c4.6,0,8.4,3.8,8.4,8.4v10.1c-0.1,1.5,1,2.7,2.4,2.8
			c1.5,0.1,2.7-1,2.8-2.4c0-0.1,0-0.3,0-0.4V-198c0-7.5-6.1-13.6-13.6-13.6H55.3c-7.5,0-13.6,6.1-13.6,13.6v54.8
			c0,6.4,4.6,12,10.9,13.3v23.2c0,1.9,1.1,3.5,2.9,4.1c0.4,0.2,0.9,0.2,1.4,0.2c1.3,0,2.6-0.6,3.4-1.7l19.7-24.9
			c0.3-0.4,0.7-0.6,1.1-0.7c1.5-0.1,2.6-1.3,2.5-2.8c-0.1-1.5-1.3-2.6-2.8-2.5C80.6-134.7,80.4-134.7,80.4-134.8L80.4-134.8z"/>
	</g>
</g>
</svg>
