<?xml version="1.0" encoding="utf-8"?>
<!-- Generator: Adobe Illustrator 24.1.2, SVG Export Plug-In . SVG Version: 6.00 Build 0)  -->
<svg version="1.1" id="Capa_1" xmlns="http://www.w3.org/2000/svg" xmlns:xlink="http://www.w3.org/1999/xlink" x="0px" y="0px"
	 viewBox="0 0 250 250" style="enable-background:new 0 0 250 250;" xml:space="preserve">
<style type="text/css">
	.st0{fill:#8C8B95;stroke:#8C8B95;stroke-width:0.2;}
	.st1{fill:#8F8E97;stroke:#8C8B95;stroke-width:0.1;}
	.st2{fill:#8C8B95;}
	.st3{fill:#8C8B95;stroke:#8C8B95;stroke-width:0.1;}
</style>
<path id="_2933787" class="st0" d="M213.5,79.6h-30.3l-3.3-15.9C177,49.9,164.7,40,150.5,40H99.5C85.3,40,73,49.9,70.1,63.7
	l-3.3,15.9H36.5c-4.8,0-8.7,3.8-8.7,8.6v113.1c0,4.8,3.9,8.7,8.7,8.6h177c4.8,0,8.7-3.8,8.7-8.6V88.2
	C222.2,83.5,218.3,79.6,213.5,79.6z M75.3,64.8c2.5-11.4,12.5-19.5,24.2-19.4h51.1c11.6,0,21.7,8.1,24.2,19.4l3.1,14.8h-7L168,66.2
	c-1.8-8.2-9.1-14.1-17.5-14.1H99.5c-8.4,0-15.7,5.9-17.5,14.1l-2.8,13.5h-7L75.3,64.8z M165.4,79.6H84.6l2.6-12.4
	c1.2-5.8,6.4-9.9,12.3-9.9h51.1c5.9,0,11,4.1,12.3,9.9L165.4,79.6z M33.1,88.2c0-1.9,1.5-3.4,3.4-3.4c0,0,0,0,0,0h176.9
	c1.9,0,3.4,1.5,3.4,3.4c0,0,0,0,0,0v29c-0.1,13.5-11.1,24.4-24.7,24.4H57.8c-13.5,0.1-24.6-10.8-24.7-24.4V88.2z M162.7,146.8h14
	v15.3c0,1-0.9,1.9-1.9,1.9c0,0,0,0,0,0h-10.2c-1,0-1.9-0.8-1.9-1.9c0,0,0,0,0,0V146.8z M73.3,146.8h14v15.3c0,1-0.9,1.9-1.9,1.9
	c0,0,0,0,0,0H75.2c-1,0-1.9-0.8-1.9-1.9c0,0,0,0,0,0L73.3,146.8z M216.8,201.3c0,1.9-1.5,3.4-3.4,3.4c0,0,0,0,0,0H36.5
	c-1.9,0-3.4-1.5-3.4-3.4c0,0,0,0,0,0V134c5.6,8.1,14.9,12.8,24.7,12.8h10.2v15.3c0,4,3.3,7.1,7.2,7.1h10.3c4,0,7.2-3.2,7.2-7.1
	v-15.3h64.8v15.3c0,4,3.3,7.1,7.2,7.1h10.3c4,0,7.2-3.2,7.2-7.1v-15.3h10.2c9.8,0,19-4.8,24.7-12.8L216.8,201.3z"/>
<g id="_1164620" transform="translate(0.105 42.457)">
	<path id="Trazado_273" class="st1" d="M133.7,271h-15.6c-0.6,0-1.2,0.5-1.2,1.1v7.7h-18c-0.6,0-1.2,0.5-1.2,1.1v55.4
		c0,0.6,0.6,1.1,1.2,1.1h34.8c0.6,0,1.2-0.5,1.2-1.1v-64.2C134.9,271.5,134.3,271,133.7,271z M132.5,328.6h-13.2v-2.2h13.2V328.6z
		 M100.1,287.6h16.8v33.2h-16.8V287.6z M132.5,283.2h-13.2v-3.3h13.2V283.2z M100.1,323h16.8v3.3h-16.8V323z M119.3,324.2v-38.7
		h13.2v38.7H119.3z M132.5,273.2v4.4h-13.2v-4.4H132.5z M116.9,282.1v3.3h-16.8v-3.3H116.9z M100.1,328.6h16.8v6.6h-16.8V328.6z
		 M119.3,335.2v-4.4h13.2v4.4H119.3z"/>
	<path id="Trazado_274" class="st1" d="M169.6,331.7l-14.4-50.3c-0.1-0.3-0.3-0.5-0.6-0.7c-0.3-0.1-0.6-0.2-0.9-0.1l-18,4.4
		c-0.6,0.1-1,0.7-0.9,1.3c0,0,0,0,0,0l14.4,50.3c0.1,0.3,0.3,0.5,0.6,0.7c0.3,0.1,0.6,0.2,0.9,0.1l18-4.4
		C169.4,332.9,169.7,332.3,169.6,331.7C169.6,331.7,169.6,331.7,169.6,331.7z M139.5,293.5l15.7-3.8l0.6,2l-15.7,3.8L139.5,293.5z
		 M156.3,293.8l7,24.3l-15.7,3.8l-7-24.3L156.3,293.8z M163.9,320.2l1.2,4.3l-15.7,3.8l-1.2-4.3L163.9,320.2z M153.2,283l1.3,4.6
		l-15.7,3.8l-1.3-4.6L153.2,283z M151.3,335l-1.3-4.6l15.7-3.8l1.3,4.6L151.3,335z"/>
	<path id="Trazado_275" class="st1" d="M113.3,290.6h-9.6c-0.7,0-1.2,0.5-1.2,1.2v9.6c0,0.7,0.5,1.2,1.2,1.2h9.6
		c0.7,0,1.2-0.5,1.2-1.2v-9.6C114.5,291.1,114,290.6,113.3,290.6z M112.1,300.2h-7.2V293h7.2V300.2z"/>
</g>
<g id="award" transform="translate(0.105 38.013)">
	<g id="Grupo_336" transform="translate(2.608 50.697)">
		<g id="Grupo_335" transform="translate(0 0)">
			<path id="Trazado_276" class="st1" d="M151.6,480.8h-41c-0.6,0-1,0.5-1,1.1c0,0.5,0.5,0.9,1,1h41c0.6,0,1-0.5,1-1.1
				C152.5,481.2,152.1,480.8,151.6,480.8z"/>
		</g>
	</g>
	<g id="Grupo_338" transform="translate(2.608 52.772)">
		<g id="Grupo_337" transform="translate(0 0)">
			<path id="Trazado_277" class="st1" d="M151.6,490.2h-41c-0.6,0-1,0.5-1,1.1c0,0.5,0.5,0.9,1,1h41c0.6,0,1-0.5,1-1.1
				C152.5,490.7,152.1,490.2,151.6,490.2z"/>
		</g>
	</g>
	<g id="Grupo_340" transform="translate(5.035 54.119)">
		<g id="Grupo_339" transform="translate(0 0)">
			<path id="Trazado_278" class="st1" d="M135.7,496.3h-14.1c-0.6,0-1,0.5-1,1.1c0,0.5,0.5,0.9,1,1h14.1c0.6,0,1-0.5,1-1.1
				C136.6,496.8,136.2,496.3,135.7,496.3z"/>
		</g>
	</g>
	<g id="Grupo_342" transform="translate(4.489 51.73)">
		<g id="Grupo_341" transform="translate(0 0)">
			<path id="Trazado_279" class="st1" d="M149.7,485.5h-30.6c-0.6,0-1,0.5-1,1.1c0,0.5,0.5,0.9,1,1h30.6c0.6,0,1-0.5,1-1.1
				C150.6,485.9,150.2,485.5,149.7,485.5z"/>
		</g>
	</g>
	<g id="Grupo_344" transform="translate(2.608 51.73)">
		<g id="Grupo_343">
			<path id="Trazado_280" class="st1" d="M116.1,485.5h-5.5c-0.6,0-1.1,0.4-1.1,1c0,0.6,0.4,1.1,1,1.1c0.1,0,0.1,0,0.2,0h5.5
				c0.6,0,1.1-0.4,1.1-1c0-0.6-0.4-1.1-1-1.1C116.2,485.5,116.1,485.5,116.1,485.5z"/>
		</g>
	</g>
	<g id="Grupo_346" transform="translate(0.914 49.396)">
		<g id="Grupo_345" transform="translate(0 0)">
			<path id="Trazado_281" class="st1" d="M163.3,480.3c-0.2-0.2-0.6-0.4-0.9-0.4l0,0c-2.1,0-3.9-1.7-4-3.8c0-0.7-0.6-1.2-1.3-1.2
				h-48.9c-0.7,0-1.3,0.5-1.3,1.2c-0.1,2.1-1.7,3.7-3.8,3.8c-0.7,0-1.2,0.6-1.2,1.3v27.3c0,0.7,0.5,1.3,1.2,1.3
				c2.1,0.1,3.7,1.7,3.8,3.8c0,0.7,0.6,1.2,1.3,1.2h31.1c0.6,0,1-0.5,1-1.1c0-0.5-0.5-0.9-1-1h-30.4c-0.4-2.5-2.4-4.5-5-5V482
				c2.5-0.4,4.5-2.4,5-5h47.5c0.5,2.6,2.6,4.6,5.2,5v17.9c0,0.6,0.5,1,1.1,1c0.5,0,0.9-0.5,1-1v-18.7
				C163.7,480.9,163.5,480.6,163.3,480.3z"/>
		</g>
	</g>
	<g id="Grupo_348" transform="translate(0 48.445)">
		<g id="Grupo_347" transform="translate(0 0)">
			<path id="Trazado_282" class="st1" d="M166.7,470.6h-66.1c-1.6,0-2.9,1.3-2.9,2.9v44.6c0,1.6,1.3,2.9,2.9,2.9h44.3l-1.6,3.3
				c-0.3,0.6,0,1.4,0.6,1.7c0.2,0.1,0.5,0.1,0.7,0.1l2.9-0.5l1.6,2.7c0.2,0.4,0.6,0.6,1.1,0.6h0.1c0.5,0,0.9-0.3,1.1-0.7l2.8-5.9
				l2.8,5.9c0.2,0.4,0.6,0.7,1.1,0.7h0.1c0.4,0,0.8-0.2,1.1-0.6l1.6-2.7l2.9,0.5c0.7,0.1,1.3-0.4,1.4-1c0-0.3,0-0.5-0.1-0.7
				l-1.6-3.3h3.1c1.6,0,2.9-1.3,2.9-2.9v-44.6C169.7,471.9,168.3,470.6,166.7,470.6z M150.2,525.9l-1.1-1.8
				c-0.3-0.4-0.8-0.7-1.3-0.6l-1.9,0.3l2-4.1c0.8,0.8,1.9,1.2,3,1.1c0.4,0,0.8,0.1,1.1,0.3c0.1,0.1,0.2,0.1,0.3,0.2L150.2,525.9z
				 M154.5,519.6L154.5,519.6c-0.2,0-0.3,0-0.5,0l0,0c-0.3,0-0.5-0.1-0.7-0.3c-0.6-0.5-1.4-0.7-2.2-0.7c-0.1,0-0.2,0-0.4,0
				c-0.7,0.1-1.4-0.3-1.7-1c-0.1-0.3-0.3-0.5-0.5-0.8v0l-0.1,0l0,0c-0.4-0.4-0.8-0.7-1.3-1c-0.6-0.3-1-1-1-1.7
				c0.1-0.9-0.2-1.8-0.7-2.5c-0.4-0.6-0.4-1.3,0-1.9c0.5-0.7,0.8-1.6,0.7-2.5c-0.1-0.7,0.3-1.4,1-1.7c0.8-0.4,1.5-1,1.9-1.9
				c0.3-0.6,1-1,1.7-1c0.9,0.1,1.8-0.2,2.5-0.7c0.6-0.4,1.3-0.4,1.9,0c0.7,0.5,1.6,0.8,2.5,0.7c0.7-0.1,1.4,0.3,1.7,1
				c0.4,0.8,1,1.5,1.9,1.9c0.6,0.3,1,1,1,1.7c-0.1,0.9,0.2,1.8,0.7,2.5c0.4,0.6,0.4,1.3,0,1.9c-0.5,0.7-0.8,1.6-0.7,2.5
				c0.1,0.7-0.3,1.4-1,1.7c-0.5,0.2-0.9,0.5-1.3,1l0,0v0l0,0c-0.2,0.2-0.4,0.5-0.5,0.8c-0.3,0.6-1,1-1.7,1c-0.9-0.1-1.8,0.2-2.5,0.7
				C155,519.5,154.8,519.6,154.5,519.6L154.5,519.6z M160.7,523.5c-0.5-0.1-1,0.2-1.3,0.6l-1.1,1.8l-2.2-4.6
				c0.1-0.1,0.2-0.1,0.3-0.2c0.3-0.2,0.7-0.3,1.1-0.3c1.1,0.1,2.2-0.3,3-1.1l2,4.1L160.7,523.5z M167.5,518.1c0,0.5-0.4,0.8-0.8,0.8
				h-4.2l-0.6-1.1l0.1,0c1.5-0.7,2.3-2.2,2.2-3.8c0-0.4,0.1-0.8,0.3-1.1c0.9-1.3,0.9-3.1,0-4.4c-0.2-0.3-0.3-0.7-0.3-1.1
				c0.2-1.6-0.7-3.1-2.2-3.8c-0.4-0.2-0.6-0.5-0.8-0.8c-0.7-1.5-2.2-2.3-3.8-2.2c-0.4,0-0.8-0.1-1.1-0.3c-1.3-0.9-3.1-0.9-4.4,0
				c-0.3,0.2-0.7,0.3-1.1,0.3c-1.6-0.2-3.1,0.7-3.8,2.2c-0.2,0.4-0.5,0.6-0.8,0.8c-1.4,0.7-2.3,2.2-2.2,3.7c0,0.4-0.1,0.8-0.3,1.1
				c-0.9,1.3-0.9,3.1,0,4.4c0.2,0.3,0.3,0.7,0.3,1.1c-0.2,1.6,0.7,3.1,2.2,3.8l0.1,0l-0.6,1.1h-45.3c-0.5,0-0.8-0.4-0.8-0.8v-44.6
				c0-0.5,0.4-0.8,0.8-0.8h66.1c0.5,0,0.8,0.4,0.8,0.8L167.5,518.1L167.5,518.1z"/>
		</g>
	</g>
	<g id="Grupo_350" transform="translate(9.017 54.51)">
		<g id="Grupo_349">
			<path id="Trazado_283" class="st1" d="M145.1,498.1c-3.6,0-6.6,2.9-6.6,6.6c0,3.6,2.9,6.6,6.6,6.6c3.6,0,6.6-2.9,6.6-6.6
				c0,0,0,0,0,0C151.7,501,148.8,498.1,145.1,498.1z M145.1,509.1c-2.4,0-4.4-2-4.4-4.4c0-2.4,2-4.4,4.4-4.4s4.4,2,4.4,4.4v0
				C149.6,507.1,147.6,509.1,145.1,509.1C145.2,509.1,145.1,509.1,145.1,509.1L145.1,509.1z"/>
		</g>
	</g>
</g>
<g id="_882803" transform="translate(0.105 7.358)">
	<path id="Trazado_284" class="st2" d="M141.1,810.2h-1.6c-0.6,0-1.1,0.5-1.1,1.1c0,0,0,0,0,0v5.8c0,0.6,0.5,1.1,1.1,1.1l0,0h1.6
		c4.4,0,4.9-2.8,4.9-4C146,813,145.5,810.2,141.1,810.2z M140.6,816v-3.6c1.7,0,3.2,0.1,3.2,1.8C143.8,815.8,142.3,816,140.6,816
		L140.6,816z"/>
	<path id="Trazado_285" class="st2" d="M125.7,813.3c-0.2-0.6-0.8-0.9-1.4-0.7c-0.3,0.1-0.6,0.4-0.7,0.7l-2.3,7.2
		c-0.2,0.5,0.1,1.1,0.7,1.3c1.7,0.6,3.6,0.6,5.3,0c0.5-0.2,0.8-0.8,0.7-1.3L125.7,813.3z M123.8,820l0.9-2.9l0.9,2.9
		C125,820.1,124.4,820.1,123.8,820L123.8,820z"/>
	<path id="Trazado_286" class="st2" d="M168,798.8H99.4c-0.9,0-1.7,0.8-1.7,1.7v35.3c0,0.6,0.5,1.1,1.1,1.1h35.5
		c0.5,0,0.9-0.2,1.2-0.5l33.7-34.7c0.7-0.7,0.7-1.8,0-2.5C168.9,799,168.4,798.8,168,798.8z M134.1,834.8H99.8v-6.4
		c3.9,2.2,8.6,2.6,12.8,1c0.2,0.4,0.5,0.6,1,0.6h6.3c0.5,0,0.9-0.3,1-0.8l0.7-2.3c2,0.5,4,0.5,6,0l0.7,2.3c0.1,0.4,0.5,0.7,1,0.8
		h9.4L134.1,834.8z M99.8,824.6v-7.5c1.7,2.1,4.1,3.6,6.8,4.2c0.8,0.2,2.6,0.8,2.8,1.2c0,0.7-1,0.8-1.7,0.8
		c-1.9,0.1-3.7-0.5-5.2-1.5c-0.5-0.3-1.1-0.1-1.4,0.3c0,0,0,0.1-0.1,0.1L99.8,824.6z M140.7,828v-4.9c1.8,0.1,3.7-0.1,5.4-0.7
		L140.7,828z M141.9,820.9h-2.3c-0.6,0-1.1,0.5-1.1,1.1v5.8h-8.5l-0.8-2.5c-0.2-0.6-0.8-0.9-1.3-0.7c-2.2,0.7-4.5,0.7-6.7,0
		c-0.5-0.2-1.1,0.1-1.3,0.7c0,0,0,0,0,0l-0.8,2.6h-4l0.2-0.4c0.2-0.5,0-1-0.4-1.3c-1.5-1.1-1.5,2-7.2,2.1c-2.2,0-4.5-0.5-6.5-1.5
		l1.2-2.4c1.6,0.9,3.5,1.4,5.3,1.3c2.7-0.1,3.7-1.5,3.7-2.9c0.1-4.4-10.7-2.4-10.6-9.5c0.1-5.2,7-7.3,14-4.4l-1.4,2.4
		c-4.2-1.9-8.8-1.4-8.9,1.4c0,1.4,1.4,2.5,4.6,3.6c3.1,1,5.9,2.1,6.3,4.9c0.1,0.6,0.6,1,1.2,0.9c0.4,0,0.7-0.3,0.9-0.7l4.9-13.5h4.6
		l5.8,16.3c0.2,0.5,0.8,0.8,1.3,0.7c0.4-0.1,0.7-0.6,0.7-1v-15.9c8,0,14.6-0.8,14.6,6.7C149.5,818.5,146.7,820.9,141.9,820.9
		L141.9,820.9z M151.2,817.1c1.1-3.4,0.1-7.1-2.4-9.5c-2.4-1.6-5.2-2.3-8-2.1h-7c-0.6,0-1.1,0.5-1.1,1.1v10.9l-4-11.3
		c-0.1-0.4-0.5-0.7-1-0.7h-6c-0.4,0-0.8,0.3-1,0.7l-4.3,11.7c-2.6-3.6-8.2-3.7-9.7-5.4c0.6-0.4,1.3-0.5,2-0.4c1.6,0,3.3,0.5,4.7,1.3
		c0.5,0.2,1.1,0.1,1.4-0.4c2.6-4.7,2.7-4.6,2.5-5.2c-0.1-0.3-0.3-0.5-0.6-0.7c-5.4-2.8-13.7-3.2-17,2v-8.3h67.2L151.2,817.1z"/>
</g>
<g id="_2950657" transform="translate(0.1 227.392)">
	<g id="Grupo_351" transform="translate(0 30.11)">
		<path id="Trazado_287" class="st0" d="M160.2,1269h-33.5c-0.6,0-1.1,0.4-1.1,1c0,0.6,0.4,1.1,1,1.1c0.1,0,0.1,0,0.2,0h33.5
			c0.6,0,1.1-0.4,1.1-1c0-0.6-0.4-1.1-1-1.1C160.3,1269,160.2,1269,160.2,1269z"/>
		<path id="Trazado_288" class="st0" d="M160.2,1277.1h-33.5c-0.6,0-1.1,0.4-1.1,1c0,0.6,0.4,1.1,1,1.1c0.1,0,0.1,0,0.2,0h33.5
			c0.6,0,1.1-0.4,1.1-1c0-0.6-0.4-1.1-1-1.1C160.3,1277.1,160.2,1277.1,160.2,1277.1z"/>
		<path id="Trazado_289" class="st0" d="M160.2,1285.1h-33.5c-0.6,0-1.1,0.4-1.1,1c0,0.6,0.4,1.1,1,1.1c0.1,0,0.1,0,0.2,0h33.5
			c0.6,0,1.1-0.4,1.1-1c0-0.6-0.4-1.1-1-1.1C160.3,1285.1,160.2,1285.1,160.2,1285.1z"/>
		<path id="Trazado_290" class="st0" d="M163.5,1259.8h-40.2c-3.4,0-6.1,2.7-6.1,6.1v25.3c0,3.4,2.7,6.1,6.1,6.1h28.1
			c0.3,0,0.6,0.1,0.8,0.4l9.1,11.5c0.3,0.4,0.9,0.7,1.4,0.7c0.2,0,0.4,0,0.6-0.1c0.7-0.3,1.2-0.9,1.2-1.7v-10.8c2.9-0.5,5-3.1,5-6
			v-25.3C169.6,1262.5,166.9,1259.8,163.5,1259.8z M167.6,1291.2c0,2.2-1.8,4-4,4c-0.6,0-1,0.5-1,1.1v11l-8.6-10.9
			c-0.6-0.7-1.5-1.2-2.4-1.2h-28.1c-2.2,0-4-1.8-4-4v-25.3c0-2.2,1.8-4,4-4h40.2c2.2,0,4,1.8,4,4L167.6,1291.2z"/>
		<path id="Trazado_291" class="st0" d="M113.2,1277.2c-0.7,0.1-1.4,0.5-1.8,1l-7.2,9.2v-9.2c0-0.6-0.5-1-1-1.1
			c-1.8,0-3.3-1.5-3.3-3.4v-22c0-1.9,1.5-3.4,3.4-3.4h35c1.9,0,3.4,1.5,3.4,3.4v4.1c0,0.6,0.4,1.1,1,1.1c0.6,0,1.1-0.4,1.1-1
			c0-0.1,0-0.1,0-0.2v-4.1c0-3-2.5-5.5-5.5-5.5h-35c-3,0-5.5,2.5-5.5,5.5v22c0,2.6,1.8,4.8,4.4,5.4v9.3c0,0.7,0.5,1.4,1.2,1.7
			c0.2,0.1,0.4,0.1,0.6,0.1c0.5,0,1-0.2,1.4-0.7l7.9-10c0.1-0.1,0.3-0.2,0.5-0.3c0.6,0,1-0.5,1-1.1c0-0.6-0.5-1-1.1-1
			C113.3,1277.2,113.2,1277.2,113.2,1277.2L113.2,1277.2z"/>
	</g>
</g>
<path id="_1442912" class="st2" d="M148.8,1287.1c1,1,1,2.5,0,3.5l-16.5,16.5c-1,1-2.5,1-3.5,0l-7.9-7.9c-0.9-1-0.8-2.6,0.2-3.5
	c0.9-0.8,2.3-0.8,3.3,0l6.1,6.1l14.8-14.8C146.2,1286.1,147.8,1286.1,148.8,1287.1z M166.3,1297.1c0,17.4-14.1,31.5-31.5,31.5
	s-31.5-14.1-31.5-31.5c0-17.4,14.1-31.5,31.5-31.5C152.2,1265.6,166.3,1279.7,166.3,1297.1C166.3,1297.1,166.3,1297.1,166.3,1297.1z
	 M161.4,1297.1c0-14.7-11.9-26.6-26.6-26.6c-14.7,0-26.6,11.9-26.6,26.6s11.9,26.6,26.6,26.6
	C149.5,1323.7,161.4,1311.8,161.4,1297.1C161.4,1297.1,161.4,1297.1,161.4,1297.1z"/>
<g id="clipboard" transform="translate(0.804 171.492)">
	<path id="Trazado_292" class="st3" d="M139.3,880.1h3.5c0.5,0,0.8-0.4,0.8-0.8c0-0.5-0.4-0.8-0.8-0.8h-3.5c-0.5,0-0.8,0.4-0.8,0.8
		C138.5,879.7,138.9,880.1,139.3,880.1z"/>
	<path id="Trazado_293" class="st3" d="M123.9,880.1h12.3c0.5,0,0.8-0.4,0.8-0.8c0-0.5-0.4-0.8-0.8-0.8h-12.3
		c-0.5,0-0.8,0.4-0.8,0.8C123.1,879.7,123.4,880.1,123.9,880.1z"/>
	<path id="Trazado_294" class="st3" d="M115.4,880.1h5.2c0.5,0,0.8-0.4,0.8-0.8c0-0.5-0.4-0.8-0.8-0.8h-5.2c-0.5,0-0.8,0.4-0.8,0.8
		C114.6,879.7,115,880.1,115.4,880.1z"/>
	<path id="Trazado_295" class="st3" d="M134.2,885.7h-14.6c-0.5,0-0.8,0.4-0.8,0.8c0,0.5,0.4,0.8,0.8,0.8h14.6
		c0.5,0,0.8-0.4,0.8-0.8C135.1,886.1,134.7,885.7,134.2,885.7z"/>
	<path id="Trazado_296" class="st3" d="M115.4,887.3h1.5c0.5,0,0.8-0.4,0.8-0.8c0-0.5-0.4-0.8-0.8-0.8h-1.5c-0.5,0-0.8,0.4-0.8,0.8
		C114.6,886.9,115,887.3,115.4,887.3z"/>
	<path id="Trazado_297" class="st3" d="M115.4,895h9.8c0.5,0,0.8-0.4,0.8-0.8c0-0.5-0.4-0.8-0.8-0.8h-9.8c-0.5,0-0.8,0.4-0.8,0.8
		C114.6,894.6,115,895,115.4,895z"/>
	<path id="Trazado_298" class="st3" d="M119.4,900.5h-3.9c-0.5,0-0.8,0.4-0.8,0.8c0,0.5,0.4,0.8,0.8,0.8h3.9c0.5,0,0.8-0.4,0.8-0.8
		C120.2,900.9,119.8,900.5,119.4,900.5z"/>
	<path id="Trazado_299" class="st3" d="M163.1,874.5c-1.1-1.6-3.2-2.1-4.9-1l-0.9,0.6l0,0l-1.6,1V863c0-1.9-1.6-3.5-3.5-3.5h-18
		c-1.3-2.8-4.7-4-7.5-2.7c-1.2,0.6-2.1,1.5-2.7,2.7h-18c-1.9,0-3.5,1.6-3.5,3.5c0,0,0,0,0,0v55.9c0,1.9,1.6,3.5,3.5,3.5h46.2
		c1.9,0,3.5-1.6,3.5-3.5v-33.6l7.1-4.7c1.6-1.1,2.1-3.2,1-4.9c0,0,0,0,0,0L163.1,874.5z M132.6,898.5l-1-1.5l27.8-18.3l1,1.5
		L132.6,898.5z M147.9,905.6h-4.3c-1.9,0-3.5,1.6-3.5,3.5v4.2h-29.1c-0.3,0-0.5-0.2-0.5-0.5V869c0-0.3,0.2-0.5,0.5-0.5l0,0h3.7v2.3
		c0,0.5,0.4,0.8,0.8,0.8h27.4c0.5,0,0.8-0.4,0.8-0.8v-2.3h3.7c0.3,0,0.5,0.2,0.5,0.5v11.2l-19.8,13h0l0,0l-0.1,0.1l0,0l-0.1,0.1l0,0
		l0,0.1l0,0l-3.8,6.5l-1.1,0.7c-0.4,0.2-0.5,0.8-0.2,1.1s0.8,0.5,1.1,0.2l0,0l1.1-0.7l7.4-0.9h0.1h0.1h0h0.1h0l0.1,0l0,0l15.1-10
		V905.6z M146.8,907.3l-5.1,5.1v-3.2c0-1,0.8-1.9,1.9-1.9L146.8,907.3z M130.9,899l-4.6,0.6l2.3-4l1.1,1.7L130.9,899z M130.7,895.6
		l-1-1.5l25.6-16.9l0,0l2.2-1.4l1,1.5L130.7,895.6z M152.2,861.1c1,0,1.9,0.8,1.9,1.9v13.2l-4.6,3V869c0-1.2-1-2.2-2.2-2.2h-3.7
		v-2.5c0-0.5-0.4-0.8-0.8-0.8h-8v-1.6c0-0.3,0-0.5-0.1-0.8H152.2z M129.1,857.9c2.2,0,4,1.8,4,4v2.4c0,0.5,0.4,0.8,0.8,0.8h8v4.8
		h-25.8v-4.8h8c0.5,0,0.8-0.4,0.8-0.8v-2.4C125.1,859.7,126.9,857.9,129.1,857.9z M154.1,918.9c0,1-0.8,1.9-1.9,1.9H106
		c-1,0-1.9-0.8-1.9-1.9V863c0-1,0.8-1.9,1.9-1.9h17.5c0,0.3-0.1,0.5-0.1,0.8v1.6h-8.1c-0.5,0-0.8,0.4-0.8,0.8v2.5h-3.7
		c-1.2,0-2.2,1-2.2,2.2v43.8c0,1.2,1,2.2,2.2,2.2h29.4c0.1,0,0.2,0,0.3,0c0.1,0,0.1,0,0.2,0c0.2,0,0.5-0.1,0.6-0.3
		c0.2-0.1,0.4-0.3,0.6-0.4l6.7-6.7c0.5-0.5,0.7-1.1,0.7-1.7v-16.5l4.6-3V918.9z M162,879.2l-0.2,0.1l-2.8-4.3l0.2-0.1
		c0.9-0.6,2-0.3,2.6,0.6c0,0,0,0,0,0l0.8,1.2C163.1,877.5,162.8,878.6,162,879.2C161.9,879.2,161.9,879.2,162,879.2L162,879.2z"/>
</g>
</svg>
