<?xml version="1.0" encoding="utf-8"?>
<!-- Generator: Adobe Illustrator 24.1.2, SVG Export Plug-In . SVG Version: 6.00 Build 0)  -->
<svg version="1.1" id="Capa_1" xmlns="http://www.w3.org/2000/svg" xmlns:xlink="http://www.w3.org/1999/xlink" x="0px" y="0px"
	 viewBox="0 0 250 250" style="enable-background:new 0 0 250 250;" xml:space="preserve">
<style type="text/css">
	.st0{fill:#8C8B95;stroke:#8C8B95;stroke-width:0.2;}
	.st1{fill:#8C8B95;}
	.st2{fill:#8C8B95;stroke:#8C8B95;stroke-width:0.1;}
</style>
<g id="_2950657" transform="translate(0.1 227.392)">
	<g id="Grupo_351" transform="translate(0 30.11)">
		<path id="Trazado_287" class="st0" d="M154.2,345h-33.5c-0.6,0-1.1,0.4-1.1,1c0,0.6,0.4,1.1,1,1.1c0.1,0,0.1,0,0.2,0h33.5
			c0.6,0,1.1-0.4,1.1-1c0-0.6-0.4-1.1-1-1.1C154.3,345,154.2,345,154.2,345z"/>
		<path id="Trazado_288" class="st0" d="M154.2,353.1h-33.5c-0.6,0-1.1,0.4-1.1,1c0,0.6,0.4,1.1,1,1.1c0.1,0,0.1,0,0.2,0h33.5
			c0.6,0,1.1-0.4,1.1-1c0-0.6-0.4-1.1-1-1.1C154.3,353.1,154.2,353.1,154.2,353.1z"/>
		<path id="Trazado_289" class="st0" d="M154.2,361.1h-33.5c-0.6,0-1.1,0.4-1.1,1c0,0.6,0.4,1.1,1,1.1c0.1,0,0.1,0,0.2,0h33.5
			c0.6,0,1.1-0.4,1.1-1c0-0.6-0.4-1.1-1-1.1C154.3,361.1,154.2,361.1,154.2,361.1z"/>
		<path id="Trazado_290" class="st0" d="M157.5,335.8h-40.2c-3.4,0-6.1,2.7-6.1,6.1v25.3c0,3.4,2.7,6.1,6.1,6.1h28.1
			c0.3,0,0.6,0.1,0.8,0.4l9.1,11.5c0.3,0.4,0.9,0.7,1.4,0.7c0.2,0,0.4,0,0.6-0.1c0.7-0.3,1.2-0.9,1.2-1.7v-10.8c2.9-0.5,5-3.1,5-6
			v-25.3C163.6,338.5,160.9,335.8,157.5,335.8z M161.6,367.2c0,2.2-1.8,4-4,4c-0.6,0-1,0.5-1,1.1v11l-8.6-10.9
			c-0.6-0.7-1.5-1.2-2.4-1.2h-28.1c-2.2,0-4-1.8-4-4v-25.3c0-2.2,1.8-4,4-4h40.2c2.2,0,4,1.8,4,4L161.6,367.2z"/>
		<path id="Trazado_291" class="st0" d="M107.2,353.2c-0.7,0.1-1.4,0.5-1.8,1l-7.2,9.2v-9.2c0-0.6-0.5-1-1-1.1
			c-1.8,0-3.3-1.5-3.3-3.4v-22c0-1.9,1.5-3.4,3.4-3.4h35c1.9,0,3.4,1.5,3.4,3.4v4.1c0,0.6,0.4,1.1,1,1.1c0.6,0,1.1-0.4,1.1-1
			c0-0.1,0-0.1,0-0.2v-4.1c0-3-2.5-5.5-5.5-5.5h-35c-3,0-5.5,2.5-5.5,5.5v22c0,2.6,1.8,4.8,4.4,5.4v9.3c0,0.7,0.5,1.4,1.2,1.7
			c0.2,0.1,0.4,0.1,0.6,0.1c0.5,0,1-0.2,1.4-0.7l7.9-10c0.1-0.1,0.3-0.2,0.5-0.3c0.6,0,1-0.5,1-1.1c0-0.6-0.5-1-1.1-1
			C107.3,353.2,107.2,353.2,107.2,353.2L107.2,353.2z"/>
	</g>
</g>
<path id="_1442912" class="st1" d="M142.8,363.1c1,1,1,2.5,0,3.5l-16.5,16.5c-1,1-2.5,1-3.5,0l-7.9-7.9c-0.9-1-0.8-2.6,0.2-3.5
	c0.9-0.8,2.3-0.8,3.3,0l6.1,6.1l14.8-14.8C140.2,362.1,141.8,362.1,142.8,363.1z M160.3,373.1c0,17.4-14.1,31.5-31.5,31.5
	s-31.5-14.1-31.5-31.5c0-17.4,14.1-31.5,31.5-31.5C146.2,341.6,160.3,355.7,160.3,373.1C160.3,373.1,160.3,373.1,160.3,373.1z
	 M155.4,373.1c0-14.7-11.9-26.6-26.6-26.6c-14.7,0-26.6,11.9-26.6,26.6c0,14.7,11.9,26.6,26.6,26.6
	C143.5,399.7,155.4,387.8,155.4,373.1C155.4,373.1,155.4,373.1,155.4,373.1z"/>
<g id="clipboard" transform="translate(0.804 171.492)">
	<path id="Trazado_292" class="st2" d="M140.8-72.7h10c1.3,0,2.4-1.1,2.4-2.4c0-1.3-1.1-2.4-2.4-2.4h-10c-1.3,0-2.4,1.1-2.4,2.4
		C138.5-73.8,139.5-72.7,140.8-72.7z"/>
	<path id="Trazado_293" class="st2" d="M96.9-72.7h35c1.3,0,2.4-1.1,2.4-2.4c0-1.3-1.1-2.4-2.4-2.4h-35c-1.3,0-2.4,1.1-2.4,2.4
		C94.5-73.8,95.6-72.7,96.9-72.7z"/>
	<path id="Trazado_294" class="st2" d="M72.9-72.7h14.9c1.3,0,2.4-1.1,2.4-2.4c0-1.3-1.1-2.4-2.4-2.4H72.9c-1.3,0-2.4,1.1-2.4,2.4
		C70.5-73.8,71.6-72.7,72.9-72.7z"/>
	<path id="Trazado_295" class="st2" d="M126.3-56.8H84.9c-1.3,0-2.4,1.1-2.4,2.4c0,1.3,1.1,2.4,2.4,2.4h41.4c1.3,0,2.4-1.1,2.4-2.4
		C128.7-55.7,127.6-56.8,126.3-56.8z"/>
	<path id="Trazado_296" class="st2" d="M72.9-52.1h4.3c1.3,0,2.4-1.1,2.4-2.4c0-1.3-1.1-2.4-2.4-2.4h-4.3c-1.3,0-2.4,1.1-2.4,2.4
		C70.5-53.2,71.6-52.1,72.9-52.1z"/>
	<path id="Trazado_297" class="st2" d="M72.9-30.3h27.7c1.3,0,2.4-1.1,2.4-2.4c0-1.3-1.1-2.4-2.4-2.4H72.9c-1.3,0-2.4,1.1-2.4,2.4
		C70.5-31.3,71.6-30.3,72.9-30.3z"/>
	<path id="Trazado_298" class="st2" d="M84.1-14.7H72.8c-1.3,0-2.4,1.1-2.4,2.4s1.1,2.4,2.4,2.4h11.2c1.3,0,2.4-1.1,2.4-2.4
		S85.4-14.7,84.1-14.7z"/>
	<path id="Trazado_299" class="st2" d="M208.3-88.7c-3-4.6-9.2-5.9-13.8-2.9l-2.5,1.7l0,0l-4.5,2.9v-34.4c0-5.5-4.5-10-10-10h-51.2
		c-3.8-8-13.4-11.4-21.4-7.6c-3.3,1.6-6,4.3-7.6,7.6H46.2c-5.5,0-10,4.5-10,10c0,0,0,0,0,0V37.5c0,5.5,4.5,10,10,10h131.3
		c5.5,0,10-4.5,10-10v-95.6l20.2-13.3c4.6-3,5.9-9.2,2.9-13.8c0,0,0,0,0,0L208.3-88.7z M121.6-20.4l-2.8-4.2l79.1-51.9l2.8,4.2
		L121.6-20.4z M165.1-0.2h-12.3c-5.5,0-10,4.5-10,10v12H60.1c-0.8,0-1.5-0.7-1.5-1.5v-124.4c0-0.8,0.7-1.5,1.5-1.5h0h10.5v6.4
		c0,1.3,1,2.3,2.3,2.3h77.9c1.3,0,2.3-1,2.3-2.3v-6.4h10.5c0.8,0,1.5,0.7,1.5,1.5v31.9L109-35.4h-0.1l0,0l-0.3,0.3l0,0l-0.2,0.2l0,0
		l-0.1,0.2l0,0L97.6-16.3l-3.1,2.1c-1.1,0.7-1.4,2.2-0.7,3.2c0.7,1.1,2.2,1.4,3.2,0.7l0,0l3.1-2.1l21-2.5h0.2h0.2h0.1h0.2h0.1
		l0.2-0.1l0,0l43-28.5V-0.2z M162,4.6l-14.4,14.4V9.8c0-2.9,2.4-5.3,5.3-5.3L162,4.6z M116.9-19l-13.2,1.6l6.7-11.5l3.3,5L116.9-19z
		 M116.3-28.5l-2.8-4.2l72.9-48l0,0l6.1-4l2.8,4.2L116.3-28.5z M177.5-126.6c2.9,0,5.3,2.4,5.3,5.3v37.5l-13,8.5v-28.8
		c0-3.4-2.7-6.1-6.1-6.2h-10.5v-7.2c0-1.3-1-2.3-2.3-2.3h-22.9v-4.5c0-0.8-0.1-1.5-0.2-2.2H177.5z M111.8-135.7
		c6.3,0,11.4,5.1,11.4,11.4v6.9c0,1.3,1,2.3,2.3,2.3h22.9v13.7H75.2v-13.7h22.8c1.3,0,2.3-1,2.3-2.3v-6.9
		C100.5-130.7,105.6-135.7,111.8-135.7z M182.8,37.5c0,2.9-2.4,5.3-5.3,5.3H46.2c-2.9,0-5.3-2.4-5.3-5.3v-158.8
		c0-2.9,2.4-5.3,5.3-5.3H96c-0.1,0.7-0.2,1.5-0.2,2.2v4.5H72.9c-1.3,0-2.3,1-2.3,2.3v7.2H60.1c-3.4,0-6.1,2.8-6.2,6.2V20.3
		c0,3.4,2.8,6.1,6.2,6.2h83.6c0.3,0,0.6,0,0.9,0c0.2,0,0.4,0,0.6,0c0.7,0,1.3-0.3,1.8-0.8c0.6-0.3,1.2-0.7,1.7-1.2l19.2-19.1
		c1.3-1.3,2-3.1,2-4.9v-46.9l13-8.6V37.5z M205.1-75.3l-0.6,0.4l-8.1-12.3l0.6-0.4c2.5-1.6,5.7-0.9,7.3,1.6c0,0,0,0,0,0l2.3,3.5
		C208.2-80.2,207.5-76.9,205.1-75.3C205.1-75.3,205.1-75.3,205.1-75.3L205.1-75.3z"/>
</g>
</svg>
