<?xml version="1.0" encoding="utf-8"?>
<!-- Generator: Adobe Illustrator 24.1.2, SVG Export Plug-In . SVG Version: 6.00 Build 0)  -->
<svg version="1.1" id="Capa_1" xmlns="http://www.w3.org/2000/svg" xmlns:xlink="http://www.w3.org/1999/xlink" x="0px" y="0px"
	 viewBox="0 0 250 250" style="enable-background:new 0 0 250 250;" xml:space="preserve">
<style type="text/css">
	.st0{fill:#8F8E97;}
</style>
<g id="_992680" transform="translate(0 -0.85)">
	<g id="Grupo_353" transform="translate(0 0.85)">
		<g id="Grupo_352" transform="translate(0 0)">
			<path id="Trazado_300" class="st0" d="M124.3,179.2H74.6c-3,0-5.5-2.5-5.5-5.5V74.3c0-3,2.5-5.5,5.5-5.5l0,0h49.7
				c3.1,0,5.5-2.5,5.5-5.5s-2.5-5.5-5.5-5.5H74.6c-9.1,0-16.6,7.4-16.6,16.6v99.4c0,9.1,7.4,16.6,16.6,16.6h49.7
				c3,0,5.5-2.5,5.5-5.5S127.3,179.2,124.3,179.2L124.3,179.2z"/>
		</g>
	</g>
	<g id="Grupo_355" transform="translate(3.842 3.251)">
		<g id="Grupo_354">
			<path id="Trazado_301" class="st0" d="M185.5,117.7l-33.6-33.1c-2.2-2.1-5.7-2.1-7.8,0.1c-2.1,2.2-2.1,5.7,0.1,7.8l0,0l24,23.7
				h-64.3c-3,0-5.5,2.5-5.5,5.5c0,3,2.5,5.5,5.5,5.5h64.3l-24,23.7c-2.2,2.1-2.2,5.6-0.1,7.8c2.1,2.2,5.6,2.2,7.8,0.1l33.6-33.1
				C187.6,123.4,187.7,119.9,185.5,117.7C185.5,117.7,185.5,117.7,185.5,117.7L185.5,117.7z"/>
		</g>
	</g>
</g>
</svg>
