<svg xmlns="http://www.w3.org/2000/svg" xmlns:xlink="http://www.w3.org/1999/xlink" width="456" height="134" viewBox="0 0 456 134">
  <defs>
    <radialGradient id="radial-gradient" cx="0.5" cy="0.551" r="0.752" gradientTransform="translate(0.046) scale(0.907 1)" gradientUnits="objectBoundingBox">
      <stop offset="0.001" stop-color="#4da2d0"/>
      <stop offset="0.301" stop-color="#1e9cd7"/>
      <stop offset="0.984" stop-color="#00479a"/>
    </radialGradient>
    <linearGradient id="linear-gradient" x1="0.501" y1="-0.068" x2="0.496" y2="0.826" gradientUnits="objectBoundingBox">
      <stop offset="0" stop-color="#fff" stop-opacity="0"/>
      <stop offset="1" stop-color="#fff"/>
    </linearGradient>
    <linearGradient id="linear-gradient-2" x1="0.501" y1="-0.16" x2="0.496" y2="0.845" xlink:href="#linear-gradient"/>
    <linearGradient id="linear-gradient-3" x1="-0.638" y1="0.058" x2="1.328" y2="0.956" gradientTransform="matrix(1, 0, 0, 1, 0, 0)" xlink:href="#radial-gradient"/>
    <linearGradient id="linear-gradient-4" x1="-1.812" y1="-0.313" x2="0.558" y2="0.585" gradientTransform="matrix(1, 0, 0, 1, 0, 0)" xlink:href="#radial-gradient"/>
    <linearGradient id="linear-gradient-5" x1="0.046" y1="0.333" x2="2.465" y2="1.23" gradientTransform="matrix(1, 0, 0, 1, 0, 0)" xlink:href="#radial-gradient"/>
    <clipPath id="clip-ZAPTalent-Logotipo-Original">
      <rect width="456" height="134"/>
    </clipPath>
  </defs>
  <g id="ZAPTalent-Logotipo-Original" clip-path="url(#clip-ZAPTalent-Logotipo-Original)">
    <g id="Grupo_296" data-name="Grupo 296" transform="translate(-544.484 -487.33)">
      <g id="Grupo_288" data-name="Grupo 288" transform="translate(555.484 499.33)">
        <path id="Trazado_241" data-name="Trazado 241" d="M658.166,550.672a51.341,51.341,0,1,0-81.186,41.763c1.937-5.38,5.066-12.359,7.247-15.3,5.538-7.464,13.648-12.472,22.684-12.472,9.444,0,17.876,5.472,23.42,13.5,1.815,2.628,4.477,9.147,6.258,14.326A51.262,51.262,0,0,0,658.166,550.672Z" transform="translate(-555.484 -499.33)" fill="url(#radial-gradient)"/>
        <path id="Trazado_242" data-name="Trazado 242" d="M602.926,552.453c-9.036,0-17.145,5.008-22.684,12.472-2.181,2.938-5.308,9.918-7.247,15.3a51.286,51.286,0,0,0,59.609.058c-1.782-5.179-4.444-11.7-6.259-14.326C620.8,557.925,612.37,552.453,602.926,552.453Z" transform="translate(-551.458 -487.118)" fill="#fff"/>
        <path id="Trazado_243" data-name="Trazado 243" d="M636.772,527.31a48.873,48.873,0,0,0-3.551-18.475,51.361,51.361,0,0,0-59.531,0,48.9,48.9,0,0,0-3.549,18.475c0,18.548,9.96,34.223,23.64,39.338a24.6,24.6,0,0,1,19.351,0C626.812,561.533,636.772,545.858,636.772,527.31Z" transform="translate(-552.115 -499.33)" opacity="0.2" fill="url(#linear-gradient)"/>
        <circle id="Elipse_25" data-name="Elipse 25" cx="18.555" cy="18.555" r="18.555" transform="translate(32.786 32.786)" fill="#fff"/>
        <path id="Trazado_244" data-name="Trazado 244" d="M632.546,508.381c-.212-.145-.422-.293-.636-.435q-.769-.513-1.558-1c-.113-.07-.224-.145-.338-.214q-.95-.576-1.926-1.107c-.2-.112-.411-.218-.616-.327q-.7-.371-1.411-.722-.36-.177-.724-.349-.72-.339-1.454-.657c-.212-.092-.422-.188-.636-.277-.692-.29-1.391-.568-2.1-.828-.112-.042-.226-.077-.339-.118q-.908-.327-1.83-.62c-.24-.076-.483-.148-.726-.22q-.764-.229-1.537-.437c-.251-.066-.5-.134-.753-.2-.587-.148-1.178-.283-1.773-.41-.165-.036-.328-.075-.5-.109q-1.135-.229-2.286-.408c-.2-.031-.4-.055-.6-.084q-.871-.125-1.748-.223-.4-.042-.793-.079-.838-.077-1.681-.128c-.245-.015-.488-.032-.734-.043-.8-.037-1.6-.062-2.4-.062h0c-.806,0-1.606.025-2.4.06-.246.012-.491.03-.735.044q-.843.052-1.68.128c-.266.025-.53.05-.794.079-.584.064-1.166.139-1.745.221-.2.029-.4.054-.606.085q-1.151.179-2.285.408c-.169.034-.333.075-.5.111q-.891.188-1.77.408c-.252.063-.5.13-.755.2q-.771.207-1.534.437c-.244.073-.487.144-.728.221q-.92.292-1.824.616c-.114.042-.231.079-.347.12-.706.26-1.4.537-2.1.826-.214.09-.426.186-.638.279q-.732.317-1.453.656-.363.172-.724.349-.71.35-1.408.722c-.207.109-.414.215-.619.327-.649.357-1.291.723-1.924,1.107-.117.07-.23.146-.346.218q-.784.483-1.55.994c-.216.144-.429.293-.643.439s-.445.317-.668.476a48.491,48.491,0,0,0-3.474,15.883c.724,15.248,8.007,30.062,18.376,36.99a18.555,18.555,0,1,1,29.747,0c10.368-6.928,17.651-21.742,18.376-36.99a48.521,48.521,0,0,0-3.474-15.883C632.995,508.7,632.772,508.537,632.546,508.381Z" transform="translate(-552.102 -499.33)" opacity="0.2" fill="url(#linear-gradient-2)"/>
      </g>
      <g id="Grupo_295" data-name="Grupo 295" transform="translate(683.065 527.524)">
        <g id="Grupo_289" data-name="Grupo 289" transform="translate(1.969 66.832)">
          <path id="Trazado_245" data-name="Trazado 245" d="M669.366,588.164v1.1h-8.547V577.184h8.288v1.106H662.1v4.3h6.25v1.086H662.1v4.49Z" transform="translate(-660.819 -576.458)" fill="#616161"/>
          <path id="Trazado_246" data-name="Trazado 246" d="M679.2,583.455v5.265h-1.226v-5.145c0-1.916-1-2.9-2.728-2.9a2.978,2.978,0,0,0-3.177,3.28v4.766h-1.226v-9.082h1.174v1.675a3.815,3.815,0,0,1,3.454-1.744C677.68,579.57,679.2,580.848,679.2,583.455Z" transform="translate(-658.515 -575.91)" fill="#616161"/>
          <path id="Trazado_247" data-name="Trazado 247" d="M694.167,576.594V589.4h-1.173v-1.8a3.935,3.935,0,0,1-3.505,1.883,4.62,4.62,0,0,1,0-9.238,3.97,3.97,0,0,1,3.453,1.8v-5.456Zm-1.208,8.27a3.379,3.379,0,1,0-3.366,3.54A3.322,3.322,0,0,0,692.959,584.864Z" transform="translate(-655.268 -576.594)" fill="#616161"/>
          <path id="Trazado_248" data-name="Trazado 248" d="M695.325,584.18a4.619,4.619,0,1,1,4.628,4.628A4.467,4.467,0,0,1,695.325,584.18Zm7.994,0a3.379,3.379,0,1,0-3.366,3.54A3.312,3.312,0,0,0,703.319,584.18Z" transform="translate(-652.886 -575.91)" fill="#616161"/>
          <path id="Trazado_249" data-name="Trazado 249" d="M714.07,583.455v5.265h-1.226v-5.145c0-1.916-1-2.9-2.728-2.9a2.978,2.978,0,0,0-3.177,3.28v4.766h-1.226v-9.082h1.175v1.675a3.813,3.813,0,0,1,3.453-1.744C712.551,579.57,714.07,580.848,714.07,583.455Z" transform="translate(-650.498 -575.91)" fill="#616161"/>
          <path id="Trazado_250" data-name="Trazado 250" d="M724.546,576.594V589.4h-1.173v-1.8a3.936,3.936,0,0,1-3.505,1.883,4.62,4.62,0,0,1,0-9.238,3.969,3.969,0,0,1,3.453,1.8v-5.456Zm-1.208,8.27a3.379,3.379,0,1,0-3.367,3.54A3.322,3.322,0,0,0,723.338,584.864Z" transform="translate(-648.284 -576.594)" fill="#616161"/>
          <path id="Trazado_251" data-name="Trazado 251" d="M734.527,584.56h-7.6a3.362,3.362,0,0,0,3.574,3.16,3.573,3.573,0,0,0,2.78-1.192l.691.8a4.8,4.8,0,0,1-8.271-3.144,4.374,4.374,0,0,1,4.439-4.61,4.327,4.327,0,0,1,4.4,4.61C734.544,584.284,734.527,584.422,734.527,584.56Zm-7.6-.915h6.441a3.227,3.227,0,0,0-6.441,0Z" transform="translate(-645.903 -575.91)" fill="#616161"/>
          <path id="Trazado_252" data-name="Trazado 252" d="M745.337,588.526a2.92,2.92,0,0,1-1.917.64,2.406,2.406,0,0,1-2.658-2.643v-5.49h-1.623V580h1.623v-1.985h1.225V580h2.762v1.036h-2.762v5.421a1.454,1.454,0,0,0,1.571,1.658,2.028,2.028,0,0,0,1.348-.466Z" transform="translate(-642.814 -576.268)" fill="#616161"/>
          <path id="Trazado_253" data-name="Trazado 253" d="M755.031,579.626v9.082h-1.174v-1.657a3.61,3.61,0,0,1-3.263,1.744c-2.313,0-3.832-1.3-3.832-3.9v-5.266h1.226v5.145c0,1.933,1,2.919,2.728,2.919,1.9,0,3.089-1.226,3.089-3.3v-4.766Z" transform="translate(-641.062 -575.897)" fill="#616161"/>
          <path id="Trazado_254" data-name="Trazado 254" d="M770.1,576.594V589.4h-1.173v-1.8a3.936,3.936,0,0,1-3.505,1.883,4.62,4.62,0,0,1,0-9.238,3.966,3.966,0,0,1,3.452,1.8v-5.456Zm-1.208,8.27a3.38,3.38,0,1,0-3.367,3.54A3.322,3.322,0,0,0,768.892,584.864Z" transform="translate(-637.812 -576.594)" fill="#616161"/>
          <path id="Trazado_255" data-name="Trazado 255" d="M780.081,584.56h-7.6a3.361,3.361,0,0,0,3.573,3.16,3.577,3.577,0,0,0,2.781-1.192l.69.8a4.8,4.8,0,0,1-8.27-3.144,4.374,4.374,0,0,1,4.438-4.61,4.327,4.327,0,0,1,4.4,4.61C780.1,584.284,780.081,584.422,780.081,584.56Zm-7.6-.915h6.44a3.226,3.226,0,0,0-6.44,0Z" transform="translate(-635.431 -575.91)" fill="#616161"/>
          <path id="Trazado_256" data-name="Trazado 256" d="M780.3,587.685l.552-.968a5.48,5.48,0,0,0,3.228,1.02c1.726,0,2.435-.587,2.435-1.486,0-2.364-5.889-.5-5.889-4.091,0-1.486,1.279-2.59,3.591-2.59a6.152,6.152,0,0,1,3.212.846l-.536.984a4.656,4.656,0,0,0-2.676-.777c-1.641,0-2.364.64-2.364,1.5,0,2.451,5.886.6,5.886,4.092,0,1.571-1.381,2.59-3.746,2.59A6.066,6.066,0,0,1,780.3,587.685Z" transform="translate(-633.352 -575.91)" fill="#616161"/>
          <path id="Trazado_257" data-name="Trazado 257" d="M794.078,588.526a2.92,2.92,0,0,1-1.917.64,2.406,2.406,0,0,1-2.658-2.643v-5.49h-1.623V580H789.5v-1.985h1.225V580h2.762v1.036h-2.762v5.421a1.455,1.455,0,0,0,1.572,1.658,2.027,2.027,0,0,0,1.347-.466Z" transform="translate(-631.61 -576.268)" fill="#616161"/>
          <path id="Trazado_258" data-name="Trazado 258" d="M802.569,583.092v5.628h-1.175V587.3a3.408,3.408,0,0,1-3.125,1.5c-2.054,0-3.315-1.071-3.315-2.643,0-1.4.9-2.572,3.505-2.572h2.882v-.552c0-1.555-.879-2.4-2.572-2.4a4.628,4.628,0,0,0-3.021,1.071l-.553-.915a5.767,5.767,0,0,1,3.695-1.226C801.239,579.57,802.569,580.745,802.569,583.092Zm-1.227,2.9v-1.486h-2.848c-1.761,0-2.329.691-2.329,1.623,0,1.053.845,1.708,2.3,1.708A2.9,2.9,0,0,0,801.342,585.994Z" transform="translate(-629.983 -575.91)" fill="#616161"/>
          <path id="Trazado_259" data-name="Trazado 259" d="M803.981,584.18a4.47,4.47,0,0,1,4.678-4.61,3.967,3.967,0,0,1,3.557,1.8l-.915.622a3.087,3.087,0,0,0-2.642-1.348,3.541,3.541,0,0,0,0,7.079,3.071,3.071,0,0,0,2.642-1.33l.915.622a4.006,4.006,0,0,1-3.557,1.8A4.485,4.485,0,0,1,803.981,584.18Z" transform="translate(-627.908 -575.91)" fill="#616161"/>
          <path id="Trazado_260" data-name="Trazado 260" d="M820.467,583.092v5.628h-1.173V587.3a3.408,3.408,0,0,1-3.125,1.5c-2.055,0-3.315-1.071-3.315-2.643,0-1.4.9-2.572,3.5-2.572h2.883v-.552c0-1.555-.881-2.4-2.573-2.4a4.63,4.63,0,0,0-3.021,1.071l-.552-.915a5.764,5.764,0,0,1,3.695-1.226C819.138,579.57,820.467,580.745,820.467,583.092Zm-1.226,2.9v-1.486h-2.848c-1.761,0-2.331.691-2.331,1.623,0,1.053.845,1.708,2.3,1.708A2.9,2.9,0,0,0,819.241,585.994Z" transform="translate(-625.868 -575.91)" fill="#616161"/>
          <path id="Trazado_261" data-name="Trazado 261" d="M821.571,587.685l.553-.968a5.471,5.471,0,0,0,3.228,1.02c1.726,0,2.434-.587,2.434-1.486,0-2.364-5.887-.5-5.887-4.091,0-1.486,1.278-2.59,3.591-2.59a6.147,6.147,0,0,1,3.211.846l-.535.984a4.659,4.659,0,0,0-2.676-.777c-1.641,0-2.366.64-2.366,1.5,0,2.451,5.887.6,5.887,4.092,0,1.571-1.381,2.59-3.746,2.59A6.072,6.072,0,0,1,821.571,587.685Z" transform="translate(-623.864 -575.91)" fill="#616161"/>
        </g>
        <g id="Grupo_294" data-name="Grupo 294">
          <g id="Grupo_292" data-name="Grupo 292" transform="translate(117.466 0.302)">
            <g id="Grupo_290" data-name="Grupo 290">
              <path id="Trazado_262" data-name="Trazado 262" d="M754.728,529.913h14.289v38.545H777.5V529.913h14.289V522.5H754.728Z" transform="translate(-754.728 -522.5)" fill="gray"/>
              <path id="Trazado_263" data-name="Trazado 263" d="M798.433,534.673c-5.746,0-10.844,2.618-13.371,4.179l-.7.429,3.056,5.341.739-.432c3.613-2.117,6.548-3.1,9.235-3.1,3.682,0,5.783,1.6,6.258,4.752-14.311,1.184-20.168,4.52-20.168,11.424,0,5.356,4.324,9.1,10.516,9.1,4.211,0,8.073-2.149,10.458-3.838l.392,3.136h6.407V547.594C811.258,539.382,806.583,534.673,798.433,534.673Zm5.3,16.589v5.375c-2.932,2.32-5.506,3.4-8.077,3.4-1.439,0-4.788-.314-4.788-3.211C790.872,554.718,792.36,552.2,803.736,551.262Z" transform="translate(-748.117 -519.701)" fill="gray"/>
              <path id="Trazado_264" data-name="Trazado 264" d="M831.68,561.027a11.936,11.936,0,0,1-4.779,1.129c-3.013,0-4.542-1.588-4.542-4.72V524.758H805.014V531.1h9.824v25.981c0,7.344,3.9,11.556,10.7,11.556a19.622,19.622,0,0,0,8.191-1.723l.739-.293-1.936-5.97Z" transform="translate(-743.168 -521.981)" fill="gray"/>
              <path id="Trazado_265" data-name="Trazado 265" d="M843.218,534.673c-10.075,0-15.511,8.139-15.511,15.8,0,9.506,6.58,15.891,16.374,15.891a21.1,21.1,0,0,0,11.6-3.533l.654-.43-2.844-5.139-.751.454a14.73,14.73,0,0,1-7.918,2.395c-5.249,0-8.593-2.546-9.473-7.081h21.492l.113-.716a22.036,22.036,0,0,0,.277-3.3C857.229,540.3,851.729,534.673,843.218,534.673Zm.16,6.206c4.672,0,6.362,3,6.839,6.185H835.556A7.883,7.883,0,0,1,843.378,540.879Z" transform="translate(-737.951 -519.701)" fill="gray"/>
              <path id="Trazado_266" data-name="Trazado 266" d="M870.382,534.673c-4.425,0-7.667,2.215-10.083,4.477l-.385-3.774h-6.376v30.283h7.521V545.443c2.655-2.691,4.557-4.056,7.309-4.056,3.043,0,5.07,1.1,5.07,6.453v17.819h7.522V547.076C880.961,541.418,879.126,534.673,870.382,534.673Z" transform="translate(-732.012 -519.701)" fill="gray"/>
              <path id="Trazado_267" data-name="Trazado 267" d="M905.666,560.046l-.861.315a17.417,17.417,0,0,1-6.223,1.17c-4.423,0-6.067-1.748-6.067-6.451v-11.8H906v-6.345h-13.49v-9.063h-6.459l-.765,9.091-8.175.306v6.01h7.879v11.782c0,8.532,4.118,12.858,12.24,12.858a27.421,27.421,0,0,0,9.324-1.711l.751-.261Z" transform="translate(-726.593 -521.264)" fill="gray"/>
            </g>
            <g id="Grupo_291" data-name="Grupo 291" transform="translate(181.763 14.947)">
              <path id="Trazado_268" data-name="Trazado 268" d="M902.516,538.4a3.513,3.513,0,1,1,3.509,3.719A3.545,3.545,0,0,1,902.516,538.4Zm6.411,0a2.916,2.916,0,1,0-2.9,3.162A2.975,2.975,0,0,0,908.927,538.4Zm-4.209-2.056h1.322c.751,0,1.477.285,1.477,1.236a1.132,1.132,0,0,1-.759,1.072l.941,1.667h-.717l-.743-1.459h-.915v1.459h-.606Zm1.162,1.985c.589,0,.981-.2.981-.71,0-.435-.226-.733-.915-.733h-.622v1.443Z" transform="translate(-902.516 -534.653)" fill="gray"/>
            </g>
          </g>
          <g id="Grupo_293" data-name="Grupo 293">
            <path id="Trazado_269" data-name="Trazado 269" d="M701.638,522.286,687.332,568.22h12.053l2.7-10.522h12l2.684,10.522h12.423l-14.306-45.934Zm2.885,25.919.776-3.021c.793-3.128,1.716-6.932,2.751-11.342.722,3.008,1.515,6.119,2.235,8.947l1.38,5.415Z" transform="translate(-652.755 -522.246)" fill="url(#linear-gradient-3)"/>
            <path id="Trazado_270" data-name="Trazado 270" d="M740.26,522.286H723.718V568.22h11.706V553.214h4.836c11.212,0,18.177-6.074,18.177-15.852C758.437,527.5,752.151,522.286,740.26,522.286Zm-.582,21.288h-4.254V531.926h4.254c5.148,0,7.248,1.575,7.248,5.436C746.926,541.6,744.624,543.574,739.678,543.574Z" transform="translate(-644.39 -522.246)" fill="url(#linear-gradient-4)"/>
            <path id="Trazado_271" data-name="Trazado 271" d="M692.889,531.132l.141-.2v-8.677H660.013l-.367,11.156h18.188l-18.48,26.714-.137.2v7.914h33.789l.221-11.1H674.8Z" transform="translate(-659.218 -522.254)" fill="url(#linear-gradient-5)"/>
          </g>
        </g>
      </g>
    </g>
  </g>
</svg>
