<?xml version="1.0" encoding="utf-8"?>
<!-- Generator: Adobe Illustrator 25.0.0, SVG Export Plug-In . SVG Version: 6.00 Build 0)  -->
<svg version="1.1" id="Capa_1" xmlns="http://www.w3.org/2000/svg" xmlns:xlink="http://www.w3.org/1999/xlink" x="0px" y="0px"
	 viewBox="0 0 456 134" style="enable-background:new 0 0 456 134;" xml:space="preserve">
<style type="text/css">
	.st0{fill:url(#Trazado_241_1_);}
	.st1{fill:#FFFFFF;}
	.st2{opacity:0.2;fill:url(#Trazado_243_1_);enable-background:new    ;}
	.st3{opacity:0.2;fill:url(#Trazado_244_1_);enable-background:new    ;}
</style>
<g>
	<g id="ZAPTalent-Logotipo-Original">
		<g id="Grupo_296" transform="translate(-544.484 -487.33)">
			<g id="Grupo_288" transform="translate(555.484 499.33)">
				
					<radialGradient id="Trazado_241_1_" cx="-86.6727" cy="447.9286" r="0.7516" gradientTransform="matrix(93.1326 0 0 -93.1703 8123.3955 41784.9883)" gradientUnits="userSpaceOnUse">
					<stop  offset="1.000000e-03" style="stop-color:#4DA2D0"/>
					<stop  offset="0.301" style="stop-color:#1E9CD7"/>
					<stop  offset="0.984" style="stop-color:#00479A"/>
				</radialGradient>
				<path id="Trazado_241" class="st0" d="M102.7,51.3C102.7,23,79.7,0,51.4,0C23,0,0,23,0,51.3c0,16.6,8,32.1,21.5,41.8
					c1.9-5.4,5.1-12.4,7.2-15.3c5.5-7.5,13.6-12.5,22.7-12.5c9.4,0,17.9,5.5,23.4,13.5c1.8,2.6,4.5,9.1,6.3,14.3
					C94.6,83.5,102.7,68,102.7,51.3z"/>
				<path id="Trazado_242" class="st1" d="M51.5,65.3c-9,0-17.1,5-22.7,12.5c-2.2,2.9-5.3,9.9-7.2,15.3
					c17.8,12.7,41.8,12.8,59.6,0.1c-1.8-5.2-4.4-11.7-6.3-14.3C69.3,70.8,60.9,65.3,51.5,65.3z"/>
				
					<linearGradient id="Trazado_243_1_" gradientUnits="userSpaceOnUse" x1="-86.3417" y1="447.1956" x2="-86.3467" y2="446.3016" gradientTransform="matrix(66.6317 0 0 -67.3175 5804.6162 30099.5273)">
					<stop  offset="0" style="stop-color:#FFFFFF;stop-opacity:0"/>
					<stop  offset="1" style="stop-color:#FFFFFF"/>
				</linearGradient>
				<path id="Trazado_243" class="st2" d="M84.7,28c0-6.3-1.2-12.6-3.6-18.5C63.3-3.2,39.4-3.2,21.6,9.5C19.2,15.4,18,21.6,18,28
					c0,18.5,10,34.2,23.6,39.3c6.2-2.6,13.2-2.6,19.4,0C74.7,62.2,84.7,46.5,84.7,28z"/>
				<circle id="Elipse_25" class="st1" cx="51.3" cy="51.3" r="18.6"/>
				
					<linearGradient id="Trazado_244_1_" gradientUnits="userSpaceOnUse" x1="-86.3393" y1="446.9039" x2="-86.3443" y2="445.8989" gradientTransform="matrix(66.499 0 0 -62.4039 5793.0034 27878.5703)">
					<stop  offset="0" style="stop-color:#FFFFFF;stop-opacity:0"/>
					<stop  offset="1" style="stop-color:#FFFFFF"/>
				</linearGradient>
				<path id="Trazado_244" class="st3" d="M80.4,9.1c-0.2-0.1-0.4-0.3-0.6-0.4c-0.5-0.3-1-0.7-1.6-1c-0.1-0.1-0.2-0.1-0.3-0.2
					C77.3,7,76.6,6.6,76,6.3c-0.2-0.1-0.4-0.2-0.6-0.3c-0.5-0.2-0.9-0.5-1.4-0.7c-0.2-0.1-0.5-0.2-0.7-0.3c-0.5-0.2-1-0.4-1.5-0.7
					c-0.2-0.1-0.4-0.2-0.6-0.3c-0.7-0.3-1.4-0.6-2.1-0.8c-0.1,0-0.2-0.1-0.3-0.1c-0.6-0.2-1.2-0.4-1.8-0.6c-0.2-0.1-0.5-0.1-0.7-0.2
					c-0.5-0.2-1-0.3-1.5-0.4c-0.3-0.1-0.5-0.1-0.8-0.2c-0.6-0.1-1.2-0.3-1.8-0.4c-0.2,0-0.3-0.1-0.5-0.1c-0.8-0.2-1.5-0.3-2.3-0.4
					c-0.2,0-0.4-0.1-0.6-0.1c-0.6-0.1-1.2-0.2-1.7-0.2c-0.3,0-0.5-0.1-0.8-0.1c-0.6-0.1-1.1-0.1-1.7-0.1c-0.2,0-0.5,0-0.7,0
					C52.9,0,52.1,0,51.3,0l0,0c-0.8,0-1.6,0-2.4,0.1c-0.2,0-0.5,0-0.7,0c-0.6,0-1.1,0.1-1.7,0.1c-0.3,0-0.5,0-0.8,0.1
					c-0.6,0.1-1.2,0.1-1.7,0.2c-0.2,0-0.4,0.1-0.6,0.1c-0.8,0.1-1.5,0.3-2.3,0.4c-0.2,0-0.3,0.1-0.5,0.1c-0.6,0.1-1.2,0.3-1.8,0.4
					c-0.3,0.1-0.5,0.1-0.8,0.2c-0.5,0.1-1,0.3-1.5,0.4c-0.2,0.1-0.5,0.1-0.7,0.2C35.2,2.6,34.6,2.8,34,3c-0.1,0-0.2,0.1-0.3,0.1
					c-0.7,0.3-1.4,0.5-2.1,0.8c-0.2,0.1-0.4,0.2-0.6,0.3c-0.5,0.2-1,0.4-1.5,0.7C29.2,5,29,5.1,28.7,5.2c-0.5,0.2-0.9,0.5-1.4,0.7
					c-0.2,0.1-0.4,0.2-0.6,0.3c-0.6,0.4-1.3,0.7-1.9,1.1c-0.1,0.1-0.2,0.1-0.3,0.2c-0.5,0.3-1,0.7-1.5,1c-0.2,0.1-0.4,0.3-0.6,0.4
					s-0.4,0.3-0.7,0.5c-2,5.1-3.2,10.4-3.5,15.9c0.7,15.2,8,30.1,18.4,37c-6.1-8.2-4.4-19.8,3.8-26c8.2-6.1,19.8-4.4,26,3.8
					c4.9,6.6,4.9,15.6,0,22.2c10.4-6.9,17.7-21.7,18.4-37c-0.3-5.5-1.4-10.8-3.5-15.9C80.9,9.4,80.7,9.2,80.4,9.1z"/>
			</g>
			<g id="Grupo_295" transform="translate(683.065 527.524)">
				<g id="Grupo_289" transform="translate(1.969 66.832)">
					<path id="Trazado_245" class="st1" d="M8.5,11.7v1.1H0V0.7h8.3v1.1h-7v4.3h6.2v1.1H1.3v4.5L8.5,11.7z"/>
					<path id="Trazado_246" class="st1" d="M20.7,7.5v5.3h-1.2V7.7c0-1.9-1-2.9-2.7-2.9c-1.6-0.1-3.1,1.1-3.2,2.8c0,0.2,0,0.4,0,0.5
						v4.8h-1.2V3.7h1.2v1.7c0.7-1.2,2.1-1.8,3.5-1.7C19.2,3.7,20.7,4.9,20.7,7.5z"/>
					<path id="Trazado_247" class="st1" d="M38.9,0v12.8h-1.2V11c-0.7,1.2-2.1,1.9-3.5,1.9c-2.6-0.1-4.6-2.2-4.5-4.7
						c0.1-2.5,2-4.5,4.5-4.5c1.4,0,2.7,0.6,3.5,1.8V0L38.9,0z M37.7,8.3C37.6,6.4,36,5,34.2,5.1c-1.9,0.1-3.3,1.7-3.2,3.5
						c0.1,1.8,1.6,3.2,3.4,3.2c1.8,0,3.3-1.4,3.4-3.3C37.7,8.4,37.7,8.4,37.7,8.3z"/>
					<path id="Trazado_248" class="st1" d="M42.4,8.3c0-2.6,2.1-4.6,4.6-4.6c2.6,0,4.6,2.1,4.6,4.6c0,2.5-2.1,4.6-4.6,4.6
						c-2.5,0.1-4.5-1.8-4.6-4.3C42.4,8.5,42.4,8.4,42.4,8.3z M50.4,8.3c-0.1-1.9-1.7-3.3-3.5-3.2c-1.9,0.1-3.3,1.7-3.2,3.5
						c0.1,1.8,1.6,3.2,3.4,3.2c1.8,0,3.3-1.4,3.4-3.2C50.4,8.5,50.4,8.4,50.4,8.3L50.4,8.3z"/>
					<path id="Trazado_249" class="st1" d="M63.6,7.5v5.3h-1.2V7.7c0-1.9-1-2.9-2.7-2.9c-1.6-0.1-3.1,1.1-3.2,2.8c0,0.2,0,0.4,0,0.5
						v4.8h-1.2V3.7h1.2v1.7c0.7-1.2,2.1-1.8,3.5-1.7C62.1,3.7,63.6,4.9,63.6,7.5z"/>
					<path id="Trazado_250" class="st1" d="M76.3,0v12.8h-1.2V11c-0.7,1.2-2.1,1.9-3.5,1.9c-2.6-0.1-4.6-2.2-4.5-4.7
						c0.1-2.5,2-4.5,4.5-4.5c1.4,0,2.7,0.6,3.5,1.8V0L76.3,0z M75.1,8.3C75,6.4,73.4,5,71.5,5.1c-1.9,0.1-3.3,1.7-3.2,3.5
						c0.1,1.8,1.6,3.2,3.4,3.2c1.8,0,3.3-1.4,3.4-3.3C75.1,8.5,75.1,8.4,75.1,8.3z"/>
					<path id="Trazado_251" class="st1" d="M88.6,8.7H81c0.1,1.9,1.7,3.3,3.6,3.2c0,0,0,0,0,0c1.1,0,2.1-0.4,2.8-1.2l0.7,0.8
						c-1.8,1.9-4.9,2-6.8,0.2c-0.9-0.9-1.4-2.1-1.5-3.3c-0.1-2.4,1.7-4.5,4.1-4.6c0.1,0,0.2,0,0.3,0c2.4,0,4.4,1.9,4.4,4.2
						c0,0.1,0,0.2,0,0.4C88.6,8.4,88.6,8.5,88.6,8.7z M81,7.7h6.4c-0.1-1.8-1.6-3.1-3.4-3C82.4,4.8,81.1,6.1,81,7.7z"/>
					<path id="Trazado_252" class="st1" d="M102.5,12.3c-0.5,0.4-1.2,0.7-1.9,0.6c-1.3,0.1-2.5-0.8-2.7-2.1c0-0.2,0-0.3,0-0.5V4.8
						h-1.6v-1h1.6v-2h1.2v2h2.8v1h-2.8v5.4c-0.1,0.8,0.4,1.5,1.2,1.6c0.1,0,0.2,0,0.3,0c0.5,0,1-0.2,1.3-0.5L102.5,12.3z"/>
					<path id="Trazado_253" class="st1" d="M114,3.7v9.1h-1.2v-1.7c-0.7,1.1-1.9,1.8-3.3,1.7c-2.3,0-3.8-1.3-3.8-3.9V3.7h1.2v5.1
						c0,1.9,1,2.9,2.7,2.9c1.9,0,3.1-1.2,3.1-3.3V3.7L114,3.7z"/>
					<path id="Trazado_254" class="st1" d="M132.3,0v12.8h-1.2V11c-0.7,1.2-2.1,1.9-3.5,1.9c-2.6-0.1-4.6-2.2-4.5-4.7
						c0.1-2.5,2-4.5,4.5-4.5c1.4,0,2.7,0.6,3.5,1.8V0L132.3,0z M131.1,8.3c-0.1-1.9-1.7-3.3-3.5-3.2c-1.9,0.1-3.3,1.7-3.2,3.5
						c0.1,1.8,1.6,3.2,3.4,3.2c1.8,0,3.3-1.4,3.4-3.3C131.1,8.5,131.1,8.4,131.1,8.3L131.1,8.3z"/>
					<path id="Trazado_255" class="st1" d="M144.6,8.7H137c0.1,1.9,1.7,3.3,3.5,3.2c0,0,0,0,0,0c1.1,0,2.1-0.4,2.8-1.2l0.7,0.8
						c-1.8,1.9-4.9,2-6.8,0.2c-0.9-0.9-1.4-2.1-1.5-3.3c-0.1-2.4,1.7-4.5,4.1-4.6c0.1,0,0.2,0,0.3,0c2.4,0,4.4,1.9,4.4,4.2
						c0,0.1,0,0.2,0,0.4C144.7,8.4,144.6,8.5,144.6,8.7z M137,7.7h6.4c-0.1-1.8-1.6-3.1-3.4-3C138.4,4.8,137.1,6.1,137,7.7z"/>
					<path id="Trazado_256" class="st1" d="M146.9,11.8l0.6-1c0.9,0.7,2.1,1,3.2,1c1.7,0,2.4-0.6,2.4-1.5c0-2.4-5.9-0.5-5.9-4.1
						c0-1.5,1.3-2.6,3.6-2.6c1.1,0,2.2,0.3,3.2,0.8l-0.5,1c-0.8-0.5-1.7-0.8-2.7-0.8c-1.6,0-2.4,0.6-2.4,1.5c0,2.5,5.9,0.6,5.9,4.1
						c0,1.6-1.4,2.6-3.7,2.6C149.3,12.9,148,12.5,146.9,11.8z"/>
					<path id="Trazado_257" class="st1" d="M162.5,12.3c-0.5,0.4-1.2,0.7-1.9,0.6c-1.3,0.1-2.5-0.8-2.7-2.1c0-0.2,0-0.3,0-0.5V4.8
						h-1.6v-1h1.6v-2h1.2v2h2.8v1h-2.8v5.4c-0.1,0.8,0.4,1.5,1.2,1.6c0.1,0,0.2,0,0.3,0c0.5,0,1-0.2,1.3-0.5L162.5,12.3z"/>
					<path id="Trazado_258" class="st1" d="M172.6,7.2v5.6h-1.2v-1.4c-0.7,1-1.9,1.6-3.1,1.5c-2.1,0-3.3-1.1-3.3-2.6
						c0-1.4,0.9-2.6,3.5-2.6h2.9V7.1c0-1.6-0.9-2.4-2.6-2.4c-1.1,0-2.2,0.4-3,1.1l-0.6-0.9c1.1-0.8,2.4-1.3,3.7-1.2
						C171.3,3.7,172.6,4.8,172.6,7.2z M171.4,10.1V8.6h-2.8c-1.8,0-2.3,0.7-2.3,1.6c0,1.1,0.8,1.7,2.3,1.7
						C169.7,12,170.9,11.3,171.4,10.1L171.4,10.1z"/>
					<path id="Trazado_259" class="st1" d="M176.1,8.3c-0.1-2.5,1.9-4.5,4.3-4.6c0.1,0,0.2,0,0.4,0c1.4-0.1,2.8,0.6,3.6,1.8
						l-0.9,0.6c-0.6-0.9-1.6-1.4-2.6-1.3c-2,0.1-3.5,1.7-3.4,3.6c0.1,1.9,1.6,3.4,3.4,3.4c1.1,0,2-0.5,2.6-1.3l0.9,0.6
						c-0.8,1.2-2.1,1.9-3.6,1.8c-2.5,0.1-4.6-1.8-4.7-4.3C176.1,8.5,176.1,8.4,176.1,8.3z"/>
					<path id="Trazado_260" class="st1" d="M194.6,7.2v5.6h-1.2v-1.4c-0.7,1-1.9,1.6-3.1,1.5c-2.1,0-3.3-1.1-3.3-2.6
						c0-1.4,0.9-2.6,3.5-2.6h2.9V7.1c0-1.6-0.9-2.4-2.6-2.4c-1.1,0-2.2,0.4-3,1.1l-0.6-0.9c1.1-0.8,2.4-1.3,3.7-1.2
						C193.3,3.7,194.6,4.8,194.6,7.2z M193.4,10.1V8.6h-2.8c-1.8,0-2.3,0.7-2.3,1.6c0,1.1,0.8,1.7,2.3,1.7
						C191.8,12,192.9,11.3,193.4,10.1L193.4,10.1z"/>
					<path id="Trazado_261" class="st1" d="M197.7,11.8l0.6-1c0.9,0.7,2.1,1,3.2,1c1.7,0,2.4-0.6,2.4-1.5c0-2.4-5.9-0.5-5.9-4.1
						c0-1.5,1.3-2.6,3.6-2.6c1.1,0,2.2,0.3,3.2,0.8l-0.5,1c-0.8-0.5-1.7-0.8-2.7-0.8c-1.6,0-2.4,0.6-2.4,1.5c0,2.5,5.9,0.6,5.9,4.1
						c0,1.6-1.4,2.6-3.7,2.6C200.1,12.9,198.8,12.5,197.7,11.8z"/>
				</g>
				<g id="Grupo_294">
					<g id="Grupo_292" transform="translate(117.466 0.302)">
						<g id="Grupo_290">
							<path id="Trazado_262" class="st1" d="M0,7.4h14.3V46h8.5V7.4h14.3V0H0V7.4z"/>
							<path id="Trazado_263" class="st1" d="M50.3,15c-5.7,0-10.8,2.6-13.4,4.2l-0.7,0.4l3.1,5.3l0.7-0.4c3.6-2.1,6.5-3.1,9.2-3.1
								c3.7,0,5.8,1.6,6.3,4.8c-14.3,1.2-20.2,4.5-20.2,11.4c0,5.4,4.3,9.1,10.5,9.1c4.2,0,8.1-2.1,10.5-3.8l0.4,3.1h6.4V27.9
								C63.1,19.7,58.5,15,50.3,15z M55.6,31.6v5.4c-2.9,2.3-5.5,3.4-8.1,3.4c-1.4,0-4.8-0.3-4.8-3.2C42.8,35,44.2,32.5,55.6,31.6
								L55.6,31.6z"/>
							<path id="Trazado_264" class="st1" d="M88.5,39c-1.5,0.7-3.1,1.1-4.8,1.1c-3,0-4.5-1.6-4.5-4.7V2.8H61.8v6.3h9.8v26
								c0,7.3,3.9,11.6,10.7,11.6c2.8,0,5.6-0.6,8.2-1.7l0.7-0.3l-1.9-6L88.5,39z"/>
							<path id="Trazado_265" class="st1" d="M105.3,15c-10.1,0-15.5,8.1-15.5,15.8c0,9.5,6.6,15.9,16.4,15.9
								c4.1,0,8.2-1.2,11.6-3.5l0.7-0.4l-2.8-5.1l-0.8,0.5c-2.4,1.5-5.1,2.4-7.9,2.4c-5.2,0-8.6-2.5-9.5-7.1h21.5l0.1-0.7
								c0.2-1.1,0.3-2.2,0.3-3.3C119.3,20.6,113.8,15,105.3,15z M105.4,21.2c4.7,0,6.4,3,6.8,6.2H97.6
								C98.4,23.7,101.7,21.1,105.4,21.2L105.4,21.2z"/>
							<path id="Trazado_266" class="st1" d="M138.4,15c-4.4,0-7.7,2.2-10.1,4.5l-0.4-3.8h-6.4V46h7.5V25.7c2.7-2.7,4.6-4.1,7.3-4.1
								c3,0,5.1,1.1,5.1,6.5V46h7.5V27.4C148.9,21.7,147.1,15,138.4,15z"/>
							<path id="Trazado_267" class="st1" d="M179.1,38.8l-0.9,0.3c-2,0.8-4.1,1.2-6.2,1.2c-4.4,0-6.1-1.7-6.1-6.5V22h13.5v-6.3
								h-13.5V6.6h-6.5l-0.8,9.1l-8.2,0.3v6h7.9v11.8c0,8.5,4.1,12.9,12.2,12.9c3.2,0,6.3-0.6,9.3-1.7l0.8-0.3L179.1,38.8z"/>
						</g>
						<g id="Grupo_291" transform="translate(181.763 14.947)">
							<path id="Trazado_268" class="st1" d="M0,3.7c0.1-1.9,1.8-3.4,3.7-3.3S7.1,2.2,7,4.2C6.9,6,5.4,7.5,3.5,7.5
								C1.6,7.4,0,5.8,0,3.9C0,3.8,0,3.8,0,3.7z M6.4,3.7C6.3,2.1,4.9,1,3.3,1.1S0.5,2.6,0.6,4.2C0.7,5.8,2,6.9,3.5,6.9
								c1.6,0,2.9-1.4,2.9-3C6.4,3.8,6.4,3.8,6.4,3.7z M2.2,1.7h1.3C4.3,1.7,5,2,5,2.9C5,3.4,4.7,3.8,4.2,4l0.9,1.7H4.5L3.7,4.2H2.8
								v1.5H2.2L2.2,1.7z M3.4,3.7c0.6,0,1-0.2,1-0.7c0-0.4-0.2-0.7-0.9-0.7H2.8v1.4H3.4z"/>
						</g>
					</g>
					<g id="Grupo_293">
						<path id="Trazado_269" class="st1" d="M48.9,0L34.6,46h12.1l2.7-10.5h12L64,46h12.4L62.1,0L48.9,0z M51.8,26l0.8-3
							c0.8-3.1,1.7-6.9,2.8-11.3c0.7,3,1.5,6.1,2.2,8.9l1.4,5.4L51.8,26z"/>
						<path id="Trazado_270" class="st1" d="M95.9,0H79.3V46H91V31h4.8c11.2,0,18.2-6.1,18.2-15.9C114,5.3,107.8,0,95.9,0z
							 M95.3,21.3H91V9.7h4.3c5.1,0,7.2,1.6,7.2,5.4C102.5,19.4,100.2,21.3,95.3,21.3L95.3,21.3z"/>
						<path id="Trazado_271" class="st1" d="M33.7,8.9l0.1-0.2V0h-33L0.4,11.2h18.2L0.1,37.9L0,38.1V46h33.8L34,34.9H15.6L33.7,8.9z
							"/>
					</g>
				</g>
			</g>
		</g>
	</g>
</g>
</svg>
