<?xml version="1.0" encoding="utf-8"?>
<!-- Generator: Adobe Illustrator 24.1.2, SVG Export Plug-In . SVG Version: 6.00 Build 0)  -->
<svg version="1.1" id="Capa_1" xmlns="http://www.w3.org/2000/svg" xmlns:xlink="http://www.w3.org/1999/xlink" x="0px" y="0px"
	 viewBox="0 0 250 250" style="enable-background:new 0 0 250 250;" xml:space="preserve">
<style type="text/css">
	.st0{fill:#179ae6;}
</style>
<path id="Trazado_316" class="st0" d="M203.7,38.5c-11.4-11.4-29.9-11.4-41.3,0L46.7,154.3c-0.8,0.8-1.4,1.8-1.7,2.9L29.8,212
	c-1,3.5,1.1,7,4.5,8c1.1,0.3,2.3,0.3,3.5,0l54.9-15.2c1.1-0.3,2.1-0.9,2.9-1.7L211.3,87.5c11.4-11.4,11.4-29.9,0-41.3L203.7,38.5z
	 M60.8,158.5l94.7-94.7L186,94.4L91.3,189L60.8,158.5z M54.7,170.7l24.4,24.4l-33.8,9.4L54.7,170.7z M202.1,78.3l-6.9,6.9
	l-30.6-30.6l6.9-6.9c6.3-6.3,16.6-6.3,22.9,0c0,0,0,0,0,0l7.6,7.6C208.4,61.7,208.4,71.9,202.1,78.3z"/>
</svg>
