<?xml version="1.0" encoding="utf-8"?>
<!-- Generator: Adobe Illustrator 24.2.1, SVG Export Plug-In . SVG Version: 6.00 Build 0)  -->
<svg version="1.1" id="Capa_1" xmlns="http://www.w3.org/2000/svg" xmlns:xlink="http://www.w3.org/1999/xlink" x="0px" y="0px"
	 viewBox="0 0 200 200" style="enable-background:new 0 0 200 200;" xml:space="preserve">
<style type="text/css">
	.st0{fill:#FFFFFF;stroke:#FFFFFF;stroke-width:0.2;}
</style>
<g id="_900802_2" transform="translate(-0.008 0.113)">
	<g id="Grupo_1084" transform="translate(0.108 0)">
		<g id="Grupo_1083">
			<path id="Trazado_424" class="st0" d="M155.5,64.9c0.1-1,0.1-2,0.1-3c0.1-27.5-22.2-49.9-49.7-50c-22-0.1-41.4,14.3-47.8,35.3
				c-0.7,0-1.5-0.1-2.2-0.1c-24.3,0-44,19.7-44,44s19.7,44,44,44h26.4c1.6,0,2.9-1.3,2.9-2.9s-1.3-2.9-2.9-2.9H55.9
				c-21,0.9-38.8-15.5-39.7-36.5c-0.9-21,15.5-38.8,36.5-39.7c1.1,0,2.1,0,3.2,0c1.4,0,2.7,0.1,4,0.2c1.4,0.1,2.8-0.8,3.1-2.2
				c5.9-23.6,29.8-37.9,53.3-32c19.6,4.9,33.3,22.5,33.3,42.7c0,1.8-0.1,3.7-0.4,5.5c-0.2,1.6,0.9,3.1,2.5,3.3c0.1,0,0.2,0,0.4,0
				h0.4c16.2,0,29.3,13.1,29.3,29.3s-13.1,29.3-29.3,29.3l0,0h-34.9c-1.6,0-2.9,1.3-2.9,2.9s1.3,2.9,2.9,2.9l0,0h35
				c19.4,0,35.2-15.7,35.2-35.1C187.9,81.6,173.8,66.3,155.5,64.9L155.5,64.9z"/>
			<path id="Trazado_425" class="st0" d="M135.1,101.7L99.8,66.5l-35.3,35.3l4.1,4.1l28.2-28.2v110.2h5.9V77.7l28.2,28.2
				L135.1,101.7z"/>
		</g>
	</g>
</g>
</svg>
