<?xml version="1.0" encoding="utf-8"?>
<!-- Generator: Adobe Illustrator 24.2.1, SVG Export Plug-In . SVG Version: 6.00 Build 0)  -->
<svg version="1.1" id="Capa_1" xmlns="http://www.w3.org/2000/svg" xmlns:xlink="http://www.w3.org/1999/xlink" x="0px" y="0px"
	 viewBox="0 0 250 250" style="enable-background:new 0 0 250 250;" xml:space="preserve">
<style type="text/css">
	.st0{fill:#2C4ECA;stroke:#FFFFFF;stroke-miterlimit:10;}
</style>
<path id="Flecha" class="st0" d="M151.8,213.3l84.2-83.5c0-0.4,0.3-0.7,0.6-0.7c0,0,0,0,0,0c0.7-1.2,1.2-2.6,1.3-4
	c0-1.8-0.7-3.5-2-4.6l0,0l-84.2-84.2c-2.5-2.6-6.5-2.7-9.1-0.2c-0.1,0.1-0.1,0.1-0.2,0.2c-2.6,2.5-2.7,6.5-0.2,9.1
	c0.1,0.1,0.1,0.1,0.2,0.2l72.1,72.1H19.7c-3.7,0-6.7,3-6.7,6.7c0,3.7,3,6.7,6.7,6.7c0,0,0,0,0,0h194.9L142.5,204
	c-2.7,2.5-2.9,6.6-0.4,9.3c2.5,2.7,6.6,2.9,9.3,0.4C151.6,213.6,151.7,213.4,151.8,213.3L151.8,213.3z"/>
</svg>
