<?xml version="1.0" encoding="utf-8"?>
<!-- Generator: Adobe Illustrator 24.2.1, SVG Export Plug-In . SVG Version: 6.00 Build 0)  -->
<svg version="1.1" id="Capa_1" xmlns="http://www.w3.org/2000/svg" xmlns:xlink="http://www.w3.org/1999/xlink" x="0px" y="0px"
	 viewBox="0 0 250 250" style="enable-background:new 0 0 250 250;" xml:space="preserve">
<style type="text/css">
	.st0{fill:#2C4ECA;stroke:#FFFFFF;stroke-miterlimit:10;}
</style>
<path id="Flecha" class="st0" d="M99.2,36.5L15,120c0,0.4-0.3,0.7-0.6,0.7c0,0,0,0,0,0c-0.7,1.2-1.2,2.6-1.3,4c0,1.8,0.7,3.5,2,4.6
	l0,0l84.2,84.2c2.5,2.6,6.5,2.7,9.1,0.2c0.1-0.1,0.1-0.1,0.2-0.2c2.6-2.5,2.7-6.5,0.2-9.1c-0.1-0.1-0.1-0.1-0.2-0.2L36.4,132h194.9
	c3.7,0,6.7-3,6.7-6.7c0-3.7-3-6.7-6.7-6.7c0,0,0,0,0,0H36.4l72.1-72.8c2.7-2.5,2.9-6.6,0.4-9.3c-2.5-2.7-6.6-2.9-9.3-0.4
	C99.4,36.2,99.3,36.3,99.2,36.5L99.2,36.5z"/>
</svg>
