<?xml version="1.0" encoding="utf-8"?>
<!-- Generator: Adobe Illustrator 24.2.1, SVG Export Plug-In . SVG Version: 6.00 Build 0)  -->
<svg version="1.1" id="Capa_1" xmlns="http://www.w3.org/2000/svg" xmlns:xlink="http://www.w3.org/1999/xlink" x="0px" y="0px"
	 viewBox="0 0 200 200" style="enable-background:new 0 0 200 200;" xml:space="preserve">
<style type="text/css">
	.st0{fill:#FFFFFF;}
</style>
<g id="Grupo_865" transform="translate(0.168 -92.685)">
	<g id="Grupo_862" transform="translate(0 92.835)">
		<g id="Grupo_861" transform="translate(0 0)">
			<g id="Trazado_381">
				<path class="st0" d="M171.6,97c-1.3-1.8-32.2-43.5-71.8-43.5S29.4,95.2,28.1,97c-1.2,1.7-1.2,4,0,5.7
					c1.3,1.8,32.2,43.5,71.8,43.5s70.5-41.7,71.8-43.5C172.8,101,172.8,98.7,171.6,97z M99.8,136.6c-29.1,0-54.3-27.7-61.7-36.8
					c7.5-9.1,32.6-36.8,61.7-36.8s54.3,27.7,61.7,36.8C154.2,108.9,129,136.6,99.8,136.6z"/>
			</g>
		</g>
	</g>
	<g id="Grupo_864" transform="translate(5.975 95.225)">
		<g id="Grupo_863">
			<g id="Trazado_382">
				<path class="st0" d="M93.9,68.7c-15.9,0-28.7,12.9-28.7,28.7c0,15.9,12.9,28.7,28.7,28.7c15.9,0,28.7-12.9,28.7-28.7
					c0,0,0,0,0,0C122.6,81.6,109.7,68.7,93.9,68.7z M93.9,116.6c-10.6,0-19.2-8.6-19.2-19.2s8.6-19.2,19.2-19.2S113,86.9,113,97.5
					c0,0,0,0,0,0C113,108,104.4,116.6,93.9,116.6z"/>
			</g>
		</g>
	</g>
</g>
</svg>
