<?xml version="1.0" encoding="utf-8"?>
<!-- Generator: Adobe Illustrator 24.0.3, SVG Export Plug-In . SVG Version: 6.00 Build 0)  -->
<svg version="1.1" id="Capa_1" xmlns="http://www.w3.org/2000/svg" xmlns:xlink="http://www.w3.org/1999/xlink" x="0px" y="0px"
	 viewBox="-50 -25 350 350" style="enable-background:new 0 0 250 250;" xml:space="preserve">
<style type="text/css">
	.st0{fill: #c7c7c7;}
</style>
<g>
	<path class="st0" d="M202.6,179.8c-0.2-0.2-0.5-0.4-0.7-0.5c-13.6-11.8-21.4-28.9-21.4-46.9v-10.1c0,0,0,0,0,0
		c0-3.8-3.1-6.9-6.9-6.9c-3.8,0-6.9,3.1-6.9,6.9v10.1c0,22.3,9.8,43.6,26.9,58c0.1,0.1,0.3,0.2,0.4,0.3c0.3,0.4,0.5,0.9,0.5,1.4
		c0,1.3-1,2.3-2.3,2.3H39.4c-1.3,0-2.3-1-2.3-2.3c0-0.5,0.2-1,0.5-1.4c0.2-0.1,0.3-0.2,0.4-0.3c17-14.5,26.9-35.7,26.9-58v-25.8
		c0-28.1,22.8-50.8,50.9-50.9c0.8,0,1.5,0,2.3,0.1c3.8,0.6,7.3-1.9,8-5.7c0.6-3.8-1.9-7.3-5.7-8c-1.5-0.2-3-0.3-4.5-0.3
		C80,41.8,51.1,70.8,51,106.5v25.8c0,18-7.8,35.1-21.3,46.9c-0.3,0.2-0.5,0.4-0.8,0.6c-3.6,3.1-5.7,7.6-5.7,12.3
		c0,8.9,7.2,16.2,16.2,16.2h42.3C85,224.1,99,236,115.7,236c16.8,0,30.8-11.9,34-27.7h42.3c4.7,0,9.2-2.1,12.3-5.7
		C210.2,195.8,209.4,185.6,202.6,179.8z M115.8,222.1c-9.1,0-16.7-5.8-19.6-13.9h39.2C132.5,216.3,124.8,222.1,115.8,222.1z"/>
	<path class="st0" d="M180.5,14c-25.5,0-46.2,20.7-46.2,46.2s20.7,46.2,46.2,46.2c25.5,0,46.2-20.7,46.2-46.2
		C226.8,34.7,206,14,180.5,14z M212.9,60.2c0,17.9-14.5,32.4-32.4,32.4c-17.9,0-32.4-14.5-32.4-32.4c0-17.9,14.5-32.4,32.4-32.4v0
		C198.4,27.9,212.9,42.4,212.9,60.2C212.9,60.2,212.9,60.2,212.9,60.2z"/>
</g>
</svg>
