<?xml version="1.0" encoding="utf-8"?>
<!-- Generator: Adobe Illustrator 24.1.2, SVG Export Plug-In . SVG Version: 6.00 Build 0)  -->
<svg version="1.1" id="Capa_1" xmlns="http://www.w3.org/2000/svg" xmlns:xlink="http://www.w3.org/1999/xlink" x="0px" y="0px"
	 viewBox="-70 -70 780 780" style="enable-background:new 0 0 150 150;" xml:space="preserve">
<style type="text/css">
	.st0{fill:#FFFFFF;}
</style>
<g>
	<path class="st0" d="M223.6,177.7c-0.2-1-0.4-2.1-0.7-3.1c-0.3-1-0.6-2-1-3c-0.2-0.5-0.4-1-0.6-1.5c-1.8-3.8-4.5-7.2-7.8-9.9
		l-4.6-3.7c-9.4-7.5-14.8-18.8-14.8-30.9v-10.3c0,0,0,0,0,0V99.3c0-0.2,0-0.5,0-0.8c-0.6-14.6-5.8-28.5-15-40.1
		c-6-7.5-13.3-13.7-21.5-18.1c0,0,0,0,0,0c-0.4-0.2-0.7-0.4-1.1-0.6c-0.4-0.2-0.7-0.4-1.1-0.5c-0.3-0.1-0.6-0.3-0.9-0.4
		c-0.6-0.3-1.3-0.6-1.9-0.9c0,0-0.1,0-0.1,0c-0.8-0.3-1.6-0.7-2.3-1c-0.1,0-0.1,0-0.2-0.1c-0.7-0.3-1.5-0.6-2.2-0.8
		c-0.1,0-0.2-0.1-0.3-0.1c-0.8-0.3-1.6-0.5-2.4-0.8c0.6-1.4,1.1-2.9,1.3-4.3c0.1-0.4,0.1-0.7,0.2-1.1c0.1-0.7,0.2-1.5,0.2-2.2
		c0-0.7,0-1.5,0-2.2c-0.1-1.1-0.2-2.2-0.4-3.2c-0.1-0.7-0.3-1.4-0.5-2.1c-0.6-2.1-1.6-4.1-2.8-5.9c-2.3-3.4-5.3-6-8.9-7.7
		c-0.3-0.2-0.7-0.3-1-0.4c-1.3-0.6-2.7-1-4.2-1.3c-1-0.2-2.1-0.3-3.2-0.4l-1.3-0.1h-0.1h-0.1l-1.3,0.1c-1.1,0-2.2,0.2-3.2,0.4
		c-0.4,0.1-0.9,0.2-1.3,0.3c-0.5,0.1-1.1,0.3-1.6,0.5c-0.4,0.1-0.9,0.3-1.3,0.5c-0.3,0.1-0.7,0.3-1,0.4c-0.5,0.2-1,0.5-1.5,0.8
		c-0.2,0.1-0.5,0.3-0.7,0.4c-1.4,0.9-2.7,1.9-3.9,3.1c0,0,0,0,0,0c-1,1-2,2.2-2.8,3.4c-1.2,1.8-2.1,3.8-2.8,5.9
		c-0.1,0.3-0.2,0.7-0.3,1c-0.3,1.4-0.6,2.8-0.6,4.3c0,0.7,0,1.4,0,2.2c0,0.7,0.1,1.5,0.2,2.2c0.1,0.4,0.1,0.7,0.2,1.1
		c0.2,1.4,0.7,2.9,1.3,4.3c-0.8,0.2-1.6,0.5-2.4,0.8c-0.1,0-0.2,0.1-0.3,0.1c-0.7,0.3-1.5,0.5-2.2,0.8c-0.1,0-0.1,0-0.2,0.1
		c-0.8,0.3-1.6,0.6-2.3,1c0,0-0.1,0-0.1,0c-0.6,0.3-1.3,0.6-1.9,0.9c-0.3,0.1-0.6,0.3-0.9,0.4c-0.4,0.2-0.7,0.4-1.1,0.5
		c-0.4,0.2-0.7,0.4-1.1,0.6c0,0,0,0,0,0C83.3,44.7,76,50.8,70,58.4C60.8,70,55.7,83.8,55,98.4c0,0.3,0,0.6,0,0.8v16.1c0,0,0,0,0,0
		v10.3c0,12.1-5.4,23.3-14.8,30.9l-4.6,3.7c-3.3,2.7-6,6.1-7.8,9.9c-0.2,0.5-0.4,1-0.6,1.5c-1.4,3.4-2.2,7.1-2.2,10.8
		c0,2.9,0.4,5.7,1.3,8.4c0.3,0.9,0.6,1.7,1,2.6c0.9,2.1,2,4.1,3.4,5.9c1.1,1.4,2.3,2.8,3.6,4c0.3,0.3,0.7,0.6,1,0.9
		c4.9,4,11.1,6.4,17.9,6.4l0,0h37.2c0,4.3,0.9,8.6,2.5,12.5c0.2,0.5,0.4,1,0.6,1.5c0.5,1,0.9,1.9,1.5,2.8c1.4,2.3,3,4.4,4.9,6.4
		c6.2,6.3,14.3,10,23.2,10.3l1.2,0h0.1h0.1l1.2,0c8.8-0.3,17-3.9,23.2-10.3c1.9-2,3.5-4.1,4.9-6.4c0.5-0.9,1-1.9,1.5-2.8
		c0.2-0.5,0.4-1,0.6-1.5c1.6-3.9,2.5-8.1,2.5-12.5h37.2h0c6.8,0,13-2.4,17.9-6.4c0.7-0.6,1.4-1.2,2-1.8c1-1,1.8-2,2.7-3.1
		c1.4-1.8,2.5-3.8,3.4-5.9c0.4-0.8,0.7-1.7,1-2.6c0.8-2.6,1.3-5.5,1.3-8.4C224,180.8,223.9,179.2,223.6,177.7z M124.4,31.7h-0.1
		l-1.2,0c-0.3,0-0.5,0-0.8,0c-1.2,0-2.4,0.1-3.6,0.2c-1.4,0.1-2.9,0.3-4.3,0.5c-0.8-1.2-1.3-2.5-1.6-4c-0.7-3.1-0.1-6.2,1.7-8.8
		c1.8-2.7,4.4-4.4,7.5-5c0.4-0.1,0.8-0.1,1.3-0.2l1.2-0.1l1.2,0.1c0.5,0,0.9,0.1,1.3,0.2c3.1,0.6,5.8,2.4,7.5,5
		c1.8,2.7,2.4,5.7,1.7,8.8c-0.2,1.4-0.8,2.7-1.6,4c-1.4-0.2-2.8-0.4-4.3-0.5c-1.2-0.1-2.4-0.2-3.6-0.2c-0.3,0-0.5,0-0.8,0l-1.2,0
		h-0.1H124.4L124.4,31.7L124.4,31.7z M125.8,233.5l-1.3,0l-1.3,0c-12.5-0.5-22.3-10.6-22.5-23h23.6h0h0.3h0h23.6
		C148.1,222.9,138.2,233,125.8,233.5z M124.6,200.1L124.6,200.1h-0.3h0H53.2c-9.9,0-17.8-8-17.8-17.8c0-2.7,0.6-5.4,1.8-7.8
		c1.1-2.4,2.9-4.6,5-6.3l4.6-3.7c11.8-9.6,18.6-23.8,18.6-38.9v-24.1c0-23.6,14-44.5,34.8-54c4.1-1.9,8.5-3.3,13.1-4.2
		c3.2-0.6,6.5-1,10-1.1l1.3,0l1.3,0c3.5,0.1,6.9,0.4,10,1.1c0,0,0,0,0,0c4.6,0.9,8.9,2.4,13.1,4.2c20.8,9.5,34.8,30.5,34.8,54v24.1
		c0,15.1,6.8,29.3,18.6,38.9l4.6,3.7c2.1,1.7,3.8,3.8,5,6.3c1.2,2.4,1.8,5.1,1.8,7.8c0,9.9-8,17.8-17.8,17.8H124.6z"/>
</g>
</svg>
