<?xml version="1.0" encoding="utf-8"?>
<!-- Generator: Adobe Illustrator 24.2.1, SVG Export Plug-In . SVG Version: 6.00 Build 0)  -->
<svg version="1.1" id="Capa_1" xmlns="http://www.w3.org/2000/svg" xmlns:xlink="http://www.w3.org/1999/xlink" x="0px" y="0px"
	 viewBox="0 0 200 200" style="enable-background:new 0 0 200 200;" xml:space="preserve">
<style type="text/css">
	.st0{fill:#2E4AC7;}
	.st1{fill:#FFFFFF;}
</style>
<g id="Grupo_865" transform="translate(0.168 -92.685)">
	<g id="Grupo_862" transform="translate(0 92.835)">
		<g id="Grupo_861" transform="translate(0 0)">
			<g id="Trazado_381">
				<path class="st0" d="M99.8,145.7c-20.4,0-38.4-11.4-49.9-21c-13-10.8-21.1-21.9-21.5-22.3c-1.1-1.5-1.1-3.5,0-5.1
					c0.3-0.5,8.4-11.5,21.5-22.3c11.5-9.6,29.5-21,49.9-21c39.2,0,70.1,41.5,71.3,43.3c1.1,1.5,1.1,3.5,0,5.1
					C169.9,104.1,139.1,145.7,99.8,145.7z M99.8,62.6c-29.4,0-55,28.3-62.1,36.9l-0.3,0.3l0.3,0.3c7.1,8.7,32.6,36.9,62.1,36.9
					c29.7,0,55.1-28.3,62.1-36.9l0.3-0.3l-0.3-0.3C154.9,90.9,129.4,62.6,99.8,62.6z"/>
				<path class="st1" d="M99.8,54.5c39,0,69.7,41.3,70.9,43.1c1,1.3,1,3.1,0,4.5c-1.3,1.8-32,43.1-70.9,43.1
					c-39.2,0-69.7-41.3-70.9-43.1c-1-1.3-1-3.1,0-4.5c0.3-0.5,8.4-11.4,21.4-22.2C61.7,65.9,79.6,54.5,99.8,54.5 M99.8,137.6
					c29.9,0,55.4-28.4,62.5-37.1l0.5-0.6l-0.5-0.6c-7.1-8.7-32.7-37.1-62.5-37.1c-29.7,0-55.4,28.4-62.5,37.1l-0.5,0.6l0.5,0.6
					C44.5,109.2,70.1,137.6,99.8,137.6 M99.8,53.5c-39.5,0-70.5,41.7-71.8,43.5c-1.2,1.7-1.2,4,0,5.7c1.3,1.8,32.2,43.5,71.8,43.5
					s70.5-41.7,71.8-43.5c1.2-1.7,1.2-4,0-5.6C170.3,95.2,139.4,53.5,99.8,53.5L99.8,53.5z M99.8,136.6c-29.1,0-54.3-27.7-61.7-36.8
					c7.5-9.1,32.6-36.8,61.7-36.8s54.3,27.7,61.7,36.8C154.2,108.9,129,136.6,99.8,136.6L99.8,136.6z"/>
			</g>
		</g>
	</g>
	<g id="Grupo_864" transform="translate(5.975 95.225)">
		<g id="Grupo_863">
			<g id="Trazado_382">
				<path class="st0" d="M93.9,125.7c-15.6,0-28.2-12.7-28.2-28.2c0-15.6,12.7-28.2,28.2-28.2c15.6,0,28.2,12.7,28.2,28.2
					C122.1,113,109.4,125.7,93.9,125.7z M93.9,77.8c-10.8,0-19.7,8.8-19.7,19.7c0,10.8,8.8,19.7,19.7,19.7
					c10.8,0,19.7-8.8,19.7-19.7C113.5,86.6,104.7,77.8,93.9,77.8z"/>
				<path class="st1" d="M93.9,69.7L93.9,69.7c15.3,0,27.7,12.5,27.7,27.7c0,15.3-12.4,27.7-27.7,27.7c-15.3,0-27.7-12.4-27.7-27.7
					C66.1,82.2,78.6,69.7,93.9,69.7 M93.9,117.6L93.9,117.6L93.9,117.6c11.1,0,20.2-9.1,20.2-20.2c0-11.1-9-20.2-20.2-20.2
					c-11.1,0-20.2,9-20.2,20.2C73.7,108.6,82.7,117.6,93.9,117.6 M93.9,68.7c-15.9,0-28.7,12.9-28.7,28.7
					c0,15.9,12.9,28.7,28.7,28.7c15.9,0,28.7-12.9,28.7-28.7c0,0,0,0,0,0C122.6,81.6,109.7,68.7,93.9,68.7L93.9,68.7z M93.9,116.6
					c-10.6,0-19.2-8.6-19.2-19.2s8.6-19.2,19.2-19.2S113,86.9,113,97.5c0,0,0,0,0,0C113,108,104.4,116.6,93.9,116.6L93.9,116.6z"/>
			</g>
		</g>
	</g>
</g>
</svg>
