<svg xmlns="http://www.w3.org/2000/svg" xmlns:xlink="http://www.w3.org/1999/xlink" width="299" height="300" viewBox="0 0 299 300">
  <defs>
    <clipPath id="clip-Icono-Login-ForgotPass">
      <rect width="299" height="300"/>
    </clipPath>
  </defs>
  <g id="Icono-Login-ForgotPass" clip-path="url(#clip-Icono-Login-ForgotPass)">
    <g id="Grupo_928" data-name="Grupo 928" transform="translate(8.839 11.72)">
      <path id="Trazado_409" data-name="Trazado 409" d="M246.279,250.461a31.731,31.731,0,0,0-8.041-50.327,98.787,98.787,0,0,0-17.851-51.908l11.14-10.463a30.66,30.66,0,1,0-11.4-11.569l-9.483,8.906v1.282a99.206,99.206,0,0,0-144.191.97v-1.931l-9.178-9.067a30.678,30.678,0,1,0-11.466,11.5L57.09,149a98.765,98.765,0,0,0-17.337,51.5,31.732,31.732,0,0,0-7.366,49.966A54.549,54.549,0,0,0,.646,299.96v14.8H278.02v-14.8A54.548,54.548,0,0,0,246.279,250.461Zm.578-153.6a14.4,14.4,0,1,1-14.4,14.4A14.413,14.413,0,0,1,246.858,96.862ZM30.634,125.655a14.4,14.4,0,1,1,14.4-14.4A14.413,14.413,0,0,1,30.634,125.655Zm192.91,87.1a15.538,15.538,0,1,1-15.538,15.538A15.556,15.556,0,0,1,223.544,212.757Zm-168.422,0a15.538,15.538,0,1,1-15.538,15.538A15.555,15.555,0,0,1,55.122,212.757Zm15.942,85.035v.733H16.911a38.241,38.241,0,0,1,60.467-29.662A69.1,69.1,0,0,0,71.064,297.792Zm122.774.734H87.3v-.733a53.268,53.268,0,0,1,106.537,0ZM140.57,226.1a23.208,23.208,0,1,1,23.208-23.208A23.233,23.233,0,0,1,140.57,226.1Zm60.24,24.365a54.251,54.251,0,0,0-6.371,3.459,69.836,69.836,0,0,0-28.226-20.728,39.725,39.725,0,1,0-51.288,0,69.855,69.855,0,0,0-29.069,21.777,54.022,54.022,0,0,0-7.981-4.53,31.747,31.747,0,0,0-21.5-53.89,83.076,83.076,0,0,1,165.259.03,31.748,31.748,0,0,0-20.825,53.882Zm9.266,48.063v-.733a69.087,69.087,0,0,0-6.9-30.186,38.23,38.23,0,0,1,58.582,30.919Z" transform="translate(0 -36.76)" fill="#fff"/>
      <path id="Trazado_410" data-name="Trazado 410" d="M203.647,77.951l12.138,10.786a21.447,21.447,0,0,1,32.143,0l12.138-10.786a37.686,37.686,0,0,0-56.42,0Z" transform="translate(-93.065 -29.736)" fill="#fff"/>
      <path id="Trazado_411" data-name="Trazado 411" d="M209.7,16.424a56.788,56.788,0,0,1,42.4,19.093L264.236,24.73a72.857,72.857,0,0,0-109.069,0L167.3,35.516A56.788,56.788,0,0,1,209.7,16.424Z" transform="translate(-70.91 0)" fill="#fff"/>
    </g>
  </g>
</svg>
