<svg xmlns="http://www.w3.org/2000/svg" xmlns:xlink="http://www.w3.org/1999/xlink" width="129.83" height="130.529" viewBox="0 0 129.83 130.529">
  <defs>
    <radialGradient id="radial-gradient" cx="0.5" cy="0.551" r="0.751" gradientTransform="translate(0.046) scale(0.908 1)" gradientUnits="objectBoundingBox">
      <stop offset="0.001" stop-color="#4da2d0"/>
      <stop offset="0.301" stop-color="#1e9cd7"/>
      <stop offset="0.984" stop-color="#00479a"/>
    </radialGradient>
    <linearGradient id="linear-gradient" x1="0.501" y1="-0.212" x2="0.496" y2="0.681" gradientUnits="objectBoundingBox">
      <stop offset="0" stop-color="#fff" stop-opacity="0"/>
      <stop offset="1" stop-color="#fff"/>
    </linearGradient>
    <linearGradient id="linear-gradient-2" x1="0.501" y1="-0.303" x2="0.496" y2="0.66" xlink:href="#linear-gradient"/>
    <linearGradient id="linear-gradient-3" x1="-0.638" y1="0.058" x2="1.328" y2="0.956" gradientTransform="matrix(1, 0, 0, 1, 0, 0)" xlink:href="#radial-gradient"/>
    <linearGradient id="linear-gradient-4" x1="-1.812" y1="-0.313" x2="0.558" y2="0.585" gradientTransform="matrix(1, 0, 0, 1, 0, 0)" xlink:href="#radial-gradient"/>
    <linearGradient id="linear-gradient-5" x1="0.046" y1="0.333" x2="2.465" y2="1.23" gradientTransform="matrix(1, 0, 0, 1, 0, 0)" xlink:href="#radial-gradient"/>
  </defs>
  <g id="Grupo_2020" data-name="Grupo 2020" transform="translate(-239.512 -444.855)">
    <rect id="Rectángulo_633" data-name="Rectángulo 633" width="87.088" height="15.743" rx="7.872" transform="translate(259.944 559.641)" fill="#f90"/>
    <g id="Grupo_2020-2" data-name="Grupo 2020" transform="translate(275.137 564.488)">
      <path id="Trazado_631" data-name="Trazado 631" d="M292.972,624.6h4.162v.7h-3.4v1.741h3.147v.664H293.73v1.945h3.463v.684h-4.221Z" transform="translate(-292.972 -624.453)" fill="#fff"/>
      <path id="Trazado_632" data-name="Trazado 632" d="M303.715,624.6h1.114l1.649,4.85,1.637-4.85h1.106v5.736h-.742v-3.385q0-.176.008-.582t.007-.87l-1.637,4.838h-.77l-1.653-4.838v.176c0,.14,0,.355.011.642s.012.5.012.635v3.385h-.742Z" transform="translate(-296.556 -624.453)" fill="#fff"/>
      <path id="Trazado_633" data-name="Trazado 633" d="M316.732,624.6H319.3a1.74,1.74,0,0,1,1.229.432,1.566,1.566,0,0,1,.468,1.212,1.765,1.765,0,0,1-.417,1.169,1.575,1.575,0,0,1-1.278.5h-1.791v2.425h-.777Zm3.013.789a1.664,1.664,0,0,0-.7-.121h-1.535v1.988h1.535a1.463,1.463,0,0,0,.843-.223.886.886,0,0,0,.324-.785A.864.864,0,0,0,319.745,625.387Z" transform="translate(-300.899 -624.453)" fill="#fff"/>
      <path id="Trazado_634" data-name="Trazado 634" d="M327.645,624.6h2.607a2.562,2.562,0,0,1,1.062.191,1.357,1.357,0,0,1,.794,1.355,1.41,1.41,0,0,1-.808,1.371,1.179,1.179,0,0,1,.506.359,1.287,1.287,0,0,1,.189.722l.027.769a2.42,2.42,0,0,0,.055.488.482.482,0,0,0,.25.351v.129h-.952a.714.714,0,0,1-.063-.192,3.76,3.76,0,0,1-.039-.452l-.047-.957a.808.808,0,0,0-.406-.754,1.64,1.64,0,0,0-.679-.105h-1.719v2.46h-.777Zm2.524,2.628a1.432,1.432,0,0,0,.841-.219.9.9,0,0,0,.31-.788.852.852,0,0,0-.433-.836,1.383,1.383,0,0,0-.618-.117h-1.846v1.961Z" transform="translate(-304.539 -624.453)" fill="#fff"/>
      <path id="Trazado_635" data-name="Trazado 635" d="M339.162,624.6h4.162v.7h-3.405v1.741h3.147v.664h-3.147v1.945h3.464v.684h-4.221Z" transform="translate(-308.382 -624.453)" fill="#fff"/>
      <path id="Trazado_636" data-name="Trazado 636" d="M350.331,628.411a1.614,1.614,0,0,0,.222.793,1.448,1.448,0,0,0,1.313.57,2.244,2.244,0,0,0,.767-.125.88.88,0,0,0,.67-.867.758.758,0,0,0-.284-.668,2.821,2.821,0,0,0-.9-.34l-.752-.175a3.34,3.34,0,0,1-1.044-.379,1.211,1.211,0,0,1-.53-1.074,1.675,1.675,0,0,1,.521-1.269,2.048,2.048,0,0,1,1.473-.5,2.513,2.513,0,0,1,1.492.436,1.588,1.588,0,0,1,.614,1.392h-.73a1.487,1.487,0,0,0-.239-.707,1.364,1.364,0,0,0-1.158-.449,1.3,1.3,0,0,0-.947.289.923.923,0,0,0-.288.672.66.66,0,0,0,.34.616,4.876,4.876,0,0,0,1.01.313l.78.184a2.352,2.352,0,0,1,.87.362,1.377,1.377,0,0,1,.53,1.168,1.467,1.467,0,0,1-.676,1.363,2.969,2.969,0,0,1-1.571.411,2.314,2.314,0,0,1-1.634-.547,1.868,1.868,0,0,1-.578-1.472Z" transform="translate(-311.864 -624.381)" fill="#fff"/>
      <path id="Trazado_637" data-name="Trazado 637" d="M362.249,624.6h.877l2.082,5.736h-.851l-.6-1.719h-2.25l-.622,1.719h-.8Zm1.288,3.385-.883-2.534-.918,2.534Z" transform="translate(-315.363 -624.453)" fill="#fff"/>
      <path id="Trazado_638" data-name="Trazado 638" d="M372.1,628.411a1.621,1.621,0,0,0,.222.793,1.449,1.449,0,0,0,1.313.57,2.246,2.246,0,0,0,.768-.125.88.88,0,0,0,.669-.867.758.758,0,0,0-.283-.668,2.828,2.828,0,0,0-.9-.34l-.753-.175a3.335,3.335,0,0,1-1.044-.379,1.209,1.209,0,0,1-.53-1.074,1.676,1.676,0,0,1,.52-1.269,2.051,2.051,0,0,1,1.474-.5,2.509,2.509,0,0,1,1.491.436,1.586,1.586,0,0,1,.614,1.392h-.73a1.473,1.473,0,0,0-.239-.707,1.364,1.364,0,0,0-1.157-.449,1.3,1.3,0,0,0-.947.289.923.923,0,0,0-.289.672.659.659,0,0,0,.341.616,4.876,4.876,0,0,0,1.01.313l.78.184a2.344,2.344,0,0,1,.87.362,1.377,1.377,0,0,1,.53,1.168,1.466,1.466,0,0,1-.676,1.363,2.965,2.965,0,0,1-1.57.411,2.313,2.313,0,0,1-1.634-.547,1.866,1.866,0,0,1-.578-1.472Z" transform="translate(-319.126 -624.381)" fill="#fff"/>
    </g>
    <g id="Grupo_2025" data-name="Grupo 2025" transform="translate(270.666 444.855)">
      <g id="Grupo_2024" data-name="Grupo 2024">
        <g id="Grupo_2023" data-name="Grupo 2023">
          <g id="Grupo_2021" data-name="Grupo 2021">
            <path id="Trazado_639" data-name="Trazado 639" d="M353.946,478.7a33.841,33.841,0,1,0-53.426,27.59,40.087,40.087,0,0,1,4.689-10.145c3.651-4.921,9-8.22,14.952-8.22,6.226,0,11.784,3.606,15.438,8.9a35.154,35.154,0,0,1,4.038,9.5A33.792,33.792,0,0,0,353.946,478.7Z" transform="translate(-286.263 -444.855)" fill="url(#radial-gradient)"/>
            <path id="Trazado_640" data-name="Trazado 640" d="M327.3,509.481c-5.955,0-11.3,3.3-14.952,8.221a40.084,40.084,0,0,0-4.689,10.145,33.8,33.8,0,0,0,39.117.037,35.152,35.152,0,0,0-4.038-9.5C339.082,513.087,333.523,509.481,327.3,509.481Z" transform="translate(-293.4 -466.415)" fill="#fff"/>
          </g>
          <path id="Trazado_641" data-name="Trazado 641" d="M348.012,463.3a32.225,32.225,0,0,0-2.34-12.178,33.856,33.856,0,0,0-39.24,0,32.222,32.222,0,0,0-2.34,12.178c0,12.225,6.565,22.558,15.582,25.929a16.222,16.222,0,0,1,12.755,0C341.447,485.856,348.012,475.523,348.012,463.3Z" transform="translate(-292.211 -444.855)" opacity="0.2" fill="url(#linear-gradient)"/>
          <g id="Grupo_2022" data-name="Grupo 2022" transform="translate(11.882)">
            <path id="Trazado_642" data-name="Trazado 642" d="M319.675,487.763a16.222,16.222,0,0,1,12.755,0c9.017-3.371,15.583-15.573,15.583-27.8a32.977,32.977,0,0,0-.918-7.763,33.808,33.808,0,0,0-42.083,0,32.977,32.977,0,0,0-.918,7.763C304.093,472.189,310.658,484.392,319.675,487.763Z" transform="translate(-304.093 -444.855)" opacity="0.2" fill="url(#linear-gradient-2)"/>
          </g>
          <circle id="Elipse_112" data-name="Elipse 112" cx="12.23" cy="12.23" r="12.23" transform="translate(21.611 21.611)" fill="#fff"/>
        </g>
      </g>
    </g>
    <g id="Grupo_2031" data-name="Grupo 2031" transform="translate(239.512 531.252)">
      <g id="Grupo_2030" data-name="Grupo 2030">
        <g id="Grupo_2028" data-name="Grupo 2028" transform="translate(49.799 0.128)">
          <g id="Grupo_2026" data-name="Grupo 2026">
            <path id="Trazado_643" data-name="Trazado 643" d="M314.243,577.841H320.3v16.341h3.6V577.841h6.058V574.7H314.243Z" transform="translate(-314.243 -574.698)" fill="gray"/>
            <path id="Trazado_644" data-name="Trazado 644" d="M343.081,584.223a11.3,11.3,0,0,0-5.669,1.772l-.3.182,1.3,2.264.313-.183a7.87,7.87,0,0,1,3.916-1.315c1.561,0,2.452.678,2.653,2.014-6.067.5-8.55,1.917-8.55,4.844,0,2.27,1.833,3.856,4.459,3.856a8.049,8.049,0,0,0,4.433-1.627l.166,1.329h2.716V589.7C348.518,586.219,346.536,584.223,343.081,584.223Zm2.248,7.033v2.278a5.537,5.537,0,0,1-3.425,1.442c-.61,0-2.03-.133-2.03-1.361C339.875,592.721,340.506,591.653,345.33,591.256Z" transform="translate(-321.749 -577.876)" fill="gray"/>
            <path id="Trazado_645" data-name="Trazado 645" d="M364.894,591.842a5.068,5.068,0,0,1-2.026.479,1.741,1.741,0,0,1-1.925-2V576.465h-7.354v2.69h4.165V590.17c0,3.113,1.654,4.9,4.538,4.9a8.326,8.326,0,0,0,3.473-.73l.313-.124-.821-2.532Z" transform="translate(-327.369 -575.288)" fill="gray"/>
            <path id="Trazado_646" data-name="Trazado 646" d="M377.921,584.223a6.5,6.5,0,0,0-6.576,6.7c0,4.03,2.79,6.737,6.942,6.737a8.946,8.946,0,0,0,4.917-1.5l.277-.183-1.205-2.178-.319.193a6.244,6.244,0,0,1-3.357,1.015c-2.225,0-3.642-1.079-4.015-3H383.7l.047-.3a9.29,9.29,0,0,0,.118-1.4C383.861,586.609,381.529,584.223,377.921,584.223Zm.068,2.632a2.722,2.722,0,0,1,2.9,2.622h-6.216A3.342,3.342,0,0,1,377.989,586.855Z" transform="translate(-333.293 -577.876)" fill="gray"/>
            <path id="Trazado_647" data-name="Trazado 647" d="M398.7,584.223a6.173,6.173,0,0,0-4.274,1.9l-.163-1.6h-2.7v12.839h3.189v-8.57c1.126-1.141,1.932-1.719,3.1-1.719,1.29,0,2.149.465,2.149,2.736v7.554h3.189v-7.878C403.182,587.082,402.4,584.223,398.7,584.223Z" transform="translate(-340.036 -577.876)" fill="gray"/>
            <path id="Trazado_648" data-name="Trazado 648" d="M422.107,592.543l-.365.134a7.4,7.4,0,0,1-2.638.5c-1.875,0-2.572-.741-2.572-2.735v-5h5.719v-2.69h-5.719V578.9h-2.738l-.325,3.854-3.465.13v2.548h3.34v4.995c0,3.618,1.746,5.452,5.189,5.452a11.617,11.617,0,0,0,3.953-.726l.319-.11Z" transform="translate(-346.19 -576.101)" fill="gray"/>
          </g>
          <g id="Grupo_2027" data-name="Grupo 2027" transform="translate(77.057 6.336)">
            <path id="Trazado_649" data-name="Trazado 649" d="M429.878,585.8a1.489,1.489,0,1,1,1.488,1.577A1.5,1.5,0,0,1,429.878,585.8Zm2.719,0a1.236,1.236,0,1,0-1.231,1.34A1.261,1.261,0,0,0,432.6,585.8Zm-1.785-.872h.56c.319,0,.626.121.626.524a.48.48,0,0,1-.322.454l.4.706h-.3l-.315-.618h-.388v.618h-.257Zm.493.841c.25,0,.416-.086.416-.3,0-.185-.1-.311-.388-.311h-.264v.611Z" transform="translate(-429.878 -584.207)" fill="gray"/>
          </g>
        </g>
        <g id="Grupo_2029" data-name="Grupo 2029">
          <path id="Trazado_650" data-name="Trazado 650" d="M267.575,574.531,261.51,594h5.11l1.146-4.461h5.087L273.99,594h5.267l-6.065-19.474Zm1.223,10.988.329-1.281c.337-1.325.728-2.939,1.166-4.808.307,1.275.642,2.594.948,3.793l.585,2.3Z" transform="translate(-246.851 -574.514)" fill="url(#linear-gradient-3)"/>
          <path id="Trazado_651" data-name="Trazado 651" d="M296.992,574.531h-7.013V594h4.963v-6.362h2.05c4.753,0,7.706-2.575,7.706-6.72C304.7,576.741,302.033,574.531,296.992,574.531Zm-.247,9.025h-1.8v-4.938h1.8c2.182,0,3.073.668,3.073,2.3C299.818,582.719,298.842,583.556,296.745,583.556Z" transform="translate(-256.349 -574.514)" fill="url(#linear-gradient-4)"/>
          <path id="Trazado_652" data-name="Trazado 652" d="M253.786,578.27l.06-.086v-3.678h-14l-.156,4.729H247.4L239.57,590.56l-.058.085V594h14.325l.094-4.7h-7.813Z" transform="translate(-239.512 -574.506)" fill="url(#linear-gradient-5)"/>
        </g>
      </g>
    </g>
  </g>
</svg>
