<svg xmlns="http://www.w3.org/2000/svg" xmlns:xlink="http://www.w3.org/1999/xlink" width="200" height="200" viewBox="0 0 200 200">
  <defs>
    <clipPath id="clip-ZapTalent-Icon-Boton-4">
      <rect width="200" height="200"/>
    </clipPath>
  </defs>
  <g id="ZapTalent-Icon-Boton-4" clip-path="url(#clip-ZapTalent-Icon-Boton-4)">
    <g id="_3003657" data-name="3003657" transform="translate(42.258 22.927)">
      <g id="Grupo_1363" data-name="Grupo 1363" transform="translate(0)">
        <path id="Trazado_513" data-name="Trazado 513" d="M174.7,36.233h-.9L162.438,5.007C161.23,1.685,159.259,0,156.581,0H90.156C87.478,0,85.507,1.685,84.3,5.007L72.944,36.233h-.9A6.046,6.046,0,0,0,66,42.271V49.82a6.046,6.046,0,0,0,6.039,6.039h.195l5.851,87.688c.434,6.5,5.4,11.046,12.071,11.046h66.425a11.726,11.726,0,0,0,12.071-11.046L174.5,55.858h.2a6.046,6.046,0,0,0,6.038-6.039V42.271A6.046,6.046,0,0,0,174.7,36.233ZM148.773,6.039l-4.117,18.116H102.081L97.964,6.039Zm13.854,137.106a5.75,5.75,0,0,1-6.046,5.409H90.156a5.625,5.625,0,0,1-6.045-5.409L78.286,55.858h90.165ZM72.039,49.82V42.271H109.78a3.019,3.019,0,1,0,0-6.039H79.369l10.6-29.162a5.73,5.73,0,0,1,.463-1.032h1.335l4.5,19.792a5.156,5.156,0,0,0,4.957,4.363H145.51a5.156,5.156,0,0,0,4.957-4.363l4.5-19.792H156.3a5.719,5.719,0,0,1,.463,1.032l10.6,29.162H136.954a3.019,3.019,0,1,0,0,6.039H174.7V49.82Z" transform="translate(-66 0)" fill="#fff"/>
        <path id="Trazado_514" data-name="Trazado 514" d="M199.019,234.179h30.194a3.019,3.019,0,0,0,3.019-3.019V217.572a3.02,3.02,0,0,0-3.019-3.019H199.019A3.019,3.019,0,0,0,196,217.572V231.16A3.019,3.019,0,0,0,199.019,234.179Zm3.019-13.587h24.155v7.548H202.039Z" transform="translate(-156.748 -149.771)" fill="#fff"/>
        <path id="Trazado_515" data-name="Trazado 515" d="M249.017,120h0a3.019,3.019,0,1,0,3.022,3.019A3.018,3.018,0,0,0,249.015,120Z" transform="translate(-191.649 -83.767)" fill="#fff"/>
      </g>
    </g>
  </g>
</svg>
