<svg xmlns="http://www.w3.org/2000/svg" xmlns:xlink="http://www.w3.org/1999/xlink" width="200" height="200" viewBox="0 0 200 200">
  <defs>
    <clipPath id="clip-ZapTalent-Icon-PublicarAviso-On">
      <rect width="200" height="200"/>
    </clipPath>
  </defs>
  <g id="ZapTalent-Icon-PublicarAviso-On" clip-path="url(#clip-ZapTalent-Icon-PublicarAviso-On)">
    <g id="_942828" data-name="942828" transform="translate(15 13)">
      <g id="Grupo_1331" data-name="Grupo 1331" transform="translate(22.023)">
        <g id="Grupo_1330" data-name="Grupo 1330">
          <path id="Trazado_452" data-name="Trazado 452" d="M227.169,0H106.195A10.206,10.206,0,0,0,96,10.194v92.747a3.4,3.4,0,1,0,6.8,0V10.194a3.4,3.4,0,0,1,3.4-3.4H227.169a3.4,3.4,0,0,1,3.4,3.4v153.6a3.4,3.4,0,0,1-3.4,3.4H106.195a3.4,3.4,0,0,1-3.4-3.4V152.8a3.4,3.4,0,1,0-6.8,0v10.988a10.206,10.206,0,0,0,10.194,10.194H227.169a10.206,10.206,0,0,0,10.195-10.194V10.194A10.206,10.206,0,0,0,227.169,0Z" transform="translate(-96)" fill="#fff"/>
        </g>
      </g>
      <g id="Grupo_1333" data-name="Grupo 1333" transform="translate(51.891 131.169)">
        <g id="Grupo_1332" data-name="Grupo 1332">
          <path id="Trazado_453" data-name="Trazado 453" d="M268.847,386H187.291a3.4,3.4,0,1,0,0,6.8h81.556a3.4,3.4,0,1,0,0-6.8Z" transform="translate(-183.893 -386)" fill="#fff"/>
        </g>
      </g>
      <g id="Grupo_1335" data-name="Grupo 1335" transform="translate(133.446 148.84)">
        <g id="Grupo_1334" data-name="Grupo 1334">
          <path id="Trazado_454" data-name="Trazado 454" d="M429.691,439a3.4,3.4,0,1,0,1,2.4A3.415,3.415,0,0,0,429.691,439Z" transform="translate(-423.89 -438)" fill="#fff"/>
        </g>
      </g>
      <g id="Grupo_1337" data-name="Grupo 1337" transform="translate(51.891 148.84)">
        <g id="Grupo_1336" data-name="Grupo 1336">
          <path id="Trazado_455" data-name="Trazado 455" d="M254.951,438h-67.66a3.4,3.4,0,1,0,0,6.8h67.66a3.4,3.4,0,1,0,0-6.8Z" transform="translate(-183.893 -438)" fill="#fff"/>
        </g>
      </g>
      <g id="Grupo_1339" data-name="Grupo 1339" transform="translate(54.03 29.825)">
        <g id="Grupo_1338" data-name="Grupo 1338">
          <path id="Trazado_456" data-name="Trazado 456" d="M192.729,87.767a36.656,36.656,0,0,0-25.149,63.341,3.342,3.342,0,0,0,.392.365,36.6,36.6,0,0,0,49.512,0,3.357,3.357,0,0,0,.393-.365,36.656,36.656,0,0,0-25.148-63.341Zm0,66.551a29.731,29.731,0,0,1-18.5-6.434,20.952,20.952,0,0,1,37,0A29.731,29.731,0,0,1,192.729,154.318Zm-7.153-31.5V120.18a7.152,7.152,0,1,1,14.3,0v2.638a7.152,7.152,0,0,1-14.3,0ZM216.2,142.907A27.507,27.507,0,0,0,203.212,132a13.887,13.887,0,0,0,3.465-9.186V120.18a13.949,13.949,0,1,0-27.9,0v2.638A13.888,13.888,0,0,0,182.245,132a27.508,27.508,0,0,0-12.988,10.9,29.877,29.877,0,1,1,46.943,0Z" transform="translate(-156.055 -87.767)" fill="#fff"/>
        </g>
      </g>
      <g id="Grupo_1341" data-name="Grupo 1341" transform="translate(1 13.593)">
        <g id="Grupo_1340" data-name="Grupo 1340">
          <path id="Trazado_457" data-name="Trazado 457" d="M89.7,40a52.887,52.887,0,0,0-32.641,94.515L17.621,173.955a6.341,6.341,0,1,1-8.967-8.967l20.172-20.172a3.4,3.4,0,0,0-4.806-4.806L3.848,160.182a13.137,13.137,0,0,0,18.578,18.579l40.339-40.339A52.9,52.9,0,1,0,89.7,40Zm0,99.015a46.109,46.109,0,1,1,46.109-46.109A46.162,46.162,0,0,1,89.7,139.015Z" transform="translate(0 -40)" fill="#fff"/>
        </g>
      </g>
      <g id="Grupo_1343" data-name="Grupo 1343" transform="translate(34.72 101.911)">
        <g id="Grupo_1342" data-name="Grupo 1342">
          <path id="Trazado_458" data-name="Trazado 458" d="M105.031,300.9a3.4,3.4,0,1,0,1,2.4A3.418,3.418,0,0,0,105.031,300.9Z" transform="translate(-99.23 -299.9)" fill="#fff"/>
        </g>
      </g>
    </g>
  </g>
</svg>
